<svg width="32" height="32" viewBox="0 0 32 32" fill="none" xmlns="http://www.w3.org/2000/svg">
<path fill-rule="evenodd" clip-rule="evenodd" d="M19.1922 3.7732C17.9714 3.41342 16.6973 3.2233 15.4101 3.21764V3.21753L15.3913 3.21757L15.3726 3.21753V3.21764C10.6158 3.23856 6.0396 5.77802 3.66667 10.0902C0.796471 15.3061 1.69693 21.7966 5.87771 26.0273C8.47257 28.6531 12.0958 29.9898 15.3726 30V30L15.3913 30L15.4101 30V30C18.6868 29.9898 22.31 28.6531 24.9049 26.0273C28.386 22.5046 29.5928 17.4153 28.2425 12.7996C27.4321 13.2257 26.5236 13.4907 25.5598 13.5517C26.5499 16.9166 25.8212 20.601 23.5359 23.3474C23.3756 23.5396 23.1076 23.6019 22.8794 23.4999C21.9008 23.0546 20.7155 22.6154 19.36 22.1152L18.5333 21.8102C18.3355 21.6648 18.2058 21.4443 18.1747 21.2002C18.0129 20.6234 18.0896 20.0054 18.3875 19.4861C19.5788 18.1746 20.3143 16.7594 20.3143 13.7826C20.4347 12.4167 19.9673 11.0643 19.03 10.0666C18.0926 9.0688 16.7749 8.52091 15.409 8.56109H15.3736C14.0077 8.52091 12.69 9.0688 11.7526 10.0666C10.8153 11.0643 10.3479 12.4167 10.4683 13.7826C10.4683 16.7594 11.2038 18.1746 12.3951 19.4861C12.693 20.0054 12.7697 20.6234 12.6079 21.2002C12.5768 21.4443 12.4472 21.6648 12.2493 21.8102L11.4226 22.1152C10.0671 22.6154 8.88181 23.0546 7.90318 23.4999C7.67498 23.6019 7.40703 23.5396 7.24671 23.3474C4.61595 20.1858 4.04799 15.7813 5.79015 12.0519C7.52965 8.3282 11.2942 5.94982 15.3913 5.94959C16.4426 5.94965 17.472 6.10628 18.4508 6.40204C18.5159 5.4586 18.7764 4.56892 19.1922 3.7732Z" fill="#A2A9B3"/>
<path fill-rule="evenodd" clip-rule="evenodd" d="M25.1236 2.00109C23.8226 2.02239 22.5822 2.55482 21.6706 3.4833C20.749 4.40084 20.2402 5.65379 20.2614 6.95409C20.2599 8.22411 20.7639 9.44251 21.6623 10.3403C22.5606 11.2381 23.7793 11.7414 25.0494 11.7391H25.1362C27.846 11.7112 30.0218 9.49505 29.9997 6.7853C30.0027 5.49954 29.487 4.26691 28.5692 3.3664C27.6514 2.4659 26.4092 1.97366 25.1236 2.00109ZM24.5219 8.71302C24.516 8.55231 24.575 8.39598 24.6856 8.27921C24.7961 8.16244 24.949 8.09506 25.1098 8.09222H25.1208C25.4535 8.09286 25.7264 8.35618 25.7388 8.68868C25.7448 8.84942 25.6859 9.00582 25.5752 9.12261C25.4646 9.2394 25.3117 9.30676 25.1508 9.30948H25.1399C24.8073 9.30842 24.5347 9.04533 24.5219 8.71302ZM24.7248 7.07298V4.63847C24.7248 4.41438 24.9064 4.23272 25.1305 4.23272C25.3546 4.23272 25.5363 4.41438 25.5363 4.63847V7.07298C25.5363 7.29707 25.3546 7.47873 25.1305 7.47873C24.9064 7.47873 24.7248 7.29707 24.7248 7.07298Z" fill="#CE0E2D"/>
</svg>
