<svg width="32" height="32" viewBox="0 0 32 32" fill="none" xmlns="http://www.w3.org/2000/svg">
<path fill-rule="evenodd" clip-rule="evenodd" d="M19.1922 3.77322C17.9714 3.41343 16.6973 3.22332 15.4101 3.21766V3.21754L15.3913 3.21759L15.3726 3.21754V3.21766C10.6158 3.23857 6.0396 5.77803 3.66667 10.0902C0.796471 15.3061 1.69693 21.7966 5.87771 26.0273C8.47257 28.6531 12.0958 29.9899 15.3726 30V30L15.3913 30L15.4101 30V30C18.6868 29.9899 22.31 28.6531 24.9049 26.0273C28.386 22.5046 29.5928 17.4153 28.2425 12.7996C27.4321 13.2258 26.5236 13.4907 25.5598 13.5517C26.5499 16.9167 25.8212 20.601 23.5359 23.3474C23.3756 23.5397 23.1076 23.6019 22.8794 23.4999C21.9008 23.0546 20.7155 22.6154 19.36 22.1152L18.5333 21.8102C18.3355 21.6649 18.2058 21.4443 18.1747 21.2002C18.0129 20.6234 18.0896 20.0055 18.3875 19.4861C19.5788 18.1746 20.3143 16.7594 20.3143 13.7827C20.4347 12.4167 19.9673 11.0643 19.03 10.0666C18.0926 9.06881 16.7749 8.52093 15.409 8.56111H15.3736C14.0077 8.52093 12.69 9.06881 11.7526 10.0666C10.8153 11.0643 10.3479 12.4167 10.4683 13.7827C10.4683 16.7594 11.2038 18.1746 12.3951 19.4861C12.693 20.0055 12.7697 20.6234 12.6079 21.2002C12.5768 21.4443 12.4472 21.6649 12.2493 21.8102L11.4226 22.1152C10.0671 22.6154 8.88181 23.0546 7.90318 23.4999C7.67498 23.6019 7.40703 23.5397 7.24671 23.3474C4.61595 20.1859 4.04799 15.7814 5.79015 12.052C7.52965 8.32822 11.2942 5.94984 15.3913 5.9496C16.4426 5.94966 17.472 6.1063 18.4508 6.40206C18.5159 5.45861 18.7764 4.56894 19.1922 3.77322Z" fill="#A2A9B3"/>
<path fill-rule="evenodd" clip-rule="evenodd" d="M22.8603 2.56487C23.5601 2.19299 24.3406 1.999 25.1331 2C26.8469 1.99998 28.4345 2.90195 29.3126 4.37463C30.1907 5.8473 30.2299 7.67356 29.4158 9.18261C28.9944 9.9565 28.3724 10.6025 27.6151 11.0525C26.2713 11.8586 24.6202 11.9621 23.1864 11.3301C21.2447 10.485 20.0719 8.48069 20.2858 6.37287C20.3609 5.65645 20.5954 4.96594 20.972 4.352C21.429 3.59695 22.0814 2.97947 22.8603 2.56487ZM27.096 5.04347L27.0184 5.0438C26.8911 5.04657 26.7741 5.10919 26.7001 5.21682L24.7561 7.79169L23.5091 6.81709C23.3411 6.68589 23.0938 6.71271 22.9604 6.87542C22.8309 7.03343 22.8569 7.26171 23.0202 7.38923L24.5865 8.61199C24.6694 8.67647 24.7765 8.70575 24.8828 8.69254C24.9887 8.6794 25.0839 8.62543 25.1462 8.54459L27.3624 5.63561C27.4479 5.53032 27.4671 5.38949 27.4132 5.26712C27.3581 5.14225 27.2352 5.05549 27.096 5.04347Z" fill="#01AC2D"/>
</svg>
