<svg width="32" height="32" viewBox="0 0 32 32" fill="none" xmlns="http://www.w3.org/2000/svg">
<path fill-rule="evenodd" clip-rule="evenodd" d="M26.1312 13.3203C26.5744 13.3203 26.9502 13.5026 27.2586 13.8672C27.5669 14.2318 27.7307 14.6875 27.75 15.2344V28.0586C27.7307 28.6055 27.5669 29.0612 27.2586 29.4258C26.9502 29.7904 26.5744 29.9818 26.1312 30H6.5899C6.14665 29.9818 5.77086 29.7904 5.46252 29.4258C5.15417 29.0612 5 28.6055 5 28.0586V15.2344C5 14.6875 5.15417 14.2318 5.46252 13.8672C5.77086 13.5026 6.14665 13.3203 6.5899 13.3203H7.16804V10.75C7.22586 8.32552 8.09308 6.28841 9.7697 4.63867C11.4463 2.98893 13.5565 2.10938 16.1004 2H16.6207C19.1645 2.10938 21.2748 2.98893 22.9514 4.63867C24.628 6.28841 25.4952 8.32552 25.553 10.75V13.3203H25.8421C25.9963 13.3203 26.0927 13.3203 26.1312 13.3203ZM18.1817 21.6328C18.6635 21.1953 18.9044 20.6484 18.9044 19.9922C18.8851 19.3542 18.6635 18.8164 18.2395 18.3789C17.8155 17.9414 17.2759 17.6953 16.6207 17.6406H16.1004C15.4451 17.6953 14.9055 17.9414 14.4816 18.3789C14.0576 18.8164 13.836 19.3542 13.8167 19.9922C13.836 20.6484 14.0769 21.1953 14.5394 21.6328V25.5156C14.5394 25.7344 14.6213 25.9212 14.7851 26.0762C14.9489 26.2311 15.1561 26.3177 15.4066 26.3359H17.3434C17.5746 26.3177 17.7722 26.2311 17.936 26.0762C18.0998 25.9212 18.1817 25.7344 18.1817 25.5156V23.5742C18.1817 22.444 18.1817 21.7969 18.1817 21.6328ZM21.7373 13.3203V10.75C21.6988 9.3099 21.1736 8.10221 20.1618 7.12695C19.1501 6.15169 17.883 5.64583 16.3605 5.60938C14.8381 5.64583 13.571 6.15169 12.5592 7.12695C11.5475 8.10221 11.0223 9.3099 10.9838 10.75V13.3203H19.1935C20.6774 13.3203 21.5253 13.3203 21.7373 13.3203Z" fill="#A2A9B3"/>
</svg>
