<svg xmlns="http://www.w3.org/2000/svg" xmlns:xlink="http://www.w3.org/1999/xlink" width="50" height="50" viewBox="0 0 50 50">
  <defs>
    <style>
      .cls-1, .cls-3 {
        fill: #f6f5f5;
      }

      .cls-1 {
        stroke: #707070;
      }

      .cls-2 {
        clip-path: url(#clip-path);
      }
    </style>
    <clipPath id="clip-path">
      <rect id="Rectangle_8882" data-name="Rectangle 8882" class="cls-1" width="50" height="50" transform="translate(398 2428.179)"/>
    </clipPath>
  </defs>
  <g id="Mask_Group_662" data-name="Mask Group 662" class="cls-2" transform="translate(-398 -2428.179)">
    <path id="Union_73" data-name="Union 73" class="cls-3" d="M5.076,30.269A5.079,5.079,0,0,1,0,25.2V23.557H.83A4.169,4.169,0,0,0,4.968,19.88a2.394,2.394,0,0,0,0-1.012A4.192,4.192,0,0,0,.83,15.173H0V13.556A5.1,5.1,0,0,1,5.076,8.47H28.458a5.108,5.108,0,0,1,5.078,5.086v1.617H32.7a4.211,4.211,0,0,0-4.156,3.695,3.176,3.176,0,0,0,0,1.012A4.188,4.188,0,0,0,32.7,23.557h.832V25.2a5.092,5.092,0,0,1-5.078,5.068Zm8.476-4.337a2.313,2.313,0,0,0,.486,1.663,2.189,2.189,0,0,0,1.538.731l8.364.723c.054,0,.11.009.18.009a2.064,2.064,0,0,0,2.134-2.087l.524-5.917c.054-.8.124-1.59.2-2.385a2.031,2.031,0,0,0-1.842-2.295c-.108-.018-.236-.027-.344-.036l-2.276-.2c-.85-.072-1.718-.144-2.568-.217l-.018-.117c-.036-.109-.07-.172-.088-.235-.56-1.626-1.158-3.243-1.772-4.861A2.016,2.016,0,0,0,16.152,9.3a2.4,2.4,0,0,0-.812.145q-3.957,1.437-7.914,2.882a2.052,2.052,0,0,0-1.284,2.782C7.1,17.747,8.058,20.368,9.016,23a2.007,2.007,0,0,0,1.916,1.454,2.486,2.486,0,0,0,.848-.144c.378-.145.74-.28,1.138-.416.27-.109.56-.208.848-.325C13.7,24.361,13.624,25.147,13.552,25.933ZM23.994,27.8q-3.93-.366-7.86-.686c-.144-.028-.308-.028-.452-.046a.831.831,0,0,1-.866-1.021c.108-1.319.254-2.629.342-3.948.128-1.41.272-2.818.382-4.228.072-.8.36-1.057,1.154-.976,2.62.235,5.258.461,7.9.687.108.009.252.018.36.028a.823.823,0,0,1,.778.948c-.092,1.057-.2,2.123-.29,3.18-.146,1.716-.306,3.415-.452,5.122-.054.66-.306.94-.886.94Zm-6.9-4.445a.649.649,0,0,0-.234.072l-.108.045c-.036.019-.092.063-.128.081-.018.009-.036.027-.054.036-.072.045-.126.108-.2.162a1.291,1.291,0,0,0-.144.208,1.346,1.346,0,0,0-.254.8v.009a.907.907,0,0,0,.036.217.944.944,0,0,0,.054.2c.018.063.054.135.072.19a1.291,1.291,0,0,0,.416.488l.108.072a1.067,1.067,0,0,0,.38.172.824.824,0,0,0,.146.036,2.182,2.182,0,0,0,.251.009h0a1.413,1.413,0,0,0,1.122-.579c.036-.027.036-.072.072-.117h0a.593.593,0,0,0,.09-.163,1.409,1.409,0,0,0,.074-.244v-.045a1.487,1.487,0,0,0,.036-.271v-.009a1.416,1.416,0,0,0-1.43-1.409h-.034A1.424,1.424,0,0,0,17.092,23.358Zm1.754-1.039a1.99,1.99,0,0,0,.09.578,1.53,1.53,0,0,0,.326.443,1.357,1.357,0,0,0,.974.424h.018a1.355,1.355,0,0,0,.254-.027.839.839,0,0,0,.108-.027.318.318,0,0,0,.126-.027c.054-.027.11-.045.146-.063.054-.027.09-.054.142-.081.036-.027.074-.054.11-.081.054-.027.072-.072.126-.108a1.23,1.23,0,0,0,.108-.108v-.018a.523.523,0,0,1,.092-.117c.036-.054.054-.1.09-.154a.4.4,0,0,1,.034-.117c.018-.073.054-.136.074-.208a1.488,1.488,0,0,0,.036-.289,1.683,1.683,0,0,0-.036-.3c-.038-.081-.056-.172-.092-.253a.968.968,0,0,0-.124-.244,1.466,1.466,0,0,0-.886-.6.93.93,0,0,0-.272-.027A1.411,1.411,0,0,0,18.846,22.319Zm3.722-3.695a.465.465,0,0,0-.128.063.556.556,0,0,0-.09.054l-.018.009a1.41,1.41,0,0,0-.594.849v.09a.975.975,0,0,0-.038.226v.036a1.37,1.37,0,0,0,.038.28.689.689,0,0,0,.088.262,1.581,1.581,0,0,0,.126.245,2.239,2.239,0,0,0,.182.208,1.416,1.416,0,0,0,.994.416,1.49,1.49,0,0,0,.54-.109,1.329,1.329,0,0,0,.452-.307,1.4,1.4,0,0,0,.418-.985v-.036a1.279,1.279,0,0,0-.092-.533.117.117,0,0,1-.036-.063c-.036-.063-.072-.135-.108-.19a1.282,1.282,0,0,0-.182-.217,1.044,1.044,0,0,0-.306-.235,1.482,1.482,0,0,0-.164-.072.316.316,0,0,0-.162-.054.211.211,0,0,0-.126-.027.939.939,0,0,0-.234-.027h-.036A1.3,1.3,0,0,0,22.568,18.624ZM11.944,21.687a1.455,1.455,0,0,1-1.41-1.5,1.449,1.449,0,0,1,2.89-.027,2.107,2.107,0,0,1-.036.343,1.267,1.267,0,0,1-.072.262,1.1,1.1,0,0,1-.144.244.394.394,0,0,1-.108.172l-.072.072c0,.018,0,.018-.02.018a1.031,1.031,0,0,1-.162.135,1.414,1.414,0,0,1-.216.127c-.038.018-.092.036-.128.054a1.22,1.22,0,0,1-.2.063c-.036.009-.036.009-.036,0,0,.009-.036.018-.036.009a.753.753,0,0,1-.18.027Zm-1.772-4.96A1.422,1.422,0,0,1,8.762,15.3v-.235c.018-.072.036-.126.054-.181a.281.281,0,0,1,.056-.162A1.27,1.27,0,0,1,9.16,14.3c0-.009,0-.018.018-.027a1.122,1.122,0,0,0,.146-.126.264.264,0,0,1,.072-.036.8.8,0,0,1,.215-.117,1.341,1.341,0,0,1,.544-.118h.018a1.382,1.382,0,0,1,.994.407,1.508,1.508,0,0,1,.308.443,1.435,1.435,0,0,1,.126.551v.018a.59.59,0,0,1-.038.253.472.472,0,0,1-.036.163.818.818,0,0,1-.07.181.69.69,0,0,1-.108.2,2.38,2.38,0,0,1-.146.19c0,.019-.018.027-.036.036a1.012,1.012,0,0,1-.18.154s-.018,0-.018.009a.893.893,0,0,1-.254.136,1.043,1.043,0,0,1-.254.081.922.922,0,0,1-.27.036ZM15.1,14.9A1.428,1.428,0,0,1,13.7,13.465a1.456,1.456,0,0,1,1.426-1.409A1.423,1.423,0,0,1,16.55,13.5v.009A1.407,1.407,0,0,1,15.14,14.9Zm13.354-7.67H8.166L27.138.158a2.776,2.776,0,0,1,3.524,1.671l2.6,7.688A6.283,6.283,0,0,0,28.458,7.232Z" transform="translate(406.384 2437.936)"/>
  </g>
</svg>
