<svg xmlns="http://www.w3.org/2000/svg" width="22.843" height="22.867">
    <path data-name="Path 21" d="M1788.01 1229.7v-2.855a.714.714 0 1 1 1.427 0v2.855a.714.714 0 1 1-1.427 0zm12.133.714a.714.714 0 0 0 .714-.714v-2.855a.714.714 0 0 0-1.427 0v2.855a.713.713 0 0 0 .714.714zm7.851 12.846a5.71 5.71 0 1 1-5.71-5.709 5.71 5.71 0 0 1 5.71 5.709zm-1.428 0a4.279 4.279 0 1 1-.006 0zm-15.7-8.564h-2.855v2.855h2.855zm-2.855 7.137h2.855v-2.855h-2.855zm4.282-4.282h2.855v-2.851h-2.855zm0 4.282h2.855v-2.855h-2.855zm-5.709 1.285v-9.85h15.7v2.855h1.428v-5.567a1.558 1.558 0 0 0-1.546-1.57h-.6v.714a1.428 1.428 0 0 1-2.855 0v-.714h-8.564v.714a1.428 1.428 0 1 1-2.855 0v-.714h-.594a1.558 1.558 0 0 0-1.547 1.57v12.562a1.56 1.56 0 0 0 1.547 1.57h8.445v-1.427h-8.443a.135.135 0 0 1-.119-.142zm12.847-5.567v-2.851h-2.855v2.855zm5 5.709h-2.141v-2.141a.714.714 0 1 0-1.427 0v2.855a.713.713 0 0 0 .714.714h2.855a.714.714 0 0 0 0-1.427zm0 0" transform="translate(-1785.151 -1226.104)" style="fill:#fff"/>
</svg>
