<svg xmlns="http://www.w3.org/2000/svg" width="60" height="60" viewBox="0 0 60 60">
    <defs>
        <linearGradient id="35mai9ro6a" x1=".5" x2=".5" y2="1" gradientUnits="objectBoundingBox">
            <stop offset="0" stop-color="#867dc6"/>
            <stop offset="1" stop-color="#33305c"/>
        </linearGradient>
        <filter id="u4yz9g6acb" width="48.72" height="48.761" x="5.64" y="8.62" filterUnits="userSpaceOnUse">
            <feOffset dy="3"/>
            <feGaussianBlur result="blur" stdDeviation="3"/>
            <feFlood flood-color="#232043"/>
            <feComposite in2="blur" operator="in"/>
            <feComposite in="SourceGraphic"/>
        </filter>
    </defs>
    <g fill="url(#35mai9ro6a)" stroke="#7d77af">
        <circle cx="30" cy="30" r="30" stroke="none"/>
        <circle cx="30" cy="30" r="29.5" fill="none"/>
    </g>
    <g filter="url(#u4yz9g6acb)" transform="matrix(1, 0, 0, 1, 0, 0)">
        <path fill="#fff" fill-rule="evenodd" d="M80.24 125.961a15.329 15.329 0 0 0-10.871-4.5l-.011.011a15.375 15.375 0 0 0 .046 30.75v-.009a15.375 15.375 0 0 0 10.836-26.252zm-14.511 22.755l.019.024a12.4 12.4 0 0 1-8.1-7.838c-.62-2.671 3.342-1.994 5.193-.1 1.482 1.527 4.785 8.041 2.888 7.914zm-5.307-11.575v-.3h.363l.494-1.034 1.2-.156-.5 1.19h.35v.3h-.48l-.558 1.317-1.15-.263.5-1.054zm2.821-1.53l1.25-.157-1.543 3.705-1.035-.5zm17.97 5.032a12.425 12.425 0 0 1-8.259 8.1c-1.591-.2 1.565-6.4 3.014-7.89 1.776-1.815 5.494-2.514 5.245-.211zM78.63 138.2l-1.149.263-.56-1.317h-.48v-.307h.35l-.5-1.189 1.2.157.494 1.032h.363v.307h-.216zm-1.781.46l-1.035.5-1.542-3.7 1.249.156zm3.028-3.285l-2.274-.513a27.244 27.244 0 0 0-3.046-.542 41.464 41.464 0 0 0-5.225-.377 35.947 35.947 0 0 0-5.085.329 26.944 26.944 0 0 0-3.046.538l-2.274.515c-1.382.335-1.836.046-1.689-1.088a12.356 12.356 0 0 1 .451-1.619c.348-.965.569-.921 1.3-1.609a5.313 5.313 0 0 0 1.37-2.1 2.864 2.864 0 0 1 1.326-1.833A12.391 12.391 0 0 1 69.4 124.4v-.009a12.373 12.373 0 0 1 7.676 2.677 2.859 2.859 0 0 1 1.328 1.832 5.292 5.292 0 0 0 1.371 2.1c.731.689.951.643 1.3 1.608a12.409 12.409 0 0 1 .508 1.88c.071.966-.409 1.206-1.705.889z" transform="translate(-39.38 -106.84)"/>
    </g>
</svg>
