<svg xmlns="http://www.w3.org/2000/svg" width="60" height="63.067" viewBox="0 0 60 63.067">
    <defs>
        <filter id="97le0v916a" width="60" height="60.067" x="0" y="3" filterUnits="userSpaceOnUse">
            <feOffset dy="3"/>
            <feGaussianBlur result="blur" stdDeviation="3"/>
            <feFlood flood-color="#323232"/>
            <feComposite in2="blur" operator="in"/>
            <feComposite in="SourceGraphic"/>
        </filter>
    </defs>
    <g fill="none" stroke="rgba(255,255,255,0.1)">
        <rect width="60" height="60" stroke="none" rx="30"/>
        <rect width="59" height="59" x=".5" y=".5" rx="29.5"/>
    </g>
    <g opacity="0.2">
        <g filter="url(#97le0v916a)" transform="translate(9 9) matrix(1, 0, 0, 1, -9, -9)">
            <path fill="#fff" fill-rule="evenodd" d="M89.866 127.616A20.954 20.954 0 0 0 75 121.456l-.015.015a21.026 21.026 0 0 0 .063 42.052h.006v-.012a21.027 21.027 0 0 0 14.816-35.895zm-19.839 31.118l.026.032a16.948 16.948 0 0 1-11.079-10.719c-.848-3.653 4.569-2.727 7.1-.132 2.031 2.085 6.546 10.994 3.953 10.819zm-7.256-15.829v-.416h.5l.675-1.414 1.64-.213-.69 1.627h.479v.416h-.656l-.763 1.8-1.573-.36.689-1.442zm3.857-2.092l1.709-.214-2.11 5.067-1.415-.689zm24.572 6.881a16.99 16.99 0 0 1-11.3 11.082c-2.176-.274 2.139-8.759 4.12-10.79 2.434-2.486 7.516-3.442 7.18-.292zm-3.531-3.338l-1.571.36-.765-1.8h-.656v-.419h.479l-.69-1.625 1.64.214.675 1.411h.5v.419h-.3zm-2.434.629l-1.415.689-2.108-5.066 1.708.213zm4.14-4.492l-3.109-.7a37.238 37.238 0 0 0-4.165-.741 56.67 56.67 0 0 0-7.144-.516 49.137 49.137 0 0 0-6.953.45 36.826 36.826 0 0 0-4.165.736c-1.039.234-2.072.47-3.109.7-1.89.458-2.511.063-2.309-1.488a16.9 16.9 0 0 1 .617-2.215c.476-1.319.777-1.26 1.778-2.2a7.266 7.266 0 0 0 1.873-2.873 3.916 3.916 0 0 1 1.811-2.506 16.938 16.938 0 0 1 10.545-3.662h.006v-.012a16.913 16.913 0 0 1 10.495 3.661 3.909 3.909 0 0 1 1.816 2.505 7.237 7.237 0 0 0 1.874 2.874c1 .943 1.3.88 1.776 2.2a16.974 16.974 0 0 1 .695 2.571c.093 1.323-.564 1.649-2.336 1.216z" transform="translate(-45.02 -112.46)"/>
        </g>
    </g>
</svg>
