<svg xmlns="http://www.w3.org/2000/svg" width="366.667" height="300" viewBox="0 0 366.667 300">
    <defs>
        <style>
            .cls-1,.cls-3{fill:#02304a}.cls-1{opacity:.1}
        </style>
    </defs>
    <g id="success_icon" transform="translate(61.545 14)">
        <g id="Group_36699" transform="translate(-61.545 -14)">
            <g id="Group_36698" transform="translate(12.035 21.76)">
                <path id="Path_44577" d="M250.339 58.8c-42.19-16.124-91.136 7.747-121.485 49.228-8.944 12.243-16.5 26.706-19.832 43.057-4.039 19.8-1.624 41.113 4.042 60.223 8.545 28.818 24.817 54.079 46 67.9s47.226 15.529 68.668 2.37c11.934-7.324 22.743-19.1 35.85-21.05 20.063-2.989 37.036 17.476 55.193 29 12.429 7.888 26.1 11.734 39.627 15.463 15.336 4.231 31.567 8.339 46.4 1.751 12.288-5.46 22.261-17.916 28.873-32.485s10.141-31.171 12.446-47.818c1.445-10.448 2.436-21.157 1.263-31.649a91.5 91.5 0 0 0-9.409-30.593c-10.458-20.933-26.307-36.551-43.438-47.739S358.906 98.2 340.471 91.392c-33.139-12.261-55.95-26.348-90.049-32.661z" class="cls-1" transform="translate(-105.31 -53.724)"/>
                <circle id="Ellipse_595" cx="7.441" cy="7.441" r="7.441" class="cls-1" transform="translate(261.315 59.258)"/>
                <circle id="Ellipse_596" cx="7.441" cy="7.441" r="7.441" class="cls-1" transform="translate(21.539 21.073)"/>
                <circle id="Ellipse_597" cx="7.441" cy="7.441" r="7.441" class="cls-1" transform="translate(59.38 38.961)"/>
                <circle id="Ellipse_598" cx="7.441" cy="7.441" r="7.441" class="cls-1" transform="translate(235.552 26.873)"/>
                <circle id="Ellipse_599" cx="12.47" cy="12.47" r="12.47" class="cls-1" transform="translate(281.144 31.637)"/>
                <circle id="Ellipse_600" cx="12.47" cy="12.47" r="12.47" class="cls-1" transform="translate(293.099 93.216)"/>
                <circle id="Ellipse_601" cx="12.47" cy="12.47" r="12.47" class="cls-1" transform="translate(0 61.566)"/>
            </g>
            <g id="Group_36695" opacity="0.3" transform="translate(148.333 40)">
                <path id="Path_44570" d="M709.352 185.686c-.4-2.415.41-6.248 1.785-6.332a19.5 19.5 0 0 1 9.27 1.479c8.954 4.378 9.79 16.025 9.438 26.825a47.033 47.033 0 0 0-7.7-4.785c.307-5.531-.039-11.075-3.219-14.6-2.163-2.405-6.1-3.19-9.576-2.583" class="cls-3" transform="translate(-647.568 -153.336)"/>
                <path id="Path_44571" d="M708.171 183.368c3.009.368 2.909 7.536 2.909 11.362a44.61 44.61 0 0 1-.81 8.776 70.5 70.5 0 0 1 26.292 0 44.9 44.9 0 0 1-.807-8.776c0-3.826-.1-10.994 2.909-11.362 3.348-.407 12.263-.714 12.263-2.3 0-2.493-11.634-4.32-27.51-4.32s-27.509 1.828-27.509 4.32c0 1.582 8.918 1.889 12.263 2.3" class="cls-3" transform="translate(-677.303 -159.035)"/>
                <path id="Path_44572" d="M700.972 202.869c-.307-5.528.039-11.072 3.216-14.6 2.16-2.4 6.1-3.187 9.58-2.58.4-2.418-.41-6.251-1.786-6.332a19.535 19.535 0 0 0-9.27 1.476c-8.954 4.381-9.793 16.028-9.441 26.825a46.576 46.576 0 0 1 7.7-4.785" class="cls-3" transform="translate(-683.322 -153.336)"/>
                <path id="Path_44573" d="M693.867 183.544a3.9 3.9 0 0 1-.446-1.521c.106-6.038 15.773-10.758 35.1-10.758s35.808 4.8 35.914 10.839a3.956 3.956 0 0 1-.446 1.521l-3.8 9.838c0-5.008-12.115-7.317-31.223-7.317s-31.226 2.309-31.226 7.317z" class="cls-3" transform="translate(-682.846 -171.265)"/>
                <path id="Path_44575" d="M768.407 279.112c10.865-21.611 14.859-41.29 13.8-63.721-.781-16.544-20.578-29.944-45.943-29.944s-45.165 13.4-45.949 29.944c-1.062 22.431 2.932 42.11 13.8 63.721 3.342 6.651 16.331 23.942 15.847 32.469-.6 10.452-14.959 19.693-16.77 26.279a127.762 127.762 0 0 1 66.2.142c-1.65-6.6-16.218-15.9-16.819-26.422-.488-8.527 12.5-25.818 15.844-32.469" class="cls-3" transform="translate(-690.146 -139.656)"/>
            </g>
            <path id="Rectangle_6311" fill="none" d="M0 0H366.667V300H0z"/>
        </g>
    </g>
</svg>
