<svg xmlns="http://www.w3.org/2000/svg" width="220" height="180" viewBox="0 0 220 180">
    <defs>
        <style>
            .cls-1,.cls-3{fill:#02304a}.cls-1{opacity:.1}
        </style>
    </defs>
    <g id="success_icon" transform="translate(61.545 14)">
        <g id="Group_36699">
            <g id="Group_36698" transform="translate(-54.324 -.939)">
                <path id="Path_44577" d="M193.01 56.77c-25.31-9.67-54.682 4.648-72.891 29.537a66.718 66.718 0 0 0-11.9 25.834c-2.423 11.881-.974 24.668 2.425 36.134 5.127 17.291 14.89 32.447 27.6 40.743s28.336 9.317 41.2 1.422c7.16-4.394 13.646-11.458 21.51-12.63 12.038-1.794 22.222 10.485 33.116 17.4 7.457 4.733 15.66 7.041 23.776 9.278 9.2 2.539 18.94 5 27.842 1.051 7.373-3.276 13.357-10.75 17.324-19.491s6.085-18.7 7.468-28.691a76.95 76.95 0 0 0 .758-18.99 54.9 54.9 0 0 0-5.645-18.356 73.7 73.7 0 0 0-26.063-28.643c-10.279-6.712-21.382-10.96-32.443-15.043-19.883-7.356-33.57-15.809-54.029-19.6z" class="cls-1" transform="translate(-105.992 -53.73)"/>
                <circle id="Ellipse_595" cx="4.465" cy="4.465" r="4.465" class="cls-1" transform="translate(156.789 35.549)"/>
                <circle id="Ellipse_596" cx="4.465" cy="4.465" r="4.465" class="cls-1" transform="translate(12.923 12.638)"/>
                <circle id="Ellipse_597" cx="4.465" cy="4.465" r="4.465" class="cls-1" transform="translate(35.628 23.371)"/>
                <circle id="Ellipse_598" cx="4.465" cy="4.465" r="4.465" class="cls-1" transform="translate(141.331 16.118)"/>
                <circle id="Ellipse_599" cx="7.482" cy="7.482" r="7.482" class="cls-1" transform="translate(168.687 18.977)"/>
                <circle id="Ellipse_600" cx="7.482" cy="7.482" r="7.482" class="cls-1" transform="translate(175.859 55.924)"/>
                <circle id="Ellipse_601" cx="7.482" cy="7.482" r="7.482" class="cls-1" transform="translate(0 36.934)"/>
            </g>
            <g id="Group_36695" opacity="0.3" transform="translate(27.455 10)">
                <path id="Path_44570" d="M709.311 183.135c-.24-1.449.246-3.749 1.071-3.8a11.7 11.7 0 0 1 5.562.887c5.372 2.627 5.874 9.615 5.663 16.1a28.219 28.219 0 0 0-4.618-2.871c.184-3.319-.023-6.645-1.931-8.762a6.411 6.411 0 0 0-5.746-1.55" class="cls-3" transform="translate(-672.24 -163.725)"/>
                <path id="Path_44571" d="M703.266 180.722c1.805.221 1.745 4.522 1.745 6.817a26.762 26.762 0 0 1-.486 5.266 42.3 42.3 0 0 1 15.776 0 26.943 26.943 0 0 1-.484-5.266c0-2.3-.062-6.6 1.745-6.817 2.009-.244 7.358-.428 7.358-1.377 0-1.5-6.98-2.592-16.506-2.592s-16.506 1.1-16.506 2.592c0 .949 5.351 1.133 7.358 1.377" class="cls-3" transform="translate(-684.745 -166.122)"/>
                <path id="Path_44572" d="M697.866 193.445c-.184-3.317.023-6.643 1.93-8.762a6.418 6.418 0 0 1 5.748-1.548c.24-1.451-.246-3.751-1.071-3.8a11.721 11.721 0 0 0-5.562.885c-5.372 2.629-5.876 9.617-5.665 16.1a27.947 27.947 0 0 1 4.621-2.871" class="cls-3" transform="translate(-687.276 -163.725)"/>
                <path id="Path_44573" d="M693.689 178.633a2.339 2.339 0 0 1-.267-.912c.064-3.623 9.464-6.455 21.058-6.455s21.485 2.881 21.549 6.5a2.373 2.373 0 0 1-.267.912l-2.282 5.9c0-3-7.269-4.39-18.734-4.39s-18.736 1.385-18.736 4.39z" class="cls-3" transform="translate(-687.076 -171.265)"/>
                <path id="Path_44574" d="M706.371 189.489a3.748 3.748 0 1 0 4.113 3.729 3.931 3.931 0 0 0-4.113-3.729" class="cls-3" transform="translate(-678.788 -154.184)"/>
                <path id="Path_44575" d="M737.1 241.646c6.519-12.966 8.916-24.774 8.278-38.233-.469-9.927-12.346-17.966-27.566-17.966s-27.1 8.04-27.57 17.966c-.637 13.458 1.759 25.266 8.278 38.233 2.005 3.991 9.8 14.365 9.508 19.481-.358 6.271-8.976 11.816-10.062 15.768a76.658 76.658 0 0 1 39.718.085c-.99-3.96-9.731-9.539-10.091-15.853-.293-5.116 7.5-15.491 9.506-19.481m-19.373-38.92c-3.481 0-6.308-2.561-6.308-5.717s2.827-5.717 6.308-5.717 6.31 2.559 6.31 5.717-2.823 5.717-6.31 5.717" class="cls-3" transform="translate(-690.146 -157.972)"/>
            </g>
            <path id="Rectangle_6311" fill="none" d="M0 0H220V180H0z" transform="translate(-61.545 -14)"/>
        </g>
    </g>
</svg>
