<svg xmlns="http://www.w3.org/2000/svg" width="106.891" height="99.418" viewBox="0 0 106.891 99.418">
    <defs>
        <filter id="fwpmpu24da" width="106.891" height="99.418" x="0" y="0" filterUnits="userSpaceOnUse">
            <feOffset/>
            <feGaussianBlur result="blur" stdDeviation="5"/>
            <feFlood flood-color="#fff"/>
            <feComposite in2="blur" operator="in"/>
            <feComposite in="SourceGraphic"/>
        </filter>
    </defs>
    <g filter="url(#fwpmpu24da)">
        <path fill="#fff" d="M11.643 69.418A11.649 11.649 0 0 1 0 57.777v-3.74h1.926a9.591 9.591 0 0 0 9.491-8.437 6.013 6.013 0 0 0 0-2.335 9.606 9.606 0 0 0-9.5-8.45H0v-3.722a11.659 11.659 0 0 1 11.643-11.654h53.59a11.66 11.66 0 0 1 11.658 11.654v3.726h-1.913a9.591 9.591 0 0 0-9.5 8.45 5.8 5.8 0 0 0 0 2.335 9.578 9.578 0 0 0 9.5 8.434h1.912v3.74a11.65 11.65 0 0 1-11.657 11.64zm20.022-11.74a4.008 4.008 0 0 0 3.248 4.007c.226.03.435.042.661.056a3.877 3.877 0 0 0 3.836-3.22 3.415 3.415 0 0 0 .059-.633v-6.733a2.9 2.9 0 0 1 2.924-2.881h.853a4.039 4.039 0 0 0 3.966-3.2 3.766 3.766 0 0 0-.644-2.856 3.9 3.9 0 0 0-2.548-1.578 4.738 4.738 0 0 0-.661-.056h-.966a2.884 2.884 0 0 1-.172-5.765h7a3.863 3.863 0 0 0 3.879-3.854 3.24 3.24 0 0 0-.054-.633 4.055 4.055 0 0 0-3.969-3.2h-9.608a7.74 7.74 0 0 0-7.8 7.689v4.051a1.725 1.725 0 0 0 1.743 1.715h.127a4.055 4.055 0 0 1 2.319.73 4.013 4.013 0 0 1 1.477 1.914 3.8 3.8 0 0 1-.226 2.922 3.908 3.908 0 0 1-2.277 1.941 3.97 3.97 0 0 1-1.212.2h-1.955zM18.31 44.364a3.9 3.9 0 0 0 3.836 3.979h4.09a3.909 3.909 0 0 0 .141-7.816h-4.11a.567.567 0 0 0-.071 0 3.894 3.894 0 0 0-3.886 3.837zm36.427-3.724a3.825 3.825 0 1 0 .023 0zM65.233 16.6H18.756L62.242.36a6.368 6.368 0 0 1 8.087 3.84l5.954 17.616a14.351 14.351 0 0 0-11.05-5.216z" transform="translate(15 15)"/>
    </g>
</svg>
