<svg id="Group_43181" data-name="Group 43181" xmlns="http://www.w3.org/2000/svg" xmlns:xlink="http://www.w3.org/1999/xlink" width="83" height="83" viewBox="0 0 83 83">
  <defs>
    <style>
      .cls-1, .cls-3 {
        fill: #19142f;
      }

      .cls-1 {
        stroke: #707070;
      }

      .cls-2 {
        clip-path: url(#clip-path);
      }
    </style>
    <clipPath id="clip-path">
      <rect id="Rectangle_8882" data-name="Rectangle 8882" class="cls-1" width="83" height="83"/>
    </clipPath>
  </defs>
  <g id="Mask_Group_662" data-name="Mask Group 662" class="cls-2">
    <path id="Union_73" data-name="Union 73" class="cls-3" d="M8.272,49.321A8.278,8.278,0,0,1,0,41.063V38.383H1.353A6.8,6.8,0,0,0,8.1,32.392a3.945,3.945,0,0,0,0-1.648,6.833,6.833,0,0,0-6.744-6.021H0V22.089A8.3,8.3,0,0,1,8.272,13.8h38.1a8.322,8.322,0,0,1,8.274,8.288v2.634H53.289a6.86,6.86,0,0,0-6.772,6.021,5.176,5.176,0,0,0,0,1.648,6.822,6.822,0,0,0,6.772,5.991h1.355v2.679a8.3,8.3,0,0,1-8.274,8.258Zm13.809-7.067a3.768,3.768,0,0,0,.792,2.709,3.569,3.569,0,0,0,2.505,1.192l13.629,1.178c.088,0,.178.016.292.016,2.005,0,3.27-1.281,3.478-3.4l.852-9.642c.088-1.3.2-2.59.324-3.886a3.31,3.31,0,0,0-3-3.739c-.176-.03-.384-.045-.56-.06l-3.71-.324c-1.385-.118-2.8-.235-4.182-.354l-.03-.19c-.058-.177-.114-.279-.144-.383-.912-2.65-1.887-5.285-2.888-7.92a3.283,3.283,0,0,0-3.122-2.3A3.919,3.919,0,0,0,25,15.39q-6.447,2.341-12.895,4.7a3.343,3.343,0,0,0-2.091,4.533c1.561,4.3,3.122,8.568,4.683,12.852a3.27,3.27,0,0,0,3.122,2.369,4.05,4.05,0,0,0,1.381-.235c.616-.236,1.207-.456,1.855-.678.44-.178.912-.338,1.383-.53C22.316,39.693,22.2,40.975,22.082,42.254ZM39.1,45.3q-6.405-.6-12.807-1.118c-.236-.046-.5-.046-.736-.076a1.355,1.355,0,0,1-1.413-1.663c.176-2.149.414-4.283.558-6.433.208-2.3.442-4.591.622-6.889.116-1.31.586-1.722,1.881-1.59,4.268.384,8.567.751,12.867,1.119.176.016.412.03.588.046a1.34,1.34,0,0,1,1.267,1.545c-.15,1.722-.326,3.458-.472,5.182-.238,2.8-.5,5.564-.736,8.346-.088,1.075-.5,1.531-1.443,1.531ZM27.851,38.06a1.056,1.056,0,0,0-.382.118l-.176.073c-.058.031-.15.1-.208.133-.03.015-.058.044-.088.059-.118.074-.206.177-.322.264a2.168,2.168,0,0,0-.236.339,2.2,2.2,0,0,0-.412,1.31v.015a1.443,1.443,0,0,0,.058.353,1.62,1.62,0,0,0,.088.324c.03.1.088.221.118.309a2.1,2.1,0,0,0,.676.8l.176.118a1.748,1.748,0,0,0,.62.28,1.313,1.313,0,0,0,.236.059,3.482,3.482,0,0,0,.408.015h0a2.3,2.3,0,0,0,1.829-.944c.058-.044.058-.117.116-.19h0a.948.948,0,0,0,.148-.265,2.36,2.36,0,0,0,.12-.4v-.074a2.546,2.546,0,0,0,.058-.442V40.3A2.307,2.307,0,0,0,28.349,38h-.056A2.293,2.293,0,0,0,27.851,38.06Zm2.858-1.693a3.245,3.245,0,0,0,.146.943,2.505,2.505,0,0,0,.53.721,2.217,2.217,0,0,0,1.589.691H33a2.232,2.232,0,0,0,.414-.044,1.3,1.3,0,0,0,.176-.044.518.518,0,0,0,.206-.044c.088-.044.178-.074.236-.1.088-.044.148-.089.232-.133l.18-.133c.088-.044.116-.117.2-.176a1.733,1.733,0,0,0,.176-.177v-.029a.9.9,0,0,1,.15-.192c.058-.088.088-.162.146-.251a.687.687,0,0,1,.056-.19c.03-.119.088-.222.12-.34a2.371,2.371,0,0,0,.06-.472,2.686,2.686,0,0,0-.06-.485c-.06-.132-.09-.28-.148-.412a1.571,1.571,0,0,0-.2-.4A2.383,2.383,0,0,0,33.5,34.13a1.511,1.511,0,0,0-.442-.044A2.3,2.3,0,0,0,30.709,36.366Zm6.063-6.02a.762.762,0,0,0-.208.1.933.933,0,0,0-.146.089l-.03.015a2.3,2.3,0,0,0-.969,1.384v.147a1.588,1.588,0,0,0-.06.369v.058a2.234,2.234,0,0,0,.06.456,1.137,1.137,0,0,0,.144.426,2.726,2.726,0,0,0,.206.4,3.647,3.647,0,0,0,.3.338,2.307,2.307,0,0,0,1.619.678,2.422,2.422,0,0,0,.88-.178,2.15,2.15,0,0,0,.736-.5,2.282,2.282,0,0,0,.68-1.6v-.059a2.1,2.1,0,0,0-.148-.868.189.189,0,0,1-.06-.1c-.058-.1-.116-.221-.176-.309a2.078,2.078,0,0,0-.3-.353,1.7,1.7,0,0,0-.5-.383,2.335,2.335,0,0,0-.266-.118.52.52,0,0,0-.264-.089.349.349,0,0,0-.206-.044,1.519,1.519,0,0,0-.382-.044h-.058A2.114,2.114,0,0,0,36.772,30.346Zm-17.309,4.99a2.37,2.37,0,0,1-2.3-2.444,2.361,2.361,0,0,1,4.709-.044,3.587,3.587,0,0,1-.058.559,2.15,2.15,0,0,1-.118.428,1.75,1.75,0,0,1-.234.4.647.647,0,0,1-.176.28l-.118.118c0,.03,0,.03-.032.03a1.688,1.688,0,0,1-.264.221,2.262,2.262,0,0,1-.352.207c-.062.03-.15.059-.208.088a1.985,1.985,0,0,1-.322.1c-.06.015-.06.015-.06,0,0,.015-.058.03-.058.015a1.243,1.243,0,0,1-.294.045Zm-2.888-8.082a2.316,2.316,0,0,1-2.3-2.325v-.383c.03-.117.058-.206.088-.294a.466.466,0,0,1,.09-.264,2.071,2.071,0,0,1,.47-.693c0-.015,0-.029.03-.044a1.7,1.7,0,0,0,.236-.205.457.457,0,0,1,.118-.059,1.311,1.311,0,0,1,.35-.191,2.176,2.176,0,0,1,.884-.192h.03a2.248,2.248,0,0,1,1.619.662,2.454,2.454,0,0,1,.5.722,2.349,2.349,0,0,1,.206.9v.03a.953.953,0,0,1-.062.412.8.8,0,0,1-.058.265,1.364,1.364,0,0,1-.116.295,1.106,1.106,0,0,1-.176.324,3.5,3.5,0,0,1-.236.309c0,.031-.03.045-.06.06a1.671,1.671,0,0,1-.292.251s-.03,0-.03.015a1.455,1.455,0,0,1-.414.221,1.7,1.7,0,0,1-.412.132,1.515,1.515,0,0,1-.44.059Zm8.036-2.974a2.328,2.328,0,0,1-2.3-2.34,2.374,2.374,0,0,1,2.325-2.3A2.317,2.317,0,0,1,26.966,22v.015a2.291,2.291,0,0,1-2.3,2.266Zm21.758-12.5H13.307L44.22.257a4.524,4.524,0,0,1,5.741,2.723L54.2,15.508A10.24,10.24,0,0,0,46.369,11.784Z" transform="translate(14.178 16.911)"/>
  </g>
</svg>
