<svg xmlns="http://www.w3.org/2000/svg" width="80" height="80" viewBox="0 0 80 80">
    <defs>
        <filter id="4d1fbdbeha" width="43.438" height="39.8" x="18.192" y="20.311" filterUnits="userSpaceOnUse">
            <feOffset/>
            <feGaussianBlur result="blur" stdDeviation="1"/>
            <feFlood flood-opacity=".6"/>
            <feComposite in2="blur" operator="in"/>
            <feComposite in="SourceGraphic"/>
        </filter>
    </defs>
    <g transform="translate(-32)">
        <rect width="80" height="80" fill="#0093be" rx="11" transform="translate(32)"/>
        <g filter="url(#4d1fbdbeha)" transform="translate(32)">
            <path fill="#fff" d="M5.668 33.8A5.672 5.672 0 0 1 0 28.132v-1.821h.937A4.671 4.671 0 0 0 5.559 22.2a2.913 2.913 0 0 0 0-1.136 4.677 4.677 0 0 0-4.627-4.111H0v-1.814a5.676 5.676 0 0 1 5.668-5.674h26.093a5.677 5.677 0 0 1 5.677 5.674v1.814h-.932a4.668 4.668 0 0 0-4.624 4.114 2.832 2.832 0 0 0 0 1.136 4.663 4.663 0 0 0 4.624 4.107h.932v1.821a5.673 5.673 0 0 1-5.677 5.669zm9.748-5.717A1.951 1.951 0 0 0 17 30.034c.112.015.211.021.322.028a1.889 1.889 0 0 0 1.869-1.568 1.616 1.616 0 0 0 .029-.308v-3.279a1.411 1.411 0 0 1 1.424-1.4h.415a1.965 1.965 0 0 0 1.93-1.561 1.826 1.826 0 0 0-.311-1.391 1.9 1.9 0 0 0-1.242-.766 2.4 2.4 0 0 0-.322-.027h-.469a1.4 1.4 0 0 1-.086-2.807h3.409a1.9 1.9 0 0 0 1.342-.555 1.876 1.876 0 0 0 .548-1.321 1.528 1.528 0 0 0-.026-.308 1.973 1.973 0 0 0-1.932-1.562h-4.682a3.772 3.772 0 0 0-3.8 3.744v1.971a.841.841 0 0 0 .849.835h.061a1.97 1.97 0 0 1 1.849 1.288 1.847 1.847 0 0 1-.11 1.423 1.9 1.9 0 0 1-1.108.945 1.973 1.973 0 0 1-.592.1h-.95zM8.915 21.6a1.9 1.9 0 0 0 1.867 1.937h1.992a1.9 1.9 0 0 0 .07-3.805h-2.036A1.9 1.9 0 0 0 8.915 21.6zm17.735-1.813a1.862 1.862 0 1 0 .013 0zm5.111-11.706H9.132L30.307.175a3.1 3.1 0 0 1 3.935 1.868l2.9 8.578a6.985 6.985 0 0 0-5.381-2.54z" transform="translate(21.19 23.31)"/>
        </g>
        <g fill="none" stroke="#fff" stroke-width="2px" transform="translate(37.828 5.828)">
            <rect width="68.874" height="68.874" stroke="none" rx="14"/>
            <rect width="66.874" height="66.874" x="1" y="1" rx="13"/>
        </g>
    </g>
</svg>
