<svg xmlns="http://www.w3.org/2000/svg" width="50" height="50" viewBox="0 0 50 50">
    <g>
        <g>
            <g>
                <g>
                    <g fill="none" stroke="rgba(31,188,161,0)" transform="translate(-35 -494) translate(-259 -402) translate(294 896)">
                        <rect width="50" height="50" stroke="none" rx="4"/>
                        <rect width="49" height="49" x=".5" y=".5" rx="3.5"/>
                    </g>
                    <path fill="#fff" d="M14555.032 5821a5.034 5.034 0 0 1-5.031-5.03v-1.616h.832a4.145 4.145 0 0 0 4.1-3.646 2.579 2.579 0 0 0 0-1.009 4.151 4.151 0 0 0-4.105-3.651h-.828v-1.61a5.038 5.038 0 0 1 5.031-5.036h23.16a5.038 5.038 0 0 1 5.037 5.036v1.61h-.826a4.145 4.145 0 0 0-4.105 3.651 2.507 2.507 0 0 0 0 1.009 4.141 4.141 0 0 0 4.105 3.646h.826v1.616a5.034 5.034 0 0 1-5.037 5.03zm8.652-5.073a1.733 1.733 0 0 0 1.4 1.731c.1.013.188.019.285.024a1.675 1.675 0 0 0 1.658-1.392 1.432 1.432 0 0 0 .025-.273v-2.91a1.254 1.254 0 0 1 1.264-1.245h.369a1.743 1.743 0 0 0 1.713-1.385 1.625 1.625 0 0 0-.277-1.234 1.689 1.689 0 0 0-1.1-.68 2.052 2.052 0 0 0-.285-.024h-.418a1.246 1.246 0 1 1-.074-2.491h3.025a1.67 1.67 0 0 0 1.678-1.665 1.358 1.358 0 0 0-.023-.273 1.752 1.752 0 0 0-1.715-1.385h-4.154a3.346 3.346 0 0 0-3.373 3.323v1.75a.747.747 0 0 0 .754.741h.055a1.75 1.75 0 0 1 1 .315 1.731 1.731 0 0 1 .639.827 1.644 1.644 0 0 1-.1 1.263 1.687 1.687 0 0 1-.984.839 1.717 1.717 0 0 1-.523.085h-.844zm-5.771-5.754a1.685 1.685 0 0 0 1.658 1.72h1.768a1.689 1.689 0 0 0 .061-3.378h-1.807a1.684 1.684 0 0 0-1.68 1.657zm15.742-1.609a1.653 1.653 0 1 0 .01 0zm4.537-10.39h-20.086l18.793-7.018a2.752 2.752 0 0 1 3.494 1.658l2.574 7.613a6.2 6.2 0 0 0-4.775-2.254z" transform="translate(-35 -494) translate(-259 -402) translate(294 896) translate(-14542 -5781)"/>
                </g>
            </g>
        </g>
    </g>
</svg>
