<svg xmlns="http://www.w3.org/2000/svg" xmlns:xlink="http://www.w3.org/1999/xlink" width="50" height="50" viewBox="0 0 50 50">
  <defs>
    <style>
      .cls-1, .cls-3 {
        fill: #fff;
      }

      .cls-1 {
        stroke: #707070;
      }

      .cls-2 {
        clip-path: url(#clip-path);
      }
    </style>
    <clipPath id="clip-path">
      <rect id="Rectangle_9011" data-name="Rectangle 9011" class="cls-1" width="50" height="50" transform="translate(397.975 2427.975)"/>
    </clipPath>
  </defs>
  <g id="Mask_Group_763" data-name="Mask Group 763" class="cls-2" transform="translate(-397.975 -2427.975)">
    <path id="Union_120" data-name="Union 120" class="cls-3" d="M5.041,30.058A5.045,5.045,0,0,1,0,25.025V23.392H.824a4.14,4.14,0,0,0,4.109-3.651,2.366,2.366,0,0,0,0-1A4.163,4.163,0,0,0,.824,15.067H0V13.461A5.059,5.059,0,0,1,5.041,8.411H28.258A5.071,5.071,0,0,1,33.3,13.461v1.606h-.825a4.181,4.181,0,0,0-4.127,3.669,3.139,3.139,0,0,0,0,1,4.158,4.158,0,0,0,4.127,3.651H33.3v1.633a5.056,5.056,0,0,1-5.042,5.033Zm8.416-4.307A2.3,2.3,0,0,0,13.94,27.4a2.173,2.173,0,0,0,1.526.726l8.307.718c.053,0,.108.009.178.009a2.049,2.049,0,0,0,2.118-2.072l.521-5.876c.053-.79.123-1.579.2-2.368a2.017,2.017,0,0,0-1.829-2.279c-.108-.018-.234-.027-.341-.036l-2.261-.2c-.843-.072-1.7-.143-2.549-.216l-.018-.116c-.036-.108-.069-.17-.087-.233-.556-1.615-1.15-3.221-1.76-4.827a2,2,0,0,0-1.9-1.4,2.387,2.387,0,0,0-.806.144q-3.93,1.427-7.859,2.862A2.039,2.039,0,0,0,6.1,15c.951,2.62,1.9,5.222,2.854,7.833a1.993,1.993,0,0,0,1.9,1.444,2.468,2.468,0,0,0,.842-.143c.376-.144.736-.278,1.131-.413.268-.108.556-.206.842-.323C13.6,24.191,13.529,24.971,13.457,25.752Zm10.369,1.857q-3.9-.363-7.8-.681c-.142-.028-.306-.028-.448-.046a.825.825,0,0,1-.86-1.013c.107-1.31.252-2.61.339-3.92.127-1.4.271-2.8.38-4.2.071-.8.357-1.049,1.146-.969,2.6.234,5.221.458,7.842.682.107.009.25.018.357.028a.817.817,0,0,1,.773.941c-.091,1.05-.2,2.108-.288,3.158-.145,1.7-.3,3.391-.449,5.086-.054.655-.3.933-.879.933ZM16.972,23.2a.642.642,0,0,0-.232.072l-.107.044c-.036.019-.091.063-.127.081-.018.009-.036.027-.054.036-.072.045-.126.108-.2.161a1.312,1.312,0,0,0-.144.207,1.342,1.342,0,0,0-.252.8V24.6a.9.9,0,0,0,.036.216.933.933,0,0,0,.054.2c.018.063.053.134.071.188a1.289,1.289,0,0,0,.413.485l.108.072a1.056,1.056,0,0,0,.377.171.812.812,0,0,0,.144.036,2.169,2.169,0,0,0,.249.009h0a1.4,1.4,0,0,0,1.114-.575c.036-.027.036-.071.071-.116h0a.589.589,0,0,0,.09-.161,1.358,1.358,0,0,0,.073-.243v-.045a1.467,1.467,0,0,0,.036-.269v-.009a1.406,1.406,0,0,0-1.42-1.4h-.033A1.413,1.413,0,0,0,16.972,23.2Zm1.742-1.032a1.967,1.967,0,0,0,.09.574,1.5,1.5,0,0,0,.323.44,1.347,1.347,0,0,0,.967.421h.018a1.349,1.349,0,0,0,.253-.027.783.783,0,0,0,.107-.026.322.322,0,0,0,.126-.027c.054-.027.109-.045.144-.063.054-.027.09-.054.142-.081l.109-.081c.053-.026.071-.071.125-.107a1.265,1.265,0,0,0,.108-.108V23.06a.516.516,0,0,1,.091-.116c.035-.054.053-.1.089-.153a.4.4,0,0,1,.035-.116c.018-.072.054-.135.073-.207a1.474,1.474,0,0,0,.036-.288,1.667,1.667,0,0,0-.036-.3c-.037-.08-.055-.17-.091-.251a1.015,1.015,0,0,0-.123-.242,1.459,1.459,0,0,0-.881-.592.923.923,0,0,0-.27-.027A1.4,1.4,0,0,0,18.714,22.163Zm3.7-3.669a.46.46,0,0,0-.127.063.5.5,0,0,0-.089.054l-.018.009a1.394,1.394,0,0,0-.591.843v.09a.982.982,0,0,0-.037.225v.035a1.374,1.374,0,0,0,.037.278.682.682,0,0,0,.087.26,1.565,1.565,0,0,0,.126.243,2.389,2.389,0,0,0,.18.206,1.405,1.405,0,0,0,.987.413A1.472,1.472,0,0,0,23.5,21.1a1.322,1.322,0,0,0,.449-.3,1.394,1.394,0,0,0,.415-.978v-.036a1.264,1.264,0,0,0-.091-.529.116.116,0,0,1-.036-.063c-.036-.062-.072-.135-.108-.188a1.232,1.232,0,0,0-.18-.215,1.038,1.038,0,0,0-.3-.234,1.533,1.533,0,0,0-.163-.072.311.311,0,0,0-.16-.054A.215.215,0,0,0,23.2,18.4a.924.924,0,0,0-.232-.027H22.93A1.287,1.287,0,0,0,22.41,18.494ZM11.86,21.535a1.445,1.445,0,0,1-1.4-1.489,1.439,1.439,0,0,1,2.87-.027,2.084,2.084,0,0,1-.036.341,1.256,1.256,0,0,1-.072.261,1.038,1.038,0,0,1-.142.242.391.391,0,0,1-.108.17L12.9,21.1c0,.018,0,.018-.021.018a.954.954,0,0,1-.16.134,1.382,1.382,0,0,1-.214.126c-.037.018-.091.036-.127.054a1.2,1.2,0,0,1-.2.062c-.036.009-.036.009-.036,0,0,.009-.036.018-.036.009a.746.746,0,0,1-.178.027ZM10.1,16.61a1.411,1.411,0,0,1-1.4-1.417v-.234c.018-.071.036-.125.054-.179a.279.279,0,0,1,.055-.161A1.237,1.237,0,0,1,9.1,14.2c0-.009,0-.018.018-.027a1.169,1.169,0,0,0,.144-.125.263.263,0,0,1,.072-.036.813.813,0,0,1,.213-.116,1.331,1.331,0,0,1,.539-.117H10.1a1.371,1.371,0,0,1,.987.4,1.47,1.47,0,0,1,.306.44,1.412,1.412,0,0,1,.126.547v.018a.589.589,0,0,1-.037.251.468.468,0,0,1-.036.161.8.8,0,0,1-.071.18.653.653,0,0,1-.107.2,2.257,2.257,0,0,1-.145.188c0,.019-.018.027-.036.036a1,1,0,0,1-.178.153s-.018,0-.018.009a.9.9,0,0,1-.252.135,1.039,1.039,0,0,1-.253.08.908.908,0,0,1-.268.036ZM15,14.8a1.419,1.419,0,0,1-1.4-1.427,1.447,1.447,0,0,1,1.417-1.4,1.412,1.412,0,0,1,1.417,1.435v.009a1.4,1.4,0,0,1-1.4,1.381ZM28.258,7.181H8.109L26.948.157a2.756,2.756,0,0,1,3.5,1.66l2.584,7.634A6.24,6.24,0,0,0,28.258,7.181Z" transform="translate(406.324 2437.99)"/>
  </g>
</svg>
