<svg xmlns="http://www.w3.org/2000/svg" width="40" height="40" viewBox="0 0 40 40">
    <defs>
        <linearGradient id="66bblfucaa" x1=".5" x2=".5" y2="1" gradientUnits="objectBoundingBox">
            <stop offset="0" stop-color="#867dc6"/>
            <stop offset="1" stop-color="#33305c"/>
        </linearGradient>
    </defs>
    <g>
        <g fill="url(#66bblfucaa)" stroke="#7d77af">
            <circle cx="20" cy="20" r="20" stroke="none"/>
            <circle cx="20" cy="20" r="19.5" fill="none"/>
        </g>
        <path fill="#fffefe" d="M6.129 21.527l-.029-.033a11.96 11.96 0 0 1-3.132-5.637A13.011 13.011 0 0 1 2.6 13.1l-1 1.057a.975.975 0 0 1-.681.263.962.962 0 0 1-.649-.274l-.015-.021A.949.949 0 0 1 .3 12.784L2.91 9.99a1.013 1.013 0 0 1 .415-.419.952.952 0 0 1 1.281.414l2.6 2.778a.942.942 0 0 1 .24.655.956.956 0 0 1-.964.944.873.873 0 0 1-.665-.29l-1.333-1.427a11.181 11.181 0 0 0 .327 2.745 10.1 10.1 0 0 0 2.636 4.752l.023.027a9.935 9.935 0 0 0 7.664 2.88 10.845 10.845 0 0 0 6.9-2.971.945.945 0 0 1 1.342-.005.96.96 0 0 1 0 1.34 12.8 12.8 0 0 1-8.148 3.535c-.257.017-.512.025-.767.025a11.8 11.8 0 0 1-8.332-3.446zm5.841-3.46a1.559 1.559 0 0 1 .032-2.2l2.678-2.675 2.674 2.675a1.559 1.559 0 0 1-2.2 2.2l-.469-.472-.48.472-.027.032a1.555 1.555 0 0 1-2.2-.032zm5.91-2.73l-2.68-2.676 2.68-2.676a1.558 1.558 0 0 1 2.2 2.2l-.471.472.471.472.012.011a1.558 1.558 0 1 1-2.214 2.193zm-8.567 0a1.56 1.56 0 0 1-.042-2.2l.474-.472-.474-.472a1.559 1.559 0 0 1 2.2-2.2l2.676 2.676-2.676 2.676a1.548 1.548 0 0 1-1.079.434 1.57 1.57 0 0 1-1.078-.442zm15.945.1a.917.917 0 0 1-.482-.44l-2.6-2.783V12.2a.947.947 0 0 1 .054-1.347.976.976 0 0 1 1.342.049l1.328 1.426a11.538 11.538 0 0 0-.327-2.74 10.132 10.132 0 0 0-2.637-4.763l-.024-.025a9.958 9.958 0 0 0-7.669-2.886 10.859 10.859 0 0 0-6.9 2.976l-.01.016a.944.944 0 1 1-1.321-1.347 12.793 12.793 0 0 1 8.14-3.534 11.8 11.8 0 0 1 9.1 3.421l.028.033a11.989 11.989 0 0 1 3.131 5.637 12.765 12.765 0 0 1 .374 2.757l.928-.987a.947.947 0 0 1 1.3-.059.965.965 0 0 1 .092 1.341l-2.638 2.815a.946.946 0 0 1-1.208.45zM12 9.459a1.559 1.559 0 0 1 2.2-2.2l.474.472.469-.472a1.559 1.559 0 0 1 2.2 2.2l-2.663 2.676z" transform="translate(5 8)"/>
    </g>
</svg>
