<svg xmlns="http://www.w3.org/2000/svg" width="50" height="50" viewBox="0 0 50 50">
    <g>
        <g>
            <g>
                <g fill="none" stroke="rgba(31,188,161,0)" transform="translate(-60 -896) translate(60 896)">
                    <rect width="50" height="50" stroke="none" rx="4"/>
                    <rect width="49" height="49" x=".5" y=".5" rx="3.5"/>
                </g>
                <path fill="#fff" d="M14557.362 5816.86l-.037-.039a14.37 14.37 0 0 1-3.764-6.771 15.654 15.654 0 0 1-.443-3.312l-1.193 1.269a1.174 1.174 0 0 1-.818.316 1.154 1.154 0 0 1-.779-.329l-.02-.025a1.141 1.141 0 0 1 .051-1.611l3.137-3.356a1.217 1.217 0 0 1 .5-.5 1.143 1.143 0 0 1 1.539.5l3.125 3.337a1.155 1.155 0 0 1-.869 1.92 1.045 1.045 0 0 1-.8-.348l-1.6-1.714a13.444 13.444 0 0 0 .393 3.3 12.126 12.126 0 0 0 3.168 5.709l.027.032a11.936 11.936 0 0 0 9.207 3.46 13.03 13.03 0 0 0 8.291-3.569 1.134 1.134 0 0 1 1.611-.007 1.152 1.152 0 0 1 0 1.61 15.365 15.365 0 0 1-9.787 4.246c-.309.021-.615.03-.922.03a14.175 14.175 0 0 1-10.017-4.148zm7.018-4.156a1.873 1.873 0 0 1 .037-2.648l3.217-3.214 3.213 3.214a1.873 1.873 0 0 1-2.648 2.648l-.564-.567-.576.567-.031.038a1.869 1.869 0 0 1-2.646-.038zm7.1-3.279l-3.215-3.215 3.215-3.215a1.872 1.872 0 0 1 2.646 2.647l-.566.567.566.566.014.014a1.872 1.872 0 1 1-2.66 2.635zm-10.291 0a1.875 1.875 0 0 1-.051-2.648l.568-.566-.568-.567a1.873 1.873 0 0 1 2.648-2.647l3.215 3.215-3.215 3.215a1.86 1.86 0 0 1-1.3.521 1.883 1.883 0 0 1-1.298-.524zm19.154.115a1.1 1.1 0 0 1-.578-.528l-3.125-3.343v-.007a1.137 1.137 0 0 1 .064-1.618 1.172 1.172 0 0 1 1.611.059l1.6 1.707a13.834 13.834 0 0 0-.393-3.291 12.166 12.166 0 0 0-3.168-5.722l-.027-.025a11.964 11.964 0 0 0-9.213-3.467 13.046 13.046 0 0 0-8.293 3.575l-.012.02a1.134 1.134 0 1 1-1.584-1.624 15.372 15.372 0 0 1 9.779-4.245 14.174 14.174 0 0 1 10.934 4.11l.033.039a14.4 14.4 0 0 1 3.762 6.771 15.274 15.274 0 0 1 .449 3.312l1.115-1.186a1.137 1.137 0 0 1 1.559-.07 1.158 1.158 0 0 1 .111 1.61l-3.17 3.382a1.136 1.136 0 0 1-1.016.628 1.133 1.133 0 0 1-.438-.087zm-15.926-7.177a1.873 1.873 0 0 1 2.648-2.648l.568.567.564-.567a1.873 1.873 0 0 1 2.648 2.648l-3.213 3.215z" transform="translate(-60 -896) translate(60 896) translate(-14543 -5781)"/>
            </g>
        </g>
    </g>
</svg>
