<svg xmlns="http://www.w3.org/2000/svg" xmlns:xlink="http://www.w3.org/1999/xlink" width="83" height="83" viewBox="0 0 83 83">
  <defs>
    <style>
      .cls-1, .cls-3 {
        fill: #19142f;
      }

      .cls-1 {
        stroke: #707070;
      }

      .cls-2 {
        clip-path: url(#clip-path);
      }
    </style>
    <clipPath id="clip-path">
      <rect id="Rectangle_9041" data-name="Rectangle 9041" class="cls-1" width="83" height="83" transform="translate(398.645 2428.646)"/>
    </clipPath>
  </defs>
  <g id="Mask_Group_781" data-name="Mask Group 781" class="cls-2" transform="translate(-398.645 -2428.646)">
    <g id="Mask_Group_237" data-name="Mask Group 237" transform="translate(412.355 2445.066)">
      <g id="Group_43348" data-name="Group 43348" transform="translate(0)">
        <path id="Union_111-2" data-name="Union 111-2" class="cls-3" d="M104.928,216.5a8.419,8.419,0,0,1-8.414-8.4v-2.725H97.89a6.912,6.912,0,0,0,6.859-6.1,3.968,3.968,0,0,0,0-1.677,6.948,6.948,0,0,0-6.859-6.124H96.514v-2.68a8.444,8.444,0,0,1,8.414-8.43H143.68a8.467,8.467,0,0,1,8.417,8.43v2.68h-1.378a6.979,6.979,0,0,0-6.888,6.124,5.224,5.224,0,0,0,0,1.677,6.948,6.948,0,0,0,6.888,6.1H152.1V208.1a8.439,8.439,0,0,1-8.417,8.4Zm38.752-38.181H110.053L141.5,166.591a4.6,4.6,0,0,1,5.836,2.772l4.308,12.741a10.419,10.419,0,0,0-7.961-3.791ZM133.194,194.7a.371.371,0,0,0-.278.14l-12.474,15.252s-.124.161-.076.261a.173.173,0,0,0,.135.085h7.411s.175,0,.2-.083c0,0,.058-.1-.108-.211a4.177,4.177,0,0,1-1.919-4.165,1.068,1.068,0,0,1,.536-.766,1.055,1.055,0,0,1,.975.071c1.816.952,4.989,1.52,7.055-.809,2.389-2.686,2.437-5.753-1.034-9.552A.594.594,0,0,0,133.194,194.7Zm-10.405,9.677a7.773,7.773,0,0,0,1.007-.917h.006l7.8-9.538a.856.856,0,0,0,.246-.538.841.841,0,0,0-.3-.563c-4.945-4.554-6.053-6.395-6.606-7.586,0,0-.174-.453-.425-.453s-.377.456-.377.456c-.545,1.194-1.9,3.281-6.814,7.862-4.754,4.426-5.158,8.1-2.471,11.087C117.335,206.948,121.358,205.585,122.789,204.377Z" transform="translate(-96.514 -166.334)"/>
      </g>
    </g>
  </g>
</svg>
