<svg xmlns="http://www.w3.org/2000/svg" xmlns:xlink="http://www.w3.org/1999/xlink" width="50" height="50" viewBox="0 0 50 50">
  <defs>
    <style>
      .cls-1, .cls-3 {
        fill: #fff;
      }

      .cls-1 {
        stroke: #707070;
      }

      .cls-2 {
        clip-path: url(#clip-path);
      }
    </style>
    <clipPath id="clip-path">
      <rect id="Rectangle_9009" data-name="Rectangle 9009" class="cls-1" width="50" height="50" transform="translate(398.646 2428.646)"/>
    </clipPath>
  </defs>
  <g id="Mask_Group_761" data-name="Mask Group 761" class="cls-2" transform="translate(-398.646 -2428.646)">
    <g id="Mask_Group_237" data-name="Mask Group 237" transform="translate(406.904 2438.538)">
      <g id="Group_43297" data-name="Group 43297" transform="translate(0)">
        <path id="Union_111-2" data-name="Union 111-2" class="cls-3" d="M101.583,196.552a5.072,5.072,0,0,1-5.069-5.059v-1.642h.829a4.164,4.164,0,0,0,4.132-3.672,2.39,2.39,0,0,0,0-1.01,4.185,4.185,0,0,0-4.132-3.689h-.829v-1.615a5.087,5.087,0,0,1,5.069-5.079h23.345a5.1,5.1,0,0,1,5.07,5.079v1.615h-.83a4.2,4.2,0,0,0-4.149,3.689,3.147,3.147,0,0,0,0,1.01,4.185,4.185,0,0,0,4.149,3.672H130v1.642a5.084,5.084,0,0,1-5.07,5.059Zm23.345-23H104.67l18.942-7.062a2.771,2.771,0,0,1,3.516,1.67l2.595,7.675a6.277,6.277,0,0,0-4.8-2.284Zm-6.317,9.871a.223.223,0,0,0-.167.085l-7.515,9.188s-.075.1-.046.157a.1.1,0,0,0,.081.051h4.464s.105,0,.119-.05c0,0,.035-.062-.065-.127a2.516,2.516,0,0,1-1.156-2.509.643.643,0,0,1,.323-.461.635.635,0,0,1,.588.043,3.488,3.488,0,0,0,4.25-.487c1.439-1.618,1.468-3.466-.623-5.754A.358.358,0,0,0,118.611,183.422Zm-6.268,5.829a4.682,4.682,0,0,0,.607-.552h0l4.7-5.746a.516.516,0,0,0,.148-.324.507.507,0,0,0-.182-.339c-2.979-2.743-3.646-3.852-3.98-4.57,0,0-.1-.273-.256-.273s-.227.275-.227.275c-.328.719-1.143,1.976-4.105,4.736-2.864,2.666-3.107,4.881-1.488,6.679C109.057,190.8,111.48,189.979,112.342,189.252Z" transform="translate(-96.514 -166.334)"/>
      </g>
    </g>
  </g>
</svg>
