<svg xmlns="http://www.w3.org/2000/svg" width="899.844" height="817.282" viewBox="0 0 899.844 817.282">
  <metadata><?xpacket begin="﻿" id="W5M0MpCehiHzreSzNTczkc9d"?>
<x:xmpmeta xmlns:x="adobe:ns:meta/" x:xmptk="Adobe XMP Core 5.6-c142 79.160924, 2017/07/13-01:06:39        ">
   <rdf:RDF xmlns:rdf="http://www.w3.org/1999/02/22-rdf-syntax-ns#">
      <rdf:Description rdf:about=""/>
   </rdf:RDF>
</x:xmpmeta>
                                                                                                    
                                                                                                    
                                                                                                    
                                                                                                    
                                                                                                    
                                                                                                    
                                                                                                    
                                                                                                    
                                                                                                    
                                                                                                    
                                                                                                    
                                                                                                    
                                                                                                    
                                                                                                    
                                                                                                    
                                                                                                    
                                                                                                    
                                                                                                    
                                                                                                    
                                                                                                    
                           
<?xpacket end="w"?></metadata>
<defs>
    <style>
      .cls-1 {
        fill: #414650;
        fill-rule: evenodd;
      }
    </style>
  </defs>
  <path class="cls-1" d="M509.455,251.621c-11,1.346-24.524,2.98-39.786,4.336V444.386H55.09V293.126c0-23.786,20.213-42.861,45.494-42.861h188.93c-50.742-10-88.806-30.468-90.188-68.27C197.885,137.481,251.174,65.518,328.977,81.94c80.3,17.026,136.419,75.615,179.4,125.821,43.349-51.176,104.8-117.12,188.612-127.524,70.034-8.364,127.914,57.58,120.447,101.085-6.359,38.139-45.118,58.906-94.509,68.933H909.445c25.238,0,45.483,19.065,45.483,42.851v151.25H540.381V254.6c-10.316-.941-20.282-2-28.787-3.3v-0.357h-1.811l0.376,0.357A1.38,1.38,0,0,1,509.455,251.621Zm251.862-56.54c26.637-32.141-25.577-99.085-81.7-74.339-53.665,23.787-92.36,62.569-125.759,100.748a680.983,680.983,0,0,0,86.673,1.673C675.714,221.817,740.723,219.49,761.317,195.081Zm-505.869.306c37.286,36.16,139.586,33.5,208.19,26.766-32.346-38.09-72.131-80.643-126.1-100.748-38.758-14.4-61.476,1.04-77.8,26.479C250.83,162.237,241.277,181.341,255.448,195.387ZM916.562,474.864V857.681c0,21.777-18.466,39.139-41.237,39.139h-337.8V474.864H916.562ZM510.143,251.314l-0.37-.346h1.811v0.346h-1.441ZM472.5,474.864V896.82H134.651c-22.739,0-41.221-17.372-41.221-39.139V474.864H472.5Z" transform="translate(-55.094 -79.531)"/>
</svg>
