<svg xmlns="http://www.w3.org/2000/svg" xmlns:xlink="http://www.w3.org/1999/xlink" width="52.131" height="52.131" viewBox="0 0 52.131 52.131">
  <defs>
    <style>
      .cls-1 {
        fill: #fff;
      }

      .cls-2 {
        clip-path: url(#clip-path);
      }

      .cls-3 {
        filter: url(#Path_63872);
      }
    </style>
    <clipPath id="clip-path">
      <rect id="Rectangle_8902" data-name="Rectangle 8902" class="cls-1" width="52.131" height="52.131" transform="translate(0 0)"/>
    </clipPath>
    <filter id="Path_63872" x="12.574" y="12.361" width="26.982" height="27.409" filterUnits="userSpaceOnUse">
      <feOffset input="SourceAlpha"/>
      <feGaussianBlur stdDeviation="0.5" result="blur"/>
      <feFlood flood-opacity="0.522"/>
      <feComposite operator="in" in2="blur"/>
      <feComposite in="SourceGraphic"/>
    </filter>
  </defs>
  <g id="Group_676" data-name="Group 676" class="cls-2">
    <g class="cls-3" transform="matrix(1, 0, 0, 1, 0, 0)">
      <path id="Path_63872-2" data-name="Path 63872" class="cls-1" d="M5.84,13.09a5.6,5.6,0,0,0,1.9,4.626,7.782,7.782,0,0,0,5.052,1.542h9.35v5.151H1.739V21.653l2.526-.82A8.509,8.509,0,0,1,1.132,17.5,9.96,9.96,0,0,1,0,12.729,9.838,9.838,0,0,1,2.28,6.2,11.254,11.254,0,0,1,8.4,2.526V0h2.625V2.133q.328-.033,1.05-.033.623,0,.919.033V0h2.625V2.493a10.865,10.865,0,0,1,6.1,3.806,11.308,11.308,0,0,1,2.264,7.25h-5.84q0-4.3-2.526-5.774V13.55H12.992V6.955q-.3-.033-.951-.033-.361,0-1.017.066V13.55H8.4V7.775Q5.84,9.317,5.84,13.09Z" transform="translate(14.07 13.86)"/>
    </g>
  </g>
</svg>
