<svg id="my_history" data-name="my history" xmlns="http://www.w3.org/2000/svg" width="24" height="24" viewBox="0 0 24 24">
  <defs>
    <style>
      .cls-1 {
        fill: #fff;
      }

      .cls-2 {
        fill: none;
      }
    </style>
  </defs>
  <path id="Icon_awesome-history" data-name="Icon awesome-history" class="cls-1" d="M19.438,9.982a9.438,9.438,0,0,1-15.36,7.366.913.913,0,0,1-.07-1.355l.429-.429a.915.915,0,0,1,1.214-.076A7,7,0,1,0,5.2,4.9L7.134,6.83A.609.609,0,0,1,6.7,7.869H1.171A.609.609,0,0,1,.563,7.26V1.728A.609.609,0,0,1,1.6,1.3L3.481,3.176A9.437,9.437,0,0,1,19.438,9.982Zm-6.885,3,.374-.481a.913.913,0,0,0-.16-1.282l-1.549-1.2V6.042a.913.913,0,0,0-.913-.913H9.7a.913.913,0,0,0-.913.913V11.2l2.489,1.936A.913.913,0,0,0,12.553,12.98Z" transform="translate(2.438 2.438)"/>
  <rect id="Rectangle_5363" data-name="Rectangle 5363" class="cls-2" width="24" height="24"/>
</svg>
