<svg xmlns="http://www.w3.org/2000/svg" width="35" height="35" viewBox="0 0 35 35">
  <defs>
    <style>
      .cls-1 {
        fill: #1fa7ac;
      }

      .cls-2 {
        fill: none;
      }
    </style>
  </defs>
  <g id="freebet" transform="translate(-8 -25.304)">
    <g id="Group_11340" data-name="Group 11340" transform="translate(8 25.304)">
      <path id="Union_57" data-name="Union 57" class="cls-1" d="M4.416,26.332A4.419,4.419,0,0,1,0,21.917V20.5H.73a3.639,3.639,0,0,0,3.6-3.2,2.27,2.27,0,0,0,0-.885,3.644,3.644,0,0,0-3.6-3.205H0V11.795a4.422,4.422,0,0,1,4.416-4.42H24.744a4.422,4.422,0,0,1,4.423,4.42v1.413h-.726a3.637,3.637,0,0,0-3.6,3.205,2.206,2.206,0,0,0,0,.885,3.633,3.633,0,0,0,3.6,3.2h.726v1.419a4.42,4.42,0,0,1-4.423,4.416Zm7.595-4.454a1.52,1.52,0,0,0,1.232,1.52c.087.012.164.017.251.022A1.472,1.472,0,0,0,14.95,22.2a1.259,1.259,0,0,0,.022-.24V19.4a1.1,1.1,0,0,1,1.109-1.093H16.4a1.531,1.531,0,0,0,1.5-1.216,1.422,1.422,0,0,0-.243-1.083,1.484,1.484,0,0,0-.967-.6,1.865,1.865,0,0,0-.251-.021h-.366a1.094,1.094,0,0,1-.067-2.187h2.656a1.481,1.481,0,0,0,1.046-.432,1.461,1.461,0,0,0,.427-1.029,1.19,1.19,0,0,0-.021-.24,1.537,1.537,0,0,0-1.506-1.216H14.972a2.939,2.939,0,0,0-2.962,2.917v1.536a.655.655,0,0,0,.661.651h.048a1.535,1.535,0,0,1,1.441,1,1.439,1.439,0,0,1-.085,1.108,1.484,1.484,0,0,1-.863.737,1.537,1.537,0,0,1-.461.074h-.74Zm-5.065-5.05A1.477,1.477,0,0,0,8.4,18.338H9.951a1.483,1.483,0,0,0,.055-2.965H8.42A1.477,1.477,0,0,0,6.945,16.829Zm13.817-1.413a1.451,1.451,0,1,0,.01,0ZM24.744,6.3H7.115L23.611.137a2.413,2.413,0,0,1,3.066,1.455l2.259,6.683A5.442,5.442,0,0,0,24.744,6.3Z" transform="translate(2.917 4.334)"/>
      <rect id="Rectangle_5118" data-name="Rectangle 5118" class="cls-2" width="35" height="35"/>
    </g>
  </g>
</svg>
