<svg xmlns="http://www.w3.org/2000/svg" width="35" height="35" viewBox="0 0 35 35">
  <defs>
    <style>
      .cls-1 {
        fill: #1fa7ac;
        stroke: rgba(0,0,0,0);
        stroke-miterlimit: 10;
      }

      .cls-2 {
        fill: none;
      }
    </style>
  </defs>
  <g id="freespin" transform="translate(-9 -25.725)">
    <path id="Union_53" data-name="Union 53" class="cls-1" d="M6.581,23.116l-.035-.035a12.825,12.825,0,0,1-3.361-6.054,13.885,13.885,0,0,1-.4-2.959L1.721,15.2a1.052,1.052,0,0,1-.732.283,1.036,1.036,0,0,1-.7-.294l-.016-.023a1.018,1.018,0,0,1,.045-1.44l2.8-3a1.078,1.078,0,0,1,.445-.449,1.024,1.024,0,0,1,1.377.444L7.74,13.705a1.032,1.032,0,0,1-.778,1.716.933.933,0,0,1-.713-.311L4.815,13.578a11.957,11.957,0,0,0,.351,2.948A10.83,10.83,0,0,0,8,21.63l.021.029a10.672,10.672,0,0,0,8.232,3.093,11.66,11.66,0,0,0,7.413-3.19,1.012,1.012,0,0,1,1.439-.006,1.03,1.03,0,0,1,0,1.44,13.744,13.744,0,0,1-8.749,3.8c-.275.019-.548.027-.825.027A12.676,12.676,0,0,1,6.581,23.116ZM12.853,19.4a1.676,1.676,0,0,1,.035-2.367l2.875-2.873,2.875,2.873A1.674,1.674,0,0,1,16.269,19.4l-.507-.507-.514.507-.028.034a1.674,1.674,0,0,1-2.368-.034ZM19.2,16.47,16.326,13.6,19.2,10.722a1.674,1.674,0,1,1,2.366,2.367l-.507.506.507.507.01.012A1.673,1.673,0,1,1,19.2,16.47Zm-9.2,0A1.674,1.674,0,0,1,9.957,14.1l.507-.507-.507-.506a1.673,1.673,0,0,1,2.364-2.367L15.2,13.6,12.322,16.47a1.654,1.654,0,0,1-1.157.466A1.682,1.682,0,0,1,10,16.47Zm17.12.1a.994.994,0,0,1-.517-.471l-2.793-2.988v-.006a1.018,1.018,0,0,1,.059-1.446,1.045,1.045,0,0,1,1.439.052l1.427,1.526a12.486,12.486,0,0,0-.348-2.943,10.882,10.882,0,0,0-2.837-5.113l-.021-.023A10.7,10.7,0,0,0,15.3,2.06a11.667,11.667,0,0,0-7.413,3.2l-.009.016A1.015,1.015,0,1,1,6.455,3.822,13.747,13.747,0,0,1,15.2.027,12.671,12.671,0,0,1,24.971,3.7L25,3.736a12.863,12.863,0,0,1,3.361,6.053,13.671,13.671,0,0,1,.4,2.959l1-1.059a1.015,1.015,0,0,1,1.392-.064,1.036,1.036,0,0,1,.1,1.44l-2.831,3.023a1,1,0,0,1-.521.483.985.985,0,0,1-.387.078A1.014,1.014,0,0,1,27.123,16.572ZM12.887,10.157a1.674,1.674,0,0,1,2.368-2.366l.507.507.507-.507a1.674,1.674,0,0,1,2.368,2.366l-2.875,2.875Z" transform="translate(11.174 30.211)"/>
    <rect id="Rectangle_5118" data-name="Rectangle 5118" class="cls-2" width="35" height="35" transform="translate(9 25.725)"/>
  </g>
</svg>
