<svg xmlns="http://www.w3.org/2000/svg" width="35" height="35" viewBox="0 0 35 35">
  <defs>
    <style>
      .cls-1 {
        fill: #1fa7ac;
      }

      .cls-2 {
        fill: none;
      }
    </style>
  </defs>
  <g id="aviabet" transform="translate(-8 -25.725)">
    <path id="Union_54" data-name="Union 54" class="cls-1" d="M4.416,26.335A4.423,4.423,0,0,1,0,21.918V20.5h.73a3.642,3.642,0,0,0,3.6-3.2,2.241,2.241,0,0,0,0-.883,3.642,3.642,0,0,0-3.6-3.205H0V11.792A4.422,4.422,0,0,1,4.416,7.374h20.33a4.427,4.427,0,0,1,4.42,4.417v1.417h-.729a3.646,3.646,0,0,0-3.6,3.205,2.241,2.241,0,0,0,0,.883,3.649,3.649,0,0,0,3.6,3.2h.729v1.417a4.426,4.426,0,0,1-4.42,4.417ZM12.541,12.2v2.245L7.2,15.41a.836.836,0,0,0-.656.79v1.332a1.336,1.336,0,0,0,1.334,1.335h4.811a26.421,26.421,0,0,0,.422,2.714l-2,.985a1.18,1.18,0,0,0-.594.964v1.336H18.57V23.531a1.184,1.184,0,0,0-.6-.964l-2-.985a24.915,24.915,0,0,0,.424-2.714h4.813a1.335,1.335,0,0,0,1.332-1.335V16.2a.819.819,0,0,0-.652-.785l-5.348-.973V12.2a1.331,1.331,0,0,0-1.336-1.331h-.166l0-1.05h1.668a.5.5,0,0,0,0-1H12.369a.5.5,0,0,0,0,1h1.67l0,1.05h-.166A1.334,1.334,0,0,0,12.541,12.2Zm12.205-5.9H7.113L23.607.137a2.414,2.414,0,0,1,3.066,1.456l2.268,6.683A5.485,5.485,0,0,0,24.746,6.295Z" transform="translate(10.917 28.892)"/>
    <rect id="Rectangle_5118" data-name="Rectangle 5118" class="cls-2" width="35" height="35" transform="translate(8 25.725)"/>
  </g>
</svg>
