<svg xmlns="http://www.w3.org/2000/svg" width="35" height="35" viewBox="0 0 35 35">
  <defs>
    <style>
      .cls-1 {
        fill: none;
      }

      .cls-2 {
        fill: #1fa7ac;
      }
    </style>
  </defs>
  <g id="leaderboard" transform="translate(-1059 -2117)">
    <rect id="Rectangle_5118" data-name="Rectangle 5118" class="cls-1" width="35" height="35" transform="translate(1059 2117)"/>
    <g id="Group_35438" data-name="Group 35438" transform="translate(1007.224 1986.563)">
      <path id="Path_41935" data-name="Path 41935" class="cls-2" d="M88.718,158.818a.39.39,0,0,0-.291.148L75.409,174.883s-.129.168-.079.273a.178.178,0,0,0,.141.088h7.736s.183,0,.205-.087c0,0,.061-.107-.112-.22a4.361,4.361,0,0,1-2-4.347,1.117,1.117,0,0,1,.561-.8,1.1,1.1,0,0,1,1.018.074c1.9.993,5.206,1.587,7.367-.843,2.493-2.8,2.544-6-1.079-9.969A.618.618,0,0,0,88.718,158.818Z" transform="translate(-10.651 -14.974)"/>
      <path id="Path_41936" data-name="Path 41936" class="cls-2" d="M67.207,153.944a7.957,7.957,0,0,0,1.052-.958s0,0,.007,0l8.14-9.955a.894.894,0,0,0,.257-.561.883.883,0,0,0-.316-.588c-5.161-4.749-6.318-6.674-6.894-7.917,0,0-.181-.473-.443-.473s-.393.475-.393.475c-.57,1.246-1.981,3.424-7.113,8.206-4.962,4.622-5.384,8.457-2.579,11.573C61.516,156.627,65.714,155.2,67.207,153.944Z" transform="translate(0 0)"/>
    </g>
  </g>
</svg>
