<svg xmlns="http://www.w3.org/2000/svg" width="161.999" height="93.228" viewBox="0 0 161.999 93.228">
  <defs>
    <style>
      .cls-1 {
        fill: #e1ebeb;
      }

      .cls-2, .cls-3 {
        stroke: none;
      }

      .cls-3 {
        fill: #fff;
      }
    </style>
  </defs>
  <g id="Hover_box" data-name="Hover box" transform="translate(1 1)">
    <g id="Group_7864" data-name="Group 7864" transform="translate(-71.417 -29.601)">
      <g id="Group_7863" data-name="Group 7863" transform="translate(76.416 6.6)">
        <g id="Union_2" data-name="Union 2" class="cls-1" transform="translate(155 113) rotate(180)">
          <path class="cls-2" d="M 155.9997100830078 90.5 L 3.999608993530273 90.5 C 1.518529057502747 90.5 -0.4999909400939941 88.4810791015625 -0.4999909400939941 85.99949645996094 L -0.4999909400939941 9.633600234985352 C -0.4999909400939941 7.152520179748535 1.518529057502747 5.133999824523926 3.999608993530273 5.133999824523926 L 76.86159515380859 5.133999824523926 L 79.55330657958984 -0.2244399935007095 L 80.00016784667969 -1.114019989967346 L 80.44692993164063 -0.2243800014257431 L 83.13783264160156 5.133999824523926 L 155.9997100830078 5.133999824523926 C 158.4807891845703 5.133999824523926 160.4993133544922 7.152520179748535 160.4993133544922 9.633600234985352 L 160.4993133544922 85.99949645996094 C 160.4993133544922 88.4810791015625 158.4807891845703 90.5 155.9997100830078 90.5 Z"/>
          <path class="cls-3" d="M 155.9997100830078 90 C 158.2091979980469 90 159.9992980957031 88.20899963378906 159.9992980957031 85.99949645996094 L 159.9992980957031 9.633604049682617 C 159.9992980957031 7.425000190734863 158.2091979980469 5.633999824523926 155.9997100830078 5.633999824523926 L 82.82943725585938 5.633999824523926 L 80.00010681152344 7.105427357601002e-15 L 77.16996002197266 5.633999824523926 L 3.99960732460022 5.633999824523926 C 1.791003227233887 5.633999824523926 3.214518301319913e-06 7.425000190734863 3.214518301319913e-06 9.633604049682617 L 3.214518301319913e-06 85.99949645996094 C 3.214518301319913e-06 88.20899963378906 1.791003227233887 90 3.99960732460022 90 L 155.9997100830078 90 M 155.9997100830078 91 L 3.99960732460022 91 C 1.242815732955933 91 -0.9999967813491821 88.75679016113281 -0.9999967813491821 85.99949645996094 L -0.9999967813491821 9.633604049682617 C -0.9999967813491821 6.87681245803833 1.242815732955933 4.633999824523926 3.99960732460022 4.633999824523926 L 76.55323028564453 4.633999824523926 L 79.10652160644531 -0.4488750100135803 L 80.00022888183594 -2.228020906448364 L 80.89375305175781 -0.4487708210945129 L 83.44626617431641 4.633999824523926 L 155.9997100830078 4.633999824523926 C 158.7564849853516 4.633999824523926 160.9992980957031 6.87681245803833 160.9992980957031 9.633604049682617 L 160.9992980957031 85.99949645996094 C 160.9992980957031 88.75679016113281 158.7564849853516 91 155.9997100830078 91 Z"/>
        </g>
      </g>
    </g>
  </g>
</svg>
