<svg xmlns="http://www.w3.org/2000/svg" width="50" height="50" viewBox="0 0 50 50">
    <g>
        <g fill="none" stroke="rgba(255,255,255,0.1)">
            <rect width="50" height="50" stroke="none" rx="4"/>
            <rect width="49" height="49" x=".5" y=".5" rx="3.5"/>
        </g>
        <path fill="#fff" d="M14555.033 5821a5.041 5.041 0 0 1-5.035-5.032v-1.614h.83a4.141 4.141 0 0 0 4.1-3.649 2.46 2.46 0 0 0 0-1.006 4.15 4.15 0 0 0-4.1-3.652h-.83v-1.61a5.042 5.042 0 0 1 5.035-5.036h23.16a5.043 5.043 0 0 1 5.036 5.036v1.61h-.831a4.152 4.152 0 0 0-4.1 3.652 2.6 2.6 0 0 0 0 1.006 4.146 4.146 0 0 0 4.1 3.649h.831v1.614a5.037 5.037 0 0 1-5.032 5.032zm9.257-16.1v2.555l-6.091 1.105a.955.955 0 0 0-.746.9v1.519a1.521 1.521 0 0 0 1.519 1.519h5.482a29.37 29.37 0 0 0 .483 3.1l-2.272 1.124a1.342 1.342 0 0 0-.682 1.1v1.522h9.172v-1.522a1.337 1.337 0 0 0-.677-1.1l-2.276-1.124a29.37 29.37 0 0 0 .483-3.1h5.482a1.522 1.522 0 0 0 1.519-1.519v-1.519a.944.944 0 0 0-.747-.893l-6.09-1.109v-2.558a1.517 1.517 0 0 0-1.519-1.519h-.19l-.007-1.2h1.9a.571.571 0 0 0 0-1.142h-4.937a.571.571 0 1 0 0 1.142h1.9l.007 1.2h-.189a1.52 1.52 0 0 0-1.524 1.519zm13.907-6.727h-20.089l18.786-7.016a2.749 2.749 0 0 1 3.5 1.662l2.584 7.612a6.238 6.238 0 0 0-4.778-2.261z" transform="translate(-14542 -5781)"/>
    </g>
</svg>
