<svg xmlns="http://www.w3.org/2000/svg" width="30" height="30" viewBox="0 0 30 30">
    <g fill="none" stroke="rgba(255,255,255,0.1)">
        <rect width="30" height="30" stroke="none" rx="4"/>
        <rect width="29" height="29" x=".5" y=".5" rx="3.5"/>
    </g>
    <path fill="#fff" d="M17.194 18H9.758V7.774h7.9v9.76A.463.463 0 0 1 17.2 18zM.929 17.535V7.774h7.9V18H1.388a.461.461 0 0 1-.459-.465zm17.2-10.7H.463A.463.463 0 0 1 0 6.377V4.518a.464.464 0 0 1 .463-.465h4.683a2.97 2.97 0 0 1-.959-.982A1.944 1.944 0 0 1 4.225.892 1.923 1.923 0 0 1 6.41.084C7.933.515 9.119 2.531 9.3 4.056 9.469 2.531 10.655.515 12.181.084a1.921 1.921 0 0 1 2.183.809A1.953 1.953 0 0 1 14.4 3.07a3.02 3.02 0 0 1-.963.982h4.684a.464.464 0 0 1 .463.465v1.86a.459.459 0 0 1-.46.462zm-5.57-5.409c-.632.112-1.391 1.254-1.714 2.246.86-.227 2.044-.689 2.342-1.294.218-.438.067-.969-.466-.969a.851.851 0 0 0-.162.017zM5.4 2.378c.3.6 1.481 1.067 2.344 1.294-.321-.992-1.078-2.134-1.711-2.246a.871.871 0 0 0-.164-.018c-.535 0-.681.534-.469.97z" transform="translate(6 6)"/>
</svg>
