<svg xmlns="http://www.w3.org/2000/svg" width="50" height="50" viewBox="0 0 50 50">
    <g>
        <g fill="none" stroke="rgba(20,162,52,0.5)">
            <rect width="50" height="50" stroke="none" rx="4"/>
            <rect width="49" height="49" x=".5" y=".5" rx="3.5"/>
        </g>
        <path fill="#14A234" d="M14555.032 5821a5.029 5.029 0 0 1-5.031-5.03v-1.616h.828a4.15 4.15 0 0 0 4.105-3.646 2.579 2.579 0 0 0 0-1.009 4.165 4.165 0 0 0-4.105-3.657h-.829v-1.61a5.032 5.032 0 0 1 5.031-5.03h23.16a5.043 5.043 0 0 1 5.037 5.03v1.61h-.832a4.154 4.154 0 0 0-4.1 3.657 2.507 2.507 0 0 0 0 1.009 4.138 4.138 0 0 0 4.1 3.646h.832v1.616a5.04 5.04 0 0 1-5.037 5.03zm8.408-4.3a2.056 2.056 0 0 0 1.994 2.37l8.281.718c.061 0 .121.012.176.012a2.043 2.043 0 0 0 2.121-2.072l.516-5.863c.072-.79.139-1.58.207-2.369a2.022 2.022 0 0 0-1.834-2.272 3.358 3.358 0 0 0-.334-.037l-2.254-.187c-.846-.079-1.7-.152-2.547-.226l-.023-.109c-.025-.109-.057-.176-.068-.242-.584-1.6-1.166-3.2-1.754-4.807a2.01 2.01 0 0 0-1.9-1.409 2.442 2.442 0 0 0-.814.151c-2.619.948-5.225 1.9-7.838 2.862a2.027 2.027 0 0 0-1.277 2.752q1.421 3.92 2.846 7.813a1.992 1.992 0 0 0 1.906 1.446 2.416 2.416 0 0 0 .838-.152c.377-.134.742-.272 1.111-.407.287-.109.566-.206.857-.315-.069.786-.141 1.563-.21 2.343zm10.342 1.842c-2.588-.231-5.189-.456-7.783-.681-.15-.019-.311-.024-.457-.043a.816.816 0 0 1-.854-1.009c.107-1.306.23-2.6.338-3.906q.193-2.1.365-4.187c.066-.808.359-1.051 1.154-.972q3.9.347 7.82.681c.113.006.242.018.357.03a.791.791 0 0 1 .766.941c-.084 1.045-.182 2.1-.273 3.147l-.449 5.08c-.047.646-.3.921-.873.921-.037.005-.074.003-.111.001zm-6.854-4.4a.868.868 0 0 0-.225.072l-.1.049a.531.531 0 0 0-.139.085.122.122 0 0 0-.049.03 1.257 1.257 0 0 0-.187.158 2.477 2.477 0 0 0-.16.2 1.447 1.447 0 0 0-.23.809v.006a.84.84 0 0 0 .025.207.776.776 0 0 0 .055.2.559.559 0 0 0 .072.194 1.287 1.287 0 0 0 .406.479l.1.073a1.394 1.394 0 0 0 .389.17.879.879 0 0 0 .129.03c.078.007.164.019.254.019h.012a1.4 1.4 0 0 0 1.107-.577.482.482 0 0 0 .072-.115l.006-.007a.82.82 0 0 0 .086-.157 1.482 1.482 0 0 0 .072-.243.068.068 0 0 0 .012-.049 1.757 1.757 0 0 0 .023-.268v-.006a1.4 1.4 0 0 0-1.4-1.4h-.043a1.323 1.323 0 0 0-.286.045zm1.75-1.021a1.412 1.412 0 0 0 .1.56 1.461 1.461 0 0 0 .3.442 1.417 1.417 0 0 0 .982.426h.006a1.7 1.7 0 0 0 .25-.023c.037-.013.072-.013.115-.024a.664.664 0 0 0 .115-.037c.057-.024.1-.043.152-.067a.549.549 0 0 0 .133-.072.458.458 0 0 0 .109-.085.582.582 0 0 0 .135-.109.6.6 0 0 0 .092-.1v-.013c.031-.042.068-.084.092-.12.029-.056.061-.1.086-.153a.3.3 0 0 0 .049-.115 2.12 2.12 0 0 0 .066-.206 1.486 1.486 0 0 0 .023-.285 1.694 1.694 0 0 0-.023-.3 1.92 1.92 0 0 0-.086-.256c-.041-.085-.086-.158-.133-.236a1.39 1.39 0 0 0-.869-.59 1.111 1.111 0 0 0-.285-.03 1.41 1.41 0 0 0-1.408 1.397zm3.676-3.67c-.041.019-.072.036-.115.061a.229.229 0 0 0-.086.049s-.012 0-.023.019a1.313 1.313 0 0 0-.576.838.2.2 0 0 0-.02.092.978.978 0 0 0-.025.225v.037a1.109 1.109 0 0 0 .031.279.873.873 0 0 0 .086.255.922.922 0 0 0 .133.243 1.864 1.864 0 0 0 .17.206 1.412 1.412 0 0 0 1 .407 1.482 1.482 0 0 0 .541-.109 1.423 1.423 0 0 0 .436-.3 1.383 1.383 0 0 0 .414-.978v-.037a1.206 1.206 0 0 0-.109-.528.243.243 0 0 0-.023-.061.968.968 0 0 0-.111-.188.9.9 0 0 0-.17-.207.986.986 0 0 0-.328-.243.553.553 0 0 0-.127-.066.641.641 0 0 0-.176-.055.235.235 0 0 0-.115-.03 1.521 1.521 0 0 0-.244-.024h-.041a1.324 1.324 0 0 0-.522.119zm-10.512 3.038a1.413 1.413 0 1 1 1.459-1.513 2.436 2.436 0 0 1-.023.341 1.7 1.7 0 0 1-.086.261 1.177 1.177 0 0 1-.121.243 1.3 1.3 0 0 1-.121.158l-.074.072c-.012.019-.02.03-.023.03a.53.53 0 0 1-.16.128.792.792 0 0 1-.205.121c-.043.024-.092.037-.133.056a.6.6 0 0 1-.207.066c-.02.006-.02.006-.025 0s-.029.018-.035.006a.632.632 0 0 1-.182.03zm-1.768-4.921a1.413 1.413 0 0 1-1.4-1.41 1.368 1.368 0 0 1 .018-.236.581.581 0 0 1 .049-.183.541.541 0 0 1 .049-.158 1.312 1.312 0 0 1 .285-.413.093.093 0 0 1 .029-.036c.043-.037.092-.079.152-.122a.1.1 0 0 1 .049-.036c.066-.037.139-.079.219-.115a1.31 1.31 0 0 1 .533-.115h.014a1.4 1.4 0 0 1 1 .406 1.592 1.592 0 0 1 .3.443 1.336 1.336 0 0 1 .109.541v.013a1.127 1.127 0 0 1-.025.249.5.5 0 0 1-.035.17 1.018 1.018 0 0 1-.066.17.635.635 0 0 1-.111.2.81.81 0 0 1-.15.183c-.006.019-.014.037-.031.042a1.084 1.084 0 0 1-.176.152c-.006 0-.012.006-.025.012a1.165 1.165 0 0 1-.23.129 2.087 2.087 0 0 1-.268.085 1.111 1.111 0 0 1-.285.03zm4.9-1.8a1.4 1.4 0 0 1-1.4-1.423 1.412 1.412 0 1 1 2.824.037v.006a1.394 1.394 0 0 1-1.393 1.38zm13.215-7.595h-20.086l18.787-7.018a2.747 2.747 0 0 1 3.494 1.658l2.58 7.613a6.224 6.224 0 0 0-4.772-2.253z" transform="translate(-14542 -5781)"/>
    </g>
</svg>
