<svg xmlns="http://www.w3.org/2000/svg" viewBox="0 0 50 50"><defs><style>.\31 b73fc5f-5498-408d-b65b-065704ca1be4{fill:#d40100;}.\32 6d518c7-e8ec-491f-9f31-926ebbfd0702{fill:#fff;}</style></defs><title>Asset 2</title><g id="9d7907e4-fdbc-44cf-b49b-3bd752c3f638" data-name="Layer 2"><g id="97642c1a-4084-46c5-836b-456567ab17b1" data-name="login"><circle class="1b73fc5f-5498-408d-b65b-065704ca1be4" cx="25" cy="25" r="25"/><path class="26d518c7-e8ec-491f-9f31-926ebbfd0702" d="M25,27.47a1,1,0,0,0-1,1v2.06a1,1,0,1,0,2.06,0V28.51A1,1,0,0,0,25,27.47Z"/><path class="26d518c7-e8ec-491f-9f31-926ebbfd0702" d="M31.81,22.62c-.2-.22-.41-.43-.62-.63v-3.8a6.19,6.19,0,1,0-12.38,0V22a9.2,9.2,0,1,0,13,.63ZM20.72,18.19a4.28,4.28,0,1,1,8.56,0v2.47a9.13,9.13,0,0,0-8.56,0ZM25,36.1a7.3,7.3,0,1,1,7.3-7.29A7.29,7.29,0,0,1,25,36.1Z"/></g></g></svg>