<svg xmlns="http://www.w3.org/2000/svg" viewBox="0 0 50 32.01"><defs><style>.ee575df8-4110-46c5-bc53-397fd672876b{fill:#fff;}</style></defs><title>Asset 1</title><g id="809a8c03-5d7b-476d-8a69-6f3889f18157" data-name="Layer 2"><g id="c7902081-4775-4137-93dc-02a230d39e58" data-name="Layer 1"><path class="ee575df8-4110-46c5-bc53-397fd672876b" d="M50,16a3.67,3.67,0,0,0-.66-1.87l-12-13A3,3,0,0,0,33.12.65a3.12,3.12,0,0,0-.46,4.22L40.75,13H3a3,3,0,0,0,0,6H40.75l-8.09,8.13a3.15,3.15,0,0,0,.46,4.21,3,3,0,0,0,4.22-.46l12-13A2.6,2.6,0,0,0,50,16Z"/></g></g></svg>