<svg data-name="my history" xmlns="http://www.w3.org/2000/svg" width="30" height="30">
    <path data-name="Icon awesome-history" d="M25.438 12.976a12.438 12.438 0 0 1-20.244 9.708A1.2 1.2 0 0 1 5.1 20.9l.565-.565a1.206 1.206 0 0 1 1.6-.1 9.228 9.228 0 1 0-.587-13.959l2.545 2.546a.8.8 0 0 1-.567 1.37H1.365a.8.8 0 0 1-.8-.8V2.1a.8.8 0 0 1 1.37-.567l2.473 2.474a12.437 12.437 0 0 1 21.029 8.969zm-9.073 3.951.493-.633a1.2 1.2 0 0 0-.211-1.689L14.6 13.017V7.784a1.2 1.2 0 0 0-1.2-1.2h-.8a1.2 1.2 0 0 0-1.2 1.2v6.8l3.28 2.551a1.2 1.2 0 0 0 1.685-.207z" transform="translate(2.438 2.438)" style="fill:#fff"/>
    <path data-name="Rectangle 5363" style="fill:none" d="M0 0h30v30H0z"/>
</svg>
