<svg xmlns="http://www.w3.org/2000/svg" width="24" height="24" viewBox="0 0 24 24">
  <defs>
    <style>
      .cls-1 {
        fill: #fff;
      }
    </style>
  </defs>
  <path id="Path_63732" data-name="Path 63732" class="cls-1" d="M12.5.5a12,12,0,1,0,12,12A12,12,0,0,0,12.5.5Zm1.083,17.122.218.4s-.965,1.894-2.582,1.894q-1.286,0-1.286-1.639a13.069,13.069,0,0,1,.619-3.326,13.433,13.433,0,0,0,.618-2.857.833.833,0,0,0-.594-.85l.121-.567a5.437,5.437,0,0,1,2.46-1.045q1.114,0,1.115,1.211a13.113,13.113,0,0,1-.522,2.534q-.422,1.565-.641,2.557a6.193,6.193,0,0,0-.182,1.117Q12.928,17.622,13.583,17.622Zm-.165-9.24a1.648,1.648,0,1,1,1.648-1.646A1.646,1.646,0,0,1,13.418,8.382Z" transform="translate(-0.5 -0.5)"/>
</svg>
