<svg xmlns="http://www.w3.org/2000/svg" xmlns:xlink="http://www.w3.org/1999/xlink" width="60.8" height="66.351" viewBox="0 0 60.8 66.351">
  <defs>
    <style>
      .cls-1, .cls-3, .cls-4 {
        fill: none;
        stroke: #fae7c4;
        stroke-width: 2px;
      }

      .cls-1, .cls-4 {
        stroke-linecap: round;
      }

      .cls-1 {
        stroke-linejoin: round;
      }

      .cls-2 {
        fill: #fae7c4;
      }

      .cls-3, .cls-4 {
        stroke-miterlimit: 10;
      }

      .cls-5 {
        filter: url(#Path_62990);
      }

      .cls-6 {
        filter: url(#Union_71);
      }

      .cls-7 {
        filter: url(#Path_62982);
      }
    </style>
    <filter id="Path_62982" x="0" y="22.118" width="43.366" height="44.233" filterUnits="userSpaceOnUse">
      <feOffset input="SourceAlpha"/>
      <feGaussianBlur stdDeviation="3" result="blur"/>
      <feFlood flood-color="#ffc04f"/>
      <feComposite operator="in" in2="blur"/>
      <feComposite in="SourceGraphic"/>
    </filter>
    <filter id="Union_71" x="20.047" y="25.274" width="40.753" height="36.609" filterUnits="userSpaceOnUse">
      <feOffset input="SourceAlpha"/>
      <feGaussianBlur stdDeviation="2" result="blur-2"/>
      <feFlood flood-color="#ffc04f"/>
      <feComposite operator="in" in2="blur-2"/>
      <feComposite in="SourceGraphic"/>
    </filter>
    <filter id="Path_62990" x="11.873" y="0" width="44.108" height="44.072" filterUnits="userSpaceOnUse">
      <feOffset input="SourceAlpha"/>
      <feGaussianBlur stdDeviation="3" result="blur-3"/>
      <feFlood flood-color="#ffc04f"/>
      <feComposite operator="in" in2="blur-3"/>
      <feComposite in="SourceGraphic"/>
    </filter>
  </defs>
  <g id="Group_42425" data-name="Group 42425" transform="translate(-537.121 -1492.566)">
    <g id="Group_42118" data-name="Group 42118" transform="translate(547.121 1501.148)">
      <g id="Group_41786" data-name="Group 41786" transform="translate(0 22.691)">
        <g id="Group_41783" data-name="Group 41783" transform="translate(0 0)">
          <g class="cls-7" transform="matrix(1, 0, 0, 1, -10, -31.27)">
            <path id="Path_62982-2" data-name="Path 62982" class="cls-1" d="M59.7,167.331l.642,4.068-8.925-4.542L42.494,171.4l1.562-9.892-7.078-7.085,9.89-1.572,2.724-5.34" transform="translate(-26.98 -115.05)"/>
          </g>
          <g id="Component_607" data-name="Component 607" transform="translate(16.047)">
            <g class="cls-6" transform="matrix(1, 0, 0, 1, -26.05, -31.27)">
              <path id="Union_71-2" data-name="Union 71" class="cls-2" d="M6.011,21.215l-.032-.034A11.825,11.825,0,0,1,2.9,15.628a13.344,13.344,0,0,1-.366-2.721L1.568,13.95a.914.914,0,0,1-.668.257.9.9,0,0,1-.63-.27l-.016-.019A.941.941,0,0,1,.3,12.593L2.854,9.845a.956.956,0,0,1,.407-.412.926.926,0,0,1,1.252.4l2.552,2.741a.958.958,0,0,1,.241.642.945.945,0,0,1-.955.93.843.843,0,0,1-.647-.283L4.393,12.456a11.246,11.246,0,0,0,.319,2.707A9.964,9.964,0,0,0,7.3,19.851l.025.024a9.694,9.694,0,0,0,7.508,2.839A10.609,10.609,0,0,0,21.6,19.783a.93.93,0,0,1,1.315-.008l0,0a.953.953,0,0,1,0,1.322,12.512,12.512,0,0,1-7.985,3.482c-.251.019-.5.026-.752.026A11.527,11.527,0,0,1,6.011,21.215ZM11.732,17.8a1.548,1.548,0,0,1,.029-2.175l2.626-2.639,2.622,2.639a1.543,1.543,0,0,1,0,2.162,1.524,1.524,0,0,1-2.162.013l-.46-.467-.465.467-.029.029a1.523,1.523,0,0,1-2.161-.029Zm5.79-2.691L14.9,12.474l2.621-2.637a1.521,1.521,0,0,1,2.162,0,1.54,1.54,0,0,1,0,2.172l-.461.464.461.467.013.008a1.54,1.54,0,0,1-.013,2.172,1.526,1.526,0,0,1-2.162-.008Zm-8.391,0a1.539,1.539,0,0,1-.042-2.172l.461-.467-.461-.464a1.538,1.538,0,0,1,0-2.139,1.518,1.518,0,0,1,2.157-.034l2.625,2.637-2.625,2.639a1.529,1.529,0,0,1-2.115,0Zm15.626.1a.9.9,0,0,1-.469-.438l-2.551-2.74,0,0A.938.938,0,0,1,23.1,10.747l1.3,1.4a11.432,11.432,0,0,0-.316-2.706A10,10,0,0,0,21.5,4.759l-.024-.025a9.707,9.707,0,0,0-7.513-2.84A10.591,10.591,0,0,0,7.2,4.82l-.017.018A.927.927,0,0,1,5.891,3.506,12.51,12.51,0,0,1,13.872.024,11.542,11.542,0,0,1,22.791,3.4l.029.031a11.826,11.826,0,0,1,3.074,5.554,13.248,13.248,0,0,1,.365,2.714l.908-.972a.931.931,0,0,1,1.274-.058.961.961,0,0,1,.091,1.322l-2.589,2.773a.942.942,0,0,1-.477.446.883.883,0,0,1-.352.071A.91.91,0,0,1,24.757,15.209ZM11.764,9.321a1.539,1.539,0,0,1,0-2.119,1.522,1.522,0,0,1,2.162-.053l.461.467.465-.467a1.517,1.517,0,0,1,2.114,0,1.541,1.541,0,0,1,.043,2.172l-2.622,2.634Z" transform="translate(26.05 31.27)"/>
            </g>
          </g>
        </g>
      </g>
      <g id="Group_41787" data-name="Group 41787" transform="matrix(0.719, 0.695, -0.695, 0.719, 24.952, 0)">
        <path id="Path_62988" data-name="Path 62988" class="cls-3" d="M0,1.519a1.519,1.519,0,1,1,3.038,0" transform="translate(7.089 0)"/>
        <path id="Path_62989" data-name="Path 62989" class="cls-3" d="M5.064,0A2.327,2.327,0,0,1,2.528,2.025,2.316,2.316,0,0,1,0,0" transform="translate(6.076 19.241)"/>
        <g class="cls-5" transform="matrix(0.72, -0.69, 0.69, 0.72, -31.1, 18.11)">
          <path id="Path_62990-2" data-name="Path 62990" class="cls-3" d="M8.608,0c3.408,0,5.629,2.955,5.9,6.334a6.157,6.157,0,0,0,2.411,4.805,5.769,5.769,0,0,1,.207,2.885c-2.079,1.162-4.8,1.691-8.518,1.691S2.169,15.186.09,14.024A5.769,5.769,0,0,1,.3,11.14,6.157,6.157,0,0,0,2.708,6.334C2.98,2.955,5.2,0,8.608,0Z" transform="matrix(0.72, 0.69, -0.69, 0.72, 33.19, 10.4)"/>
        </g>
        <path id="Path_62991" data-name="Path 62991" class="cls-4" d="M0,4.051A4.456,4.456,0,0,1,3.054,0" transform="translate(5.719 5.776)"/>
      </g>
    </g>
  </g>
</svg>
