<svg xmlns="http://www.w3.org/2000/svg" viewBox="0 0 50 50"><defs><style>.a79da152-a4f4-4de9-9266-f96d2cccfaf1{fill:#1fa01c;}.\36 531c183-c904-45da-8e29-feb0e5a13197{fill:#fff;}</style></defs><title>Asset 3</title><g id="af029e23-82cb-40f0-9cc8-e1725f64aa8e" data-name="Layer 2"><g id="d5412623-a7ee-46e8-ac7d-f3808946dfa3" data-name="optin"><circle class="a79da152-a4f4-4de9-9266-f96d2cccfaf1" cx="25" cy="25" r="25"/><path class="6531c183-c904-45da-8e29-feb0e5a13197" d="M25,38a11.82,11.82,0,0,0,8.39-3.49,12,12,0,0,0,0-16.85,1.33,1.33,0,0,0-1.87,1.88,9.37,9.37,0,0,1,0,13.13A9.2,9.2,0,0,1,25,35.4a9,9,0,0,1-6.52-2.73,9.37,9.37,0,0,1,0-13.13,1.33,1.33,0,0,0-1.87-1.88,12,12,0,0,0,0,16.85A11.82,11.82,0,0,0,25,38Z"/><path class="6531c183-c904-45da-8e29-feb0e5a13197" d="M25,26.81a1.33,1.33,0,0,0,1.32-1.32V13.32a1.32,1.32,0,0,0-2.64,0V25.49A1.33,1.33,0,0,0,25,26.81Z"/></g></g></svg>