<svg xmlns="http://www.w3.org/2000/svg" width="60" height="60.382" viewBox="0 0 60 60.382">
    <defs>
        <filter id="Вычитание_19" width="40.058" height="54.763" x="9.971" y="5.619" filterUnits="userSpaceOnUse">
            <feOffset dy="3"/>
            <feGaussianBlur result="blur" stdDeviation="3"/>
            <feFlood flood-opacity=".459"/>
            <feComposite in2="blur" operator="in"/>
            <feComposite in="SourceGraphic"/>
        </filter>
        <style>
            .cls-3{fill:#0e203d}
        </style>
    </defs>
    <g id="Сгруппировать_40123" transform="translate(-345 -249.854)">
        <g id="Эллипс_985" fill="none" stroke="#273751" transform="translate(345 249.854)">
            <circle cx="30" cy="30" r="30" stroke="none"/>
            <circle cx="30" cy="30" r="29.5"/>
        </g>
        <g id="Сгруппировать_40122" transform="translate(2953.804 -2871.92) rotate(43)">
            <g filter="url(#Вычитание_19)" transform="matrix(0.73, -0.68, 0.68, 0.73, 221.09, 4062.32)">
                <path id="Вычитание_19-2" fill="#fff" d="M19.058 36.763H3a3 3 0 0 1-3-3V3a3 3 0 0 1 3-3h16.058a3 3 0 0 1 3 3v30.764a3 3 0 0 1-3 2.999zm-8.028-6.251a1.937 1.937 0 1 0 2.03 1.935 1.987 1.987 0 0 0-2.03-1.935zM7.8 2.609a1.37 1.37 0 1 0 0 2.74h6.45a1.37 1.37 0 0 0 0-2.74z" opacity="0.24" transform="translate(18.97 11.62)"/>
            </g>
            <g id="apple" transform="translate(254.188 4062.742) rotate(-43)">
                <g id="Сгруппировать_39369" transform="translate(5.843 0)">
                    <g id="Сгруппировать_39368" transform="translate(0 0)">
                        <path id="Контур_58531" d="M2.9 0A3.34 3.34 0 0 0 .741 1.171a2.9 2.9 0 0 0-.708 2.254A2.819 2.819 0 0 0 2.215 2.31 3.131 3.131 0 0 0 2.9 0z" class="cls-3" transform="translate(0 0)"/>
                    </g>
                </g>
                <g id="Сгруппировать_39371" transform="translate(0 3.331)">
                    <g id="Сгруппировать_39370" transform="translate(0 0)">
                        <path id="Контур_58532" d="M11.745 1.444A3.6 3.6 0 0 0 9.026 0C7.75 0 7.21.611 6.326.611 5.408.611 4.713 0 3.609 0A3.692 3.692 0 0 0 .638 1.8c-1.029 1.6-.853 4.6.815 7.152.6.914 1.394 1.943 2.436 1.952.928.009 1.189-.6 2.446-.6s1.5.609 2.421.6c1.043-.008 1.884-1.147 2.481-2.062a10.256 10.256 0 0 0 .919-1.726 3.138 3.138 0 0 1-.411-5.672z" class="cls-3" transform="translate(0)"/>
                    </g>
                </g>
            </g>
        </g>
    </g>
</svg>
