<svg xmlns="http://www.w3.org/2000/svg" xmlns:xlink="http://www.w3.org/1999/xlink" width="50" height="50" viewBox="0 0 50 50">
  <defs>
    <style>
      .cls-1, .cls-3 {
        fill: #293136;
      }

      .cls-1 {
        stroke: #707070;
      }

      .cls-2 {
        clip-path: url(#clip-path);
      }
    </style>
    <clipPath id="clip-path">
      <rect id="Rectangle_9031" data-name="Rectangle 9031" class="cls-1" width="50" height="50" transform="translate(0)"/>
    </clipPath>
  </defs>
  <g id="Mask_Group_776" data-name="Mask Group 776" class="cls-2">
    <g id="Mask_Group_237" data-name="Mask Group 237" transform="translate(8.333 9.959)">
      <g id="Group_43341" data-name="Group 43341" transform="translate(0 0)">
        <path id="Union_111-2" data-name="Union 111-2" class="cls-3" d="M101.56,196.417a5.049,5.049,0,0,1-5.046-5.037v-1.634h.825a4.145,4.145,0,0,0,4.113-3.656,2.38,2.38,0,0,0,0-1.006,4.167,4.167,0,0,0-4.113-3.673h-.825V179.8a5.064,5.064,0,0,1,5.046-5.056H124.8a5.077,5.077,0,0,1,5.048,5.056v1.608h-.827a4.186,4.186,0,0,0-4.131,3.673,3.134,3.134,0,0,0,0,1.006,4.167,4.167,0,0,0,4.131,3.656h.827v1.634a5.061,5.061,0,0,1-5.048,5.037Zm23.24-22.9H104.633l18.857-7.031a2.759,2.759,0,0,1,3.5,1.663l2.583,7.641a6.248,6.248,0,0,0-4.774-2.273Zm-6.288,9.827a.222.222,0,0,0-.167.084l-7.481,9.147s-.074.1-.046.157a.1.1,0,0,0,.081.051h4.444s.1,0,.118-.05c0,0,.035-.062-.065-.127a2.5,2.5,0,0,1-1.151-2.5.641.641,0,0,1,.322-.459.633.633,0,0,1,.585.043,3.472,3.472,0,0,0,4.231-.485c1.433-1.611,1.462-3.45-.62-5.728A.356.356,0,0,0,118.511,183.346Zm-6.24,5.8a4.665,4.665,0,0,0,.6-.55h0l4.679-5.72a.513.513,0,0,0,.148-.323.5.5,0,0,0-.181-.337c-2.966-2.731-3.63-3.835-3.962-4.549,0,0-.1-.272-.255-.272s-.226.273-.226.273c-.327.716-1.138,1.968-4.087,4.715-2.851,2.654-3.093,4.859-1.482,6.649C109,190.691,111.413,189.873,112.272,189.149Z" transform="translate(-96.514 -166.334)"/>
      </g>
    </g>
  </g>
</svg>
