<svg xmlns="http://www.w3.org/2000/svg" xmlns:xlink="http://www.w3.org/1999/xlink" width="66.044" height="66.118" viewBox="0 0 66.044 66.118">
  <defs>
    <style>
      .cls-1 {
        fill-rule: evenodd;
        fill: url(#linear-gradient);
      }

      .cls-2 {
        filter: url(#Path_60277);
      }
    </style>
    <linearGradient id="linear-gradient" x1="1.108" y1="-0.156" x2="-0.527" y2="2.149" gradientUnits="objectBoundingBox">
      <stop offset="0" stop-color="#ffa948"/>
      <stop offset="0.174" stop-color="#fcdbb6"/>
      <stop offset="0.298" stop-color="#f1bb7e"/>
      <stop offset="1" stop-color="#8a4800"/>
    </linearGradient>
    <filter id="Path_60277" x="0" y="0" width="66.044" height="66.118" filterUnits="userSpaceOnUse">
      <feOffset dy="3" input="SourceAlpha"/>
      <feGaussianBlur stdDeviation="3" result="blur"/>
      <feFlood flood-color="#323232"/>
      <feComposite operator="in" in2="blur"/>
      <feComposite in="SourceGraphic"/>
    </filter>
  </defs>
  <g id="Component_63_3" data-name="Component 63 – 3" transform="matrix(1, 0.017, -0.017, 1, 9.825, 6)">
    <g class="cls-2" transform="matrix(1, -0.02, 0.02, 1, -9.93, -5.83)">
      <path id="Path_60277-2" data-name="Path 60277" class="cls-1" d="M94.325,128.382a23.562,23.562,0,0,0-16.712-6.926h-.007l-.017.017a23.642,23.642,0,0,0,.071,47.284h.007v-.014a23.643,23.643,0,0,0,16.659-40.361Zm-22.307,34.99.029.036A19.057,19.057,0,0,1,59.59,151.356c-.953-4.108,5.137-3.067,7.983-.148C69.857,153.552,74.934,163.569,72.018,163.373Zm-8.158-17.8v-.468h.557l.759-1.59,1.844-.239-.776,1.829h.538v.468h-.738l-.858,2.025-1.769-.4.774-1.621Zm4.337-2.352,1.922-.241-2.372,5.7-1.591-.774Zm27.625,7.737a19.1,19.1,0,0,1-12.7,12.461c-2.446-.308,2.405-9.848,4.633-12.132C90.489,148.491,96.2,147.417,95.822,150.959Zm-3.971-3.753-1.767.4-.86-2.025h-.738v-.472h.538l-.776-1.828,1.844.241.759,1.587h.557v.472h-.332Zm-2.737.707-1.591.774-2.371-5.7,1.92.239Zm4.656-5.051-3.5-.788a41.871,41.871,0,0,0-4.683-.833,63.715,63.715,0,0,0-8.033-.58v0a55.25,55.25,0,0,0-7.818.506,41.411,41.411,0,0,0-4.683.828c-1.168.263-2.329.528-3.5.792-2.125.515-2.823.071-2.6-1.673a19,19,0,0,1,.693-2.49c.535-1.483.874-1.416,2-2.475a8.17,8.17,0,0,0,2.106-3.23A4.4,4.4,0,0,1,65.8,130.1a19.045,19.045,0,0,1,11.857-4.118h.007v-.014a19.017,19.017,0,0,1,11.8,4.116,4.4,4.4,0,0,1,2.042,2.817,8.137,8.137,0,0,0,2.108,3.232c1.123,1.06,1.462.989,2,2.473a19.086,19.086,0,0,1,.781,2.891C96.5,142.981,95.762,143.349,93.77,142.862Z" transform="matrix(1, 0.02, -0.02, 1, -42.07, -116.38)"/>
    </g>
  </g>
</svg>
