<svg xmlns="http://www.w3.org/2000/svg" id="Group_7734" width="18" height="18" viewBox="0 0 18 18">
    <defs>
        <style>
            .cls-1{fill:#ffffff}
        </style>
    </defs>
    <circle id="Ellipse_280" cx=".879" cy=".879" r=".879" class="cls-1" transform="translate(8.121 12.428)"/>
    <path id="Path_3934" d="M9 0a9 9 0 1 0 9 9 9 9 0 0 0-9-9zm0 16.594a7.59 7.59 0 1 1 5.371-2.223A7.594 7.594 0 0 1 9 16.594z" class="cls-1"/>
    <path id="Path_3935" d="M178.813 128.5a2.816 2.816 0 0 0-2.813 2.813.7.7 0 1 0 1.406 0 1.406 1.406 0 1 1 1.406 1.406.7.7 0 0 0-.7.7v1.758a.7.7 0 0 0 1.406 0v-1.144a2.813 2.813 0 0 0-.7-5.536z" class="cls-1" transform="translate(-169.813 -123.982)"/>
</svg>
