<svg xmlns="http://www.w3.org/2000/svg" xmlns:xlink="http://www.w3.org/1999/xlink" width="48.001" height="16.732" viewBox="0 0 48.001 16.732">
  <defs>
    <style>
      .cls-1 {
        fill: url(#linear-gradient);
      }
    </style>
    <linearGradient id="linear-gradient" x1="0.5" y1="0.13" x2="0.5" y2="1" gradientUnits="objectBoundingBox">
      <stop offset="0" stop-color="#8dffec"/>
      <stop offset="0.613" stop-color="#94ff95"/>
      <stop offset="1" stop-color="#f7ff5a"/>
    </linearGradient>
  </defs>
  <path id="Path_63954" data-name="Path 63954" class="cls-1" d="M6.425-8.581a6.805,6.805,0,0,1,3.189.731A5.364,5.364,0,0,1,11.8-5.815a5.688,5.688,0,0,1,.777,2.972,8.369,8.369,0,0,1-.423,2.572,14.413,14.413,0,0,1-1.36,2.892L7.728,7.785H3.91Q6.082,4.174,7.2,2.185a4.539,4.539,0,0,1-1.486.229,5.786,5.786,0,0,1-2.8-.674A4.894,4.894,0,0,1,.973-.135a5.292,5.292,0,0,1-.7-2.709,5.688,5.688,0,0,1,.777-2.972A5.364,5.364,0,0,1,3.236-7.85,6.805,6.805,0,0,1,6.425-8.581ZM6.448-.1A2.714,2.714,0,0,0,8.436-.867a2.655,2.655,0,0,0,.777-1.977,2.551,2.551,0,0,0-.777-1.931,2.761,2.761,0,0,0-1.989-.743,2.831,2.831,0,0,0-2.023.743,2.533,2.533,0,0,0-.789,1.931A2.634,2.634,0,0,0,4.425-.867,2.783,2.783,0,0,0,6.448-.1ZM21.557,8.128A6.244,6.244,0,0,1,17.991,7.1a6.57,6.57,0,0,1-2.354-2.914,10.988,10.988,0,0,1-.823-4.423,10.988,10.988,0,0,1,.823-4.423,6.6,6.6,0,0,1,2.343-2.914A6.229,6.229,0,0,1,21.557-8.6a6.19,6.19,0,0,1,3.554,1.029,6.6,6.6,0,0,1,2.343,2.914,10.988,10.988,0,0,1,.823,4.423,10.856,10.856,0,0,1-.834,4.423A6.674,6.674,0,0,1,25.088,7.1,6.15,6.15,0,0,1,21.557,8.128Zm0-3.154a2.568,2.568,0,0,0,2.309-1.36,7.424,7.424,0,0,0,.823-3.829,7.424,7.424,0,0,0-.823-3.829A2.568,2.568,0,0,0,21.557-5.4a2.619,2.619,0,0,0-2.331,1.36,7.207,7.207,0,0,0-.846,3.806,7.394,7.394,0,0,0,.834,3.852A2.611,2.611,0,0,0,21.557,4.974Zm12.686-5.3a3.725,3.725,0,0,1-2.72-1.029A3.547,3.547,0,0,1,30.471-4.01a3.547,3.547,0,0,1,1.051-2.652,3.725,3.725,0,0,1,2.72-1.029,3.725,3.725,0,0,1,2.72,1.029A3.547,3.547,0,0,1,38.014-4.01a3.547,3.547,0,0,1-1.051,2.652A3.725,3.725,0,0,1,34.243-.329Zm-.869,8.115,9.166-15.2h2.651l-9.166,15.2Zm.869-10.377a1.378,1.378,0,0,0,1.017-.4,1.378,1.378,0,0,0,.4-1.017,1.369,1.369,0,0,0-.4-1.029,1.4,1.4,0,0,0-1.017-.389,1.371,1.371,0,0,0-.994.389,1.369,1.369,0,0,0-.4,1.029,1.378,1.378,0,0,0,.4,1.017A1.35,1.35,0,0,0,34.243-2.592ZM44.506,8.014A3.709,3.709,0,0,1,41.8,7a3.529,3.529,0,0,1-1.04-2.64A3.567,3.567,0,0,1,41.8,1.7,3.686,3.686,0,0,1,44.506.676,3.725,3.725,0,0,1,47.226,1.7a3.547,3.547,0,0,1,1.051,2.652A3.509,3.509,0,0,1,47.226,7,3.749,3.749,0,0,1,44.506,8.014Zm0-2.24a1.34,1.34,0,0,0,1.006-.4A1.4,1.4,0,0,0,45.9,4.356a1.39,1.39,0,0,0-.389-1.029,1.5,1.5,0,0,0-2.011,0,1.39,1.39,0,0,0-.389,1.029A1.4,1.4,0,0,0,43.5,5.374,1.34,1.34,0,0,0,44.506,5.774Z" transform="translate(-0.276 8.604)"/>
</svg>
