<svg xmlns="http://www.w3.org/2000/svg" xmlns:xlink="http://www.w3.org/1999/xlink" width="48.219" height="43.28" viewBox="0 0 48.219 43.28">
  <defs>
    <style>
      .cls-1 {
        fill: #fae7c4;
      }

      .cls-2 {
        filter: url(#Union_117);
      }
    </style>
    <filter id="Union_117" x="0" y="0" width="48.219" height="43.28" filterUnits="userSpaceOnUse">
      <feOffset input="SourceAlpha"/>
      <feGaussianBlur stdDeviation="2.5" result="blur"/>
      <feFlood flood-color="#ffc04f"/>
      <feComposite operator="in" in2="blur"/>
      <feComposite in="SourceGraphic"/>
    </filter>
  </defs>
  <g id="Component_616" data-name="Component 616" transform="translate(7.5 7.5)">
    <g class="cls-2" transform="matrix(1, 0, 0, 1, -7.5, -7.5)">
      <path id="Union_117-2" data-name="Union 117" class="cls-1" d="M6.941,24.378l-.036-.037a13.544,13.544,0,0,1-3.547-6.383,14.734,14.734,0,0,1-.418-3.122l-1.125,1.2a1.1,1.1,0,0,1-.772.3,1.09,1.09,0,0,1-.735-.31L.291,16a1.075,1.075,0,0,1,.048-1.519L3.3,11.313a1.147,1.147,0,0,1,.47-.474,1.078,1.078,0,0,1,1.451.469l2.945,3.146a1.067,1.067,0,0,1,.272.741,1.082,1.082,0,0,1-1.092,1.069.989.989,0,0,1-.753-.328L5.078,14.32a12.662,12.662,0,0,0,.37,3.109A11.433,11.433,0,0,0,8.434,22.81l.026.03A11.252,11.252,0,0,0,17.139,26.1a12.281,12.281,0,0,0,7.816-3.365,1.07,1.07,0,0,1,1.519-.006,1.088,1.088,0,0,1,0,1.518,14.489,14.489,0,0,1-9.227,4c-.291.02-.58.028-.869.028A13.361,13.361,0,0,1,6.941,24.378Zm6.614-3.918a1.765,1.765,0,0,1,.036-2.5l3.032-3.03,3.028,3.03a1.765,1.765,0,0,1-2.5,2.5l-.531-.534-.543.534-.03.036a1.761,1.761,0,0,1-2.495-.036Zm6.693-3.091-3.03-3.031,3.03-3.03a1.764,1.764,0,0,1,2.495,2.5l-.533.534.533.534.013.013a1.765,1.765,0,1,1-2.508,2.484Zm-9.7,0a1.767,1.767,0,0,1-.048-2.5l.537-.534L10.5,13.8a1.765,1.765,0,0,1,2.5-2.5l3.03,3.03L13,17.368a1.753,1.753,0,0,1-1.222.491A1.778,1.778,0,0,1,10.547,17.368Zm18.057.109a1.038,1.038,0,0,1-.545-.5l-2.946-3.152v-.007a1.073,1.073,0,0,1,.061-1.525,1.105,1.105,0,0,1,1.519.055l1.5,1.609a13.066,13.066,0,0,0-.37-3.1,11.473,11.473,0,0,0-2.987-5.394l-.026-.024A11.278,11.278,0,0,0,16.13,2.172a12.3,12.3,0,0,0-7.817,3.37L8.3,5.561A1.069,1.069,0,1,1,6.809,4.03a14.488,14.488,0,0,1,9.218-4A13.361,13.361,0,0,1,26.334,3.9l.032.037a13.577,13.577,0,0,1,3.546,6.383,14.456,14.456,0,0,1,.423,3.122l1.051-1.118a1.072,1.072,0,0,1,1.469-.066,1.092,1.092,0,0,1,.1,1.518l-2.988,3.188a1.071,1.071,0,0,1-1.368.51ZM13.592,10.711a1.766,1.766,0,0,1,2.5-2.5l.537.535.531-.535a1.766,1.766,0,0,1,2.5,2.5l-3.028,3.031Z" transform="translate(7.5 7.5)"/>
    </g>
  </g>
</svg>
