<svg xmlns="http://www.w3.org/2000/svg" width="900.375" height="872.406" viewBox="0 0 900.375 872.406">
  <metadata><?xpacket begin="﻿" id="W5M0MpCehiHzreSzNTczkc9d"?>
<x:xmpmeta xmlns:x="adobe:ns:meta/" x:xmptk="Adobe XMP Core 5.6-c142 79.160924, 2017/07/13-01:06:39        ">
   <rdf:RDF xmlns:rdf="http://www.w3.org/1999/02/22-rdf-syntax-ns#">
      <rdf:Description rdf:about=""/>
   </rdf:RDF>
</x:xmpmeta>
                                                                                                    
                                                                                                    
                                                                                                    
                                                                                                    
                                                                                                    
                                                                                                    
                                                                                                    
                                                                                                    
                                                                                                    
                                                                                                    
                                                                                                    
                                                                                                    
                                                                                                    
                                                                                                    
                                                                                                    
                                                                                                    
                                                                                                    
                                                                                                    
                                                                                                    
                                                                                                    
                           
<?xpacket end="w"?></metadata>
<defs>
    <style>
      .cls-1 {
        fill: #424751;
        fill-rule: evenodd;
      }
    </style>
  </defs>
  <path class="cls-1" d="M531.374,82.242c-248.272,0-450.182,195.635-450.182,436.21s201.91,436.2,450.182,436.2S981.56,759.017,981.56,518.452,779.645,82.242,531.374,82.242Zm305.1,355.052L701.88,564.827c-4.5,4.336-5.984,8.691-4.5,14.492l31.419,179.7c2.981,13.037-11.963,23.183-23.936,17.382L537.358,690.9a13.982,13.982,0,0,0-14.955,0L354.894,776.4c-11.963,5.8-25.435-4.345-23.926-17.382l31.4-179.7c1.488-5.8-1.5-10.156-4.485-14.492L223.278,437.294c-8.971-8.7-4.486-24.638,8.97-27.538l188.443-24.638c5.989-1.455,10.475-4.345,11.979-8.691l83.749-163.752c5.984-11.6,23.925-11.6,29.909,0l83.75,163.752a23.267,23.267,0,0,0,11.962,8.691L829,411.211C840.973,412.656,846.947,428.593,836.477,437.294Z" transform="translate(-81.188 -82.25)"/>
</svg>
