<svg xmlns="http://www.w3.org/2000/svg" viewBox="0 0 54.5 50"><defs><style>.b5a70a3a-a2e7-4381-894d-ee4a26c9c05f{fill:#cac30a;}.a9dbe6f2-bb4d-42bf-b407-bda807491af1{fill:#fff;}</style></defs><title>Asset 1</title><g id="e017ff06-4fc0-4c0a-b632-0f485b24d16b" data-name="Layer 2"><g id="755e9ab3-177b-449a-8f05-54ef74dec4a4" data-name="verification"><circle class="b5a70a3a-a2e7-4381-894d-ee4a26c9c05f" cx="25" cy="25" r="25"/><path class="a9dbe6f2-bb4d-42bf-b407-bda807491af1" d="M25,12A13,13,0,1,0,38,25,13,13,0,0,0,25,12Zm4.84,23.26a11.29,11.29,0,0,1-9.68,0c-.3-.14-.59-.3-.88-.46V30.34a3.14,3.14,0,0,1,2.2-3,5.18,5.18,0,0,0,7,0,3.14,3.14,0,0,1,2.2,3V34.8C30.43,35,30.14,35.12,29.84,35.26ZM21.41,23.48A3.59,3.59,0,1,1,25,27.08,3.59,3.59,0,0,1,21.41,23.48Zm11,10.14V30.34A4.8,4.8,0,0,0,29.6,26a5.24,5.24,0,1,0-9.2,0,4.78,4.78,0,0,0-2.77,4.34v3.28a11.35,11.35,0,1,1,14.74,0Z"/><circle class="a9dbe6f2-bb4d-42bf-b407-bda807491af1" cx="45.5" cy="9" r="9"/><path d="M45.5,5a1,1,0,0,1,1.16,1.16l-.59,3.58a.57.57,0,0,1-.57.58.54.54,0,0,1-.57-.58l-.59-3.58A1,1,0,0,1,45.5,5Zm.56,7.7a.8.8,0,0,1-1.36-.56.8.8,0,0,1,.24-.56.77.77,0,0,1,1.12,0,.8.8,0,0,1,.24.56A.78.78,0,0,1,46.06,12.73Z"/></g></g></svg>