<svg xmlns="http://www.w3.org/2000/svg" width="1592" height="1443.938" viewBox="0 0 1592 1443.938">
    <path fill="#00d7ff" d="M1443.938 868.468V723.629l-721.962 72.419 721.962-210.334v-164.2L721.991 796.042l721.946-553.25V0h-4.92L722 796.031 1231.286 0h-175.648L722.011 796.016 918.147 0H782.66l-60.647 796L661.367 0H525.883l196.128 795.983L388.4 0H212.762L722 795.969 5.045 0H0v242.671l721.992 553.286L0 421.4v164.212l721.977 210.339L0 723.531v144.837l721.962-72.417L0 1006.286v164.2l721.947-374.529L0 1349.208V1592h4.919l717.017-796.031L212.652 1592H388.3l333.63-796.018L525.79 1592h135.488l60.646-796 60.647 796h135.484L721.926 796.016 1055.541 1592h175.635L721.935 796.031 1438.893 1592h5.045v-242.672L721.946 796.042l721.992 374.558v-164.213L721.962 796.048z" opacity="0.15" transform="rotate(-90 721.969 721.969)"/>
</svg>
