<svg xmlns="http://www.w3.org/2000/svg" width="35.167" height="35" viewBox="0 0 35.167 35">
    <defs>
        <filter id="7xa7cv3z5a" width="35.167" height="32.332" x="0" y="1.334" filterUnits="userSpaceOnUse">
            <feOffset/>
            <feGaussianBlur result="blur" stdDeviation="1"/>
            <feFlood flood-opacity=".6"/>
            <feComposite in2="blur" operator="in"/>
            <feComposite in="SourceGraphic"/>
        </filter>
    </defs>
    <g>
        <g>
            <g filter="url(#7xa7cv3z5a)" transform="translate(-7.917 -25.304) translate(8 25.304) translate(-.08)">
                <path fill="#fff" d="M4.416 26.332A4.419 4.419 0 0 1 0 21.917V20.5h.73a3.639 3.639 0 0 0 3.6-3.2 2.27 2.27 0 0 0 0-.885 3.644 3.644 0 0 0-3.6-3.205H0v-1.415a4.422 4.422 0 0 1 4.416-4.42h20.328a4.422 4.422 0 0 1 4.423 4.42v1.413h-.726a3.637 3.637 0 0 0-3.6 3.205 2.206 2.206 0 0 0 0 .885 3.633 3.633 0 0 0 3.6 3.2h.726v1.419a4.42 4.42 0 0 1-4.423 4.416zm7.595-4.454a1.52 1.52 0 0 0 1.232 1.52c.087.012.164.017.251.022a1.472 1.472 0 0 0 1.456-1.22 1.259 1.259 0 0 0 .022-.24V19.4a1.1 1.1 0 0 1 1.109-1.093h.319a1.531 1.531 0 0 0 1.5-1.216 1.422 1.422 0 0 0-.243-1.083 1.484 1.484 0 0 0-.967-.6 1.865 1.865 0 0 0-.251-.021h-.366a1.094 1.094 0 0 1-.067-2.187h2.656a1.481 1.481 0 0 0 1.046-.432 1.461 1.461 0 0 0 .427-1.029 1.19 1.19 0 0 0-.021-.24 1.537 1.537 0 0 0-1.506-1.216h-3.636A2.939 2.939 0 0 0 12.01 13.2v1.536a.655.655 0 0 0 .661.651h.048a1.535 1.535 0 0 1 1.441 1 1.439 1.439 0 0 1-.085 1.108 1.484 1.484 0 0 1-.863.737 1.537 1.537 0 0 1-.461.074h-.74zm-5.065-5.05a1.477 1.477 0 0 0 1.454 1.51h1.551a1.483 1.483 0 0 0 .055-2.965H8.42a1.477 1.477 0 0 0-1.475 1.456zm13.817-1.413a1.451 1.451 0 1 0 .01 0zM24.744 6.3H7.115L23.611.137a2.413 2.413 0 0 1 3.066 1.455l2.259 6.683A5.442 5.442 0 0 0 24.744 6.3z" transform="translate(3 4.33)"/>
            </g>
            <path fill="none" d="M0 0H35V35H0z" transform="translate(-7.917 -25.304) translate(8 25.304)"/>
        </g>
    </g>
</svg>
