<svg xmlns="http://www.w3.org/2000/svg" width="35" height="35" viewBox="0 0 35 35">
    <defs>
        <filter id="h25mshtv3a" width="29.332" height="28.595" x="3.416" y="3.187" filterUnits="userSpaceOnUse">
            <feOffset/>
            <feGaussianBlur result="blur" stdDeviation="1"/>
            <feFlood flood-opacity=".6"/>
            <feComposite in2="blur" operator="in"/>
            <feComposite in="SourceGraphic"/>
        </filter>
    </defs>
    <g>
        <g filter="url(#h25mshtv3a)" transform="translate(-6 -11.775) translate(6 11.78)">
            <path fill="#fff" d="M21.58 22.595h-9.334V9.758h9.92V22.01a.583.583 0 0 1-.582.584zM1.162 22.01V9.758h9.92v12.833H1.74a.58.58 0 0 1-.578-.581zM22.75 8.585H.578A.58.58 0 0 1 0 8V5.671a.581.581 0 0 1 .58-.584h5.877a3.737 3.737 0 0 1-1.2-1.233A2.441 2.441 0 0 1 5.3 1.12 2.415 2.415 0 0 1 8.045.1c1.91.542 3.4 3.072 3.621 4.987C11.885 3.176 13.373.646 15.289.1a2.411 2.411 0 0 1 2.738 1.02 2.451 2.451 0 0 1 .051 2.734 3.787 3.787 0 0 1-1.207 1.233h5.879a.583.583 0 0 1 .58.584V8a.575.575 0 0 1-.576.58zm-6.988-6.8c-.793.141-1.744 1.574-2.15 2.82 1.08-.286 2.564-.866 2.939-1.625.273-.55.086-1.216-.584-1.216a1.083 1.083 0 0 0-.205.026zM6.777 2.984c.375.76 1.859 1.339 2.943 1.625-.4-1.246-1.355-2.679-2.15-2.82a1.083 1.083 0 0 0-.205-.021c-.674 0-.857.67-.588 1.216z" transform="translate(6.42 6.19)"/>
        </g>
        <path fill="none" d="M0 0H35V35H0z" transform="translate(-6 -11.775) translate(6 11.775)"/>
    </g>
</svg>
