<svg xmlns="http://www.w3.org/2000/svg" width="36.783" height="35" viewBox="0 0 36.783 35">
    <defs>
        <filter id="xedov2ny9a" width="36.783" height="33.419" x="0" y=".75" filterUnits="userSpaceOnUse">
            <feOffset/>
            <feGaussianBlur result="blur" stdDeviation="1"/>
            <feFlood flood-opacity=".6"/>
            <feComposite in2="blur" operator="in"/>
            <feComposite in="SourceGraphic"/>
        </filter>
    </defs>
    <g>
        <path fill="none" d="M0 0H35V35H0z" transform="translate(-1058.048 -2117) translate(1058.638 2117)"/>
        <g filter="url(#xedov2ny9a)" transform="translate(-1058.048 -2117) translate(1058.05 2117)">
            <path fill="#fff" stroke="rgba(0,0,0,0)" stroke-miterlimit="10" d="M14554.417 5817.334a4.42 4.42 0 0 1-4.418-4.41v-1.431h.724a3.627 3.627 0 0 0 3.6-3.2 2.059 2.059 0 0 0 0-.88 3.647 3.647 0 0 0-3.6-3.215h-.723v-1.407a4.434 4.434 0 0 1 4.418-4.426h20.344a4.444 4.444 0 0 1 4.418 4.426v1.407h-.724a3.665 3.665 0 0 0-3.616 3.215 2.773 2.773 0 0 0 0 .88 3.644 3.644 0 0 0 3.616 3.2h.724v1.431a4.431 4.431 0 0 1-4.418 4.41zm7.374-3.773a2.01 2.01 0 0 0 .424 1.447 1.9 1.9 0 0 0 1.337.636l7.278.629c.047 0 .095.008.157.008a1.8 1.8 0 0 0 1.855-1.816l.456-5.149c.047-.692.109-1.383.173-2.075a1.767 1.767 0 0 0-1.6-2c-.094-.016-.205-.024-.3-.032l-1.98-.173-2.233-.189-.016-.1c-.031-.095-.062-.149-.078-.2-.487-1.415-1.007-2.822-1.541-4.229a1.754 1.754 0 0 0-1.667-1.226 2.1 2.1 0 0 0-.707.126q-3.442 1.25-6.886 2.507a1.786 1.786 0 0 0-1.116 2.421c.833 2.3 1.667 4.575 2.5 6.863a1.745 1.745 0 0 0 1.667 1.265 2.165 2.165 0 0 0 .738-.125c.329-.126.644-.244.99-.362.235-.095.487-.181.738-.283l-.189 2.057zm9.086 1.627q-3.419-.319-6.839-.6c-.125-.024-.268-.024-.393-.04a.724.724 0 0 1-.755-.888c.095-1.147.221-2.287.3-3.435.11-1.227.235-2.452.331-3.679.063-.7.314-.919 1-.849l6.871.6.314.024a.715.715 0 0 1 .676.825c-.079.92-.173 1.847-.251 2.768-.127 1.493-.268 2.971-.394 4.457-.048.574-.267.818-.771.818zm-6.006-3.868a.563.563 0 0 0-.2.063l-.095.039c-.031.016-.079.055-.11.071-.016.008-.031.023-.047.032-.062.039-.11.094-.173.141a1.229 1.229 0 0 0-.126.181 1.178 1.178 0 0 0-.22.7v.008a.792.792 0 0 0 .031.189.821.821 0 0 0 .047.173c.016.055.047.118.063.165a1.112 1.112 0 0 0 .362.425l.094.063a.927.927 0 0 0 .33.149.73.73 0 0 0 .127.031 1.906 1.906 0 0 0 .219.008 1.23 1.23 0 0 0 .976-.5c.031-.023.031-.062.063-.1a.516.516 0 0 0 .078-.142 1.186 1.186 0 0 0 .064-.212v-.04a1.3 1.3 0 0 0 .031-.236v-.008a1.232 1.232 0 0 0-1.243-1.226h-.031a1.246 1.246 0 0 0-.24.026zm1.526-.9a1.739 1.739 0 0 0 .078.5 1.339 1.339 0 0 0 .283.385 1.182 1.182 0 0 0 .849.369h.016a1.189 1.189 0 0 0 .221-.023.808.808 0 0 0 .094-.023.276.276 0 0 0 .109-.023c.048-.023.1-.04.127-.055.047-.023.078-.047.125-.071l.095-.071c.047-.023.063-.062.11-.094a1.069 1.069 0 0 0 .094-.094v-.016a.453.453 0 0 1 .079-.1c.031-.047.047-.086.078-.134a.359.359 0 0 1 .031-.1c.016-.063.047-.118.063-.181a1.3 1.3 0 0 0 .031-.252 1.463 1.463 0 0 0-.031-.259c-.032-.071-.048-.149-.079-.22a.9.9 0 0 0-.109-.212 1.276 1.276 0 0 0-.771-.519.81.81 0 0 0-.236-.023 1.228 1.228 0 0 0-1.254 1.212zm3.238-3.215a.388.388 0 0 0-.11.055.475.475 0 0 0-.079.047l-.016.008a1.231 1.231 0 0 0-.518.739v.079a.874.874 0 0 0-.032.2v.031a1.231 1.231 0 0 0 .032.244.6.6 0 0 0 .078.228 1.376 1.376 0 0 0 .109.213 1.927 1.927 0 0 0 .158.181 1.23 1.23 0 0 0 .864.362 1.291 1.291 0 0 0 .471-.095 1.16 1.16 0 0 0 .394-.267 1.219 1.219 0 0 0 .362-.857v-.031a1.115 1.115 0 0 0-.079-.464.1.1 0 0 1-.031-.055c-.031-.055-.063-.118-.095-.165a1.134 1.134 0 0 0-.157-.188.928.928 0 0 0-.267-.2 1.21 1.21 0 0 0-.143-.063.275.275 0 0 0-.141-.047.191.191 0 0 0-.11-.023.82.82 0 0 0-.2-.023h-.031a1.134 1.134 0 0 0-.458.086zm-9.244 2.665a1.266 1.266 0 0 1-1.227-1.305 1.261 1.261 0 0 1 2.516-.023 1.739 1.739 0 0 1-.032.3 1.1 1.1 0 0 1-.062.228.914.914 0 0 1-.126.212.341.341 0 0 1-.094.149l-.062.063c0 .016 0 .016-.017.016a.917.917 0 0 1-.142.118 1.251 1.251 0 0 1-.187.11c-.033.016-.08.031-.111.047a1.063 1.063 0 0 1-.172.055c-.032.008-.032.008-.032 0 0 .008-.031.016-.031.008a.648.648 0 0 1-.157.024zm-1.541-4.316a1.237 1.237 0 0 1-1.227-1.242v-.2c.016-.062.031-.11.047-.157a.248.248 0 0 1 .048-.141 1.109 1.109 0 0 1 .251-.37c0-.008 0-.016.016-.023a.944.944 0 0 0 .127-.11.229.229 0 0 1 .063-.031.683.683 0 0 1 .188-.1 1.159 1.159 0 0 1 .473-.1h.016a1.2 1.2 0 0 1 .864.354 1.3 1.3 0 0 1 .268.386 1.227 1.227 0 0 1 .11.479v.016a.521.521 0 0 1-.032.22.414.414 0 0 1-.031.142.652.652 0 0 1-.062.157.6.6 0 0 1-.094.173 1.821 1.821 0 0 1-.127.165c0 .016-.016.024-.031.032a.879.879 0 0 1-.156.134s-.016 0-.016.008a.784.784 0 0 1-.221.118.9.9 0 0 1-.221.07.809.809 0 0 1-.235.031zm4.292-1.588a1.244 1.244 0 0 1-1.227-1.25 1.268 1.268 0 0 1 1.242-1.226 1.238 1.238 0 0 1 1.242 1.258v.008a1.224 1.224 0 0 1-1.227 1.21zm11.618-6.674h-17.655l16.508-6.155a2.415 2.415 0 0 1 3.065 1.454l2.265 6.689a5.469 5.469 0 0 0-4.182-1.991z" transform="translate(-14546.5 -5786.67)"/>
        </g>
    </g>
</svg>
