<svg xmlns="http://www.w3.org/2000/svg" width="443.427" height="442.054" viewBox="0 0 443.427 442.054">
  <defs>
    <style>
      .cls-1 {
        fill: none;
        stroke: rgba(255,246,236,0.4);
      }
    </style>
  </defs>
  <g id="Component_57_15" data-name="Component 57 15" transform="translate(-575.138 -686.824)">
    <g id="Group_38916" data-name="Group 38916">
      <g id="Group_38914" data-name="Group 38914">
        <g id="Group_38895" data-name="Group 38895">
          <g id="Group_38894" data-name="Group 38894">
            <path id="Path_57953" data-name="Path 57953" class="cls-1" d="M796.763,908.049l210.2-68.3c15.089,46.435,15.088,90.163,0,136.6Z"/>
          </g>
        </g>
        <g id="Group_38897" data-name="Group 38897">
          <g id="Group_38896" data-name="Group 38896">
            <path id="Path_57954" data-name="Path 57954" class="cls-1" d="M796.668,908.341,926.583,729.529c39.5,28.7,65.2,64.075,80.291,110.511Z"/>
          </g>
        </g>
        <g id="Group_38899" data-name="Group 38899">
          <g id="Group_38898" data-name="Group 38898">
            <path id="Path_57955" data-name="Path 57955" class="cls-1" d="M796.69,908.348V687.324c48.827,0,90.414,13.512,129.915,42.212Z"/>
          </g>
        </g>
        <g id="Group_38901" data-name="Group 38901">
          <g id="Group_38900" data-name="Group 38900">
            <path id="Path_57956" data-name="Path 57956" class="cls-1" d="M796.712,908.355,666.8,729.543c39.5-28.7,81.086-42.209,129.913-42.212Z"/>
          </g>
        </g>
        <g id="Group_38903" data-name="Group 38903">
          <g id="Group_38902" data-name="Group 38902">
            <path id="Path_57957" data-name="Path 57957" class="cls-1" d="M796.807,908.063,586.6,839.763c15.088-46.437,40.788-81.814,80.29-110.511Z"/>
          </g>
        </g>
        <g id="Group_38905" data-name="Group 38905">
          <g id="Group_38904" data-name="Group 38904">
            <path id="Path_57958" data-name="Path 57958" class="cls-1" d="M796.941,907.651l-210.206,68.3c-15.089-46.436-15.088-90.163,0-136.6Z"/>
          </g>
        </g>
        <g id="Group_38907" data-name="Group 38907">
          <g id="Group_38906" data-name="Group 38906">
            <path id="Path_57959" data-name="Path 57959" class="cls-1" d="M797.035,907.361,667.121,1086.173c-39.5-28.7-65.2-64.076-80.291-110.511Z"/>
          </g>
        </g>
        <g id="Group_38909" data-name="Group 38909">
          <g id="Group_38908" data-name="Group 38908">
            <path id="Path_57960" data-name="Path 57960" class="cls-1" d="M797.013,907.354v221.024c-48.827,0-90.414-13.512-129.914-42.212Z"/>
          </g>
        </g>
        <g id="Group_38911" data-name="Group 38911">
          <g id="Group_38910" data-name="Group 38910">
            <path id="Path_57961" data-name="Path 57961" class="cls-1" d="M796.991,907.347l129.915,178.812c-39.5,28.7-81.086,42.208-129.914,42.211Z"/>
          </g>
        </g>
        <g id="Group_38913" data-name="Group 38913">
          <g id="Group_38912" data-name="Group 38912">
            <path id="Path_57962" data-name="Path 57962" class="cls-1" d="M796.9,907.637l210.205,68.3c-15.088,46.437-40.788,81.814-80.29,110.512Z"/>
          </g>
        </g>
      </g>
    </g>
  </g>
</svg>
