<svg id="Group_43379" data-name="Group 43379" xmlns="http://www.w3.org/2000/svg" width="363.284" height="363.279" viewBox="0 0 363.284 363.279">
  <defs>
    <style>
      .cls-1 {
        fill: #fff;
      }

      .cls-2 {
        fill: #1c252a;
      }

      .cls-3 {
        fill: #ce0e2d;
      }
    </style>
  </defs>
  <path id="Path_63817" data-name="Path 63817" class="cls-1" d="M918.059,1360.363,765.27,1261.219a183.063,183.063,0,0,1,49.151-50.633c.163-.119.326-.228.488-.337Z" transform="translate(-735.936 -1178.248)"/>
  <path id="Path_63818" data-name="Path 63818" class="cls-2" d="M959.889,1336.958,856.74,1186.845c.364-.25.727-.5,1.1-.744,1.107-.76,2.23-1.5,3.359-2.22.461-.3.928-.6,1.395-.89a183.1,183.1,0,0,1,58.22-23.922Z" transform="translate(-778.056 -1154.842)"/>
  <path id="Path_63821" data-name="Path 63821" class="cls-3" d="M1045.936,1154.091v.005l-32.057,179.3L974.8,1155.508q4.607-1.018,9.274-1.8c.689-.114,1.379-.228,2.068-.331.564-.087,1.134-.174,1.7-.25l1.617-.228c1.009-.136,2.024-.261,3.039-.385a185.485,185.485,0,0,1,21.382-1.237,182.967,182.967,0,0,1,31.916,2.789C1045.844,1154.075,1045.892,1154.086,1045.936,1154.091Z" transform="translate(-832.223 -1151.28)"/>
  <path id="Path_63824" data-name="Path 63824" class="cls-2" d="M1145.1,1182.432l-98.292,153.337,32.057-179.3c.06.005.119.016.179.027.19.032.38.065.57.1.716.13,1.433.266,2.144.407a183.985,183.985,0,0,1,61.047,23.981c.353.217.706.434,1.053.657C1144.272,1181.9,1144.69,1182.166,1145.1,1182.432Z" transform="translate(-865.341 -1153.654)"/>
  <path id="Path_63825" data-name="Path 63825" class="cls-1" d="M1196.343,1253.673,1046.81,1357.647,1145.1,1204.31h.005a183.144,183.144,0,0,1,47.681,44.43c.423.564.847,1.134,1.259,1.7.4.553.8,1.107,1.2,1.661C1195.61,1252.631,1195.979,1253.152,1196.343,1253.673Z" transform="translate(-865.642 -1175.531)"/>
  <path id="Path_63826" data-name="Path 63826" class="cls-2" d="M1224.758,1360.5l-177.948,38.748,149.533-103.974A183.118,183.118,0,0,1,1224.758,1360.5Z" transform="translate(-865.642 -1217.414)"/>
  <path id="Path_63829" data-name="Path 63829" class="cls-1" d="M1228.926,1454.208a183.044,183.044,0,0,1-2.442,29.87c-.059.38-.125.754-.19,1.134q-.114.692-.244,1.384l-179.24-32.388,177.948-38.748q1.335,6.065,2.247,12.221a.058.058,0,0,0,.005.044c.071.5.147,1.009.212,1.509.081.592.163,1.183.239,1.78.12.95.234,1.9.342,2.854a.06.06,0,0,1,.005.027A184.537,184.537,0,0,1,1228.926,1454.208Z" transform="translate(-865.642 -1272.558)"/>
  <path id="Path_63830" data-name="Path 63830" class="cls-3" d="M1226.05,1519.248c-.022.136-.049.266-.071.4-.125.684-.255,1.362-.391,2.046-.087.44-.174.885-.266,1.324-.1.515-.212,1.037-.326,1.552-.011.065-.022.13-.038.2a184.178,184.178,0,0,1-23.281,57.959c-.108.174-.212.347-.32.516-.369.6-.744,1.188-1.123,1.78q-.13.212-.277.423L1046.81,1486.86Z" transform="translate(-865.642 -1305.397)"/>
  <path id="Path_63831" data-name="Path 63831" class="cls-1" d="M1199.957,1585.44a182.963,182.963,0,0,1-49.4,51.116.3.3,0,0,1-.049.038l-103.7-149.733Z" transform="translate(-865.642 -1305.697)"/>
  <path id="Path_63832" data-name="Path 63832" class="cls-2" d="M1150.507,1636.594c-.358.25-.722.5-1.085.738-.391.271-.781.537-1.178.8-.456.309-.917.613-1.378.917-.586.386-1.178.765-1.769,1.145a183.1,183.1,0,0,1-59.864,24.7L1046.81,1486.86Z" transform="translate(-865.355 -1305.697)"/>
  <path id="Path_63833" data-name="Path 63833" class="cls-1" d="M1057.661,1664.895q-3.493.757-7.012,1.378c-.478.087-.95.168-1.422.244a184.123,184.123,0,0,1-62.708-.472l32.719-179.185Z" transform="translate(-837.603 -1305.697)"/>
  <path id="Path_63834" data-name="Path 63834" class="cls-2" d="M963.5,1486.86l-32.719,179.185q-2.914-.529-5.79-1.15c-.277-.054-.548-.114-.825-.179-.727-.157-1.454-.326-2.176-.494l-1.764-.423a184.244,184.244,0,0,1-46.65-18.538c-.325-.179-.656-.369-.982-.564-.548-.309-1.1-.635-1.644-.955q-3.2-1.889-6.312-3.913Z" transform="translate(-781.678 -1305.697)"/>
  <path id="Path_63835" data-name="Path 63835" class="cls-3" d="M920.473,1486.86l-98.862,152.968a183.047,183.047,0,0,1-51.062-49.542Z" transform="translate(-738.352 -1305.697)"/>
  <path id="Path_63836" data-name="Path 63836" class="cls-2" d="M896.716,1486.86,746.793,1590.286q-1.783-2.58-3.473-5.221a.776.776,0,0,1-.087-.13c-.277-.434-.554-.868-.82-1.3-.19-.293-.374-.591-.553-.89a182.993,182.993,0,0,1-23.26-57.78Z" transform="translate(-714.594 -1305.409)"/>
  <path id="Path_63837" data-name="Path 63837" class="cls-1" d="M893.341,1459.014l-178.116,38.1c-.358-1.677-.695-3.354-1.009-5.042-.081-.44-.163-.879-.239-1.324-.016-.1-.038-.207-.054-.309-.114-.646-.222-1.292-.331-1.943a184.262,184.262,0,0,1,.619-62.529Z" transform="translate(-711.22 -1277.383)"/>
  <path id="Path_63823" data-name="Path 63823" class="cls-2" d="M895.861,1403.314,716.73,1370.27c.223-1.226.461-2.442.711-3.658.087-.429.174-.852.266-1.275.141-.662.288-1.324.44-1.992a184.048,184.048,0,0,1,20.166-51.441c.081-.146.168-.293.255-.44.217-.374.439-.749.662-1.123.3-.521.613-1.042.933-1.557q1.417-2.328,2.909-4.613Z" transform="translate(-713.739 -1221.496)"/>
</svg>
