<svg xmlns="http://www.w3.org/2000/svg" width="35.168" height="35" viewBox="0 0 35.168 35">
    <defs>
        <filter id="qke6vt96ca" width="35.168" height="32.335" x="0" y=".168" filterUnits="userSpaceOnUse">
            <feOffset/>
            <feGaussianBlur result="blur" stdDeviation="1"/>
            <feFlood flood-opacity=".6"/>
            <feComposite in2="blur" operator="in"/>
            <feComposite in="SourceGraphic"/>
        </filter>
    </defs>
    <g>
        <g filter="url(#qke6vt96ca)" transform="translate(-7.915 -25.725) translate(7.91 25.72)">
            <path fill="#fff" d="M4.416 26.335A4.423 4.423 0 0 1 0 21.918V20.5h.73a3.642 3.642 0 0 0 3.6-3.2 2.241 2.241 0 0 0 0-.883 3.642 3.642 0 0 0-3.6-3.205H0v-1.42a4.422 4.422 0 0 1 4.416-4.418h20.33a4.427 4.427 0 0 1 4.42 4.417v1.417h-.729a3.646 3.646 0 0 0-3.6 3.205 2.241 2.241 0 0 0 0 .883 3.649 3.649 0 0 0 3.6 3.2h.729v1.417a4.426 4.426 0 0 1-4.42 4.417zM12.541 12.2v2.245L7.2 15.41a.836.836 0 0 0-.656.79v1.332a1.336 1.336 0 0 0 1.334 1.335h4.811a26.421 26.421 0 0 0 .422 2.714l-2 .985a1.18 1.18 0 0 0-.594.964v1.336h8.053v-1.335a1.184 1.184 0 0 0-.6-.964l-2-.985a24.915 24.915 0 0 0 .424-2.714h4.813a1.335 1.335 0 0 0 1.332-1.335V16.2a.819.819 0 0 0-.652-.785l-5.348-.973V12.2a1.331 1.331 0 0 0-1.336-1.331h-.166v-1.05h1.668a.5.5 0 0 0 0-1h-4.336a.5.5 0 0 0 0 1h1.67v1.05h-.166a1.334 1.334 0 0 0-1.332 1.331zm12.205-5.9H7.113L23.607.137a2.414 2.414 0 0 1 3.066 1.456l2.268 6.683a5.485 5.485 0 0 0-4.195-1.981z" transform="translate(3 3.17)"/>
        </g>
        <path fill="none" d="M0 0H35V35H0z" transform="translate(-7.915 -25.725) translate(8 25.725)"/>
    </g>
</svg>
