<svg xmlns="http://www.w3.org/2000/svg" xmlns:xlink="http://www.w3.org/1999/xlink" width="173.986" height="351.816" viewBox="0 0 173.986 351.816">
  <defs>
    <style>
      .cls-1, .cls-2 {
        fill: #ce0e2d;
      }

      .cls-3, .cls-4 {
        fill: url(#linear-gradient);
      }

      .cls-5 {
        fill: #fff;
      }

      .cls-6 {
        fill: none;
      }

      .cls-7, .cls-8, .cls-9 {
        stroke: none;
      }

      .cls-8 {
        fill: rgba(255,255,255,0.91);
      }

      .cls-9 {
        fill: #fff;
      }

      .cls-10 {
        filter: url(#Path_63871-2);
      }

      .cls-11 {
        filter: url(#Path_63871);
      }

      .cls-12 {
        filter: url(#Path_63870);
      }
    </style>
    <filter id="Path_63870" x="0" y="0" width="173.986" height="351.816" filterUnits="userSpaceOnUse">
      <feOffset input="SourceAlpha"/>
      <feGaussianBlur stdDeviation="10" result="blur"/>
      <feFlood flood-color="#fff"/>
      <feComposite operator="in" in2="blur"/>
      <feComposite in="SourceGraphic"/>
    </filter>
    <linearGradient id="linear-gradient" x1="0.5" y1="0.018" x2="0.556" y2="1" gradientUnits="objectBoundingBox">
      <stop offset="0" stop-color="#ececec"/>
      <stop offset="0.458" stop-color="#f6f6f6"/>
      <stop offset="1" stop-color="#e6e6e6"/>
    </linearGradient>
    <filter id="Path_63871" x="0" y="0" width="173.986" height="351.816" filterUnits="userSpaceOnUse">
      <feOffset input="SourceAlpha"/>
      <feGaussianBlur stdDeviation="10" result="blur-2"/>
      <feFlood flood-color="#fff"/>
      <feComposite operator="in" in2="blur-2"/>
    </filter>
    <filter id="Path_63871-2" x="0" y="0" width="173.986" height="351.816" filterUnits="userSpaceOnUse">
      <feOffset dy="5" input="SourceAlpha"/>
      <feGaussianBlur stdDeviation="3" result="blur-3"/>
      <feFlood flood-opacity="0.49" result="color"/>
      <feComposite operator="out" in="SourceGraphic" in2="blur-3"/>
      <feComposite operator="in" in="color"/>
      <feComposite operator="in" in2="SourceGraphic"/>
    </filter>
  </defs>
  <g id="Component_763_41" data-name="Component 763 – 41" transform="translate(30 30)">
    <path id="Path_63821" data-name="Path 63821" class="cls-1" d="M1088.786,1155.784v.009l-51.367,287.3L974.8,1158.054q7.383-1.631,14.861-2.878c1.1-.183,2.209-.365,3.313-.531.9-.139,1.817-.278,2.722-.4l2.591-.365c1.617-.218,3.244-.417,4.87-.618a297.158,297.158,0,0,1,34.262-1.983,293.16,293.16,0,0,1,51.141,4.47C1088.638,1155.759,1088.716,1155.776,1088.786,1155.784Z" transform="translate(-974.8 -1151.28)"/>
    <g class="cls-12" transform="matrix(1, 0, 0, 1, -30, -30)">
      <g id="Path_63870-2" data-name="Path 63870" class="cls-2" transform="translate(-944.8 -1121.28)">
        <path class="cls-7" d="M1088.786,1155.784v.009l-51.367,287.3L974.8,1158.054q7.383-1.631,14.861-2.878c1.1-.183,2.209-.365,3.313-.531.9-.139,1.817-.278,2.722-.4l2.591-.365c1.617-.218,3.244-.417,4.87-.618a297.158,297.158,0,0,1,34.262-1.983,293.16,293.16,0,0,1,51.141,4.47C1088.638,1155.759,1088.716,1155.776,1088.786,1155.784Z"/>
        <path class="cls-8" d="M 1037.4189453125 1152.280029296875 C 1026.064697265625 1152.280029296875 1014.575805664062 1152.94482421875 1003.273559570312 1154.255859375 L 1003.25048828125 1154.2587890625 C 1001.663818359375 1154.453979492188 1000.023071289062 1154.655883789062 998.4208984375 1154.871215820312 C 997.722900390625 1154.968872070312 997.030517578125 1155.066650390625 996.3392333984375 1155.164306640625 L 995.829833984375 1155.236083984375 C 994.9332275390625 1155.357177734375 994.039306640625 1155.493286132812 993.1221923828125 1155.634399414062 C 992.0311279296875 1155.797485351562 990.9178466796875 1155.981689453125 989.8411865234375 1156.15966796875 L 989.8262939453125 1156.162109375 C 985.156982421875 1156.944213867188 980.5076904296875 1157.836547851562 975.9913330078125 1158.817016601562 L 1037.318237304688 1437.977416992188 L 1087.625244140625 1156.600830078125 C 1071.169921875 1153.7333984375 1054.28369140625 1152.280029296875 1037.4189453125 1152.280029296875 M 1037.4189453125 1151.280029296875 C 1054.871704101562 1151.280029296875 1071.958862304688 1152.810668945312 1088.559448242188 1155.749633789062 C 1088.637573242188 1155.758544921875 1088.7158203125 1155.77587890625 1088.785522460938 1155.784423828125 L 1088.785522460938 1155.793090820312 L 1037.4189453125 1443.09619140625 L 974.7999267578125 1158.05419921875 C 979.7218017578125 1156.967163085938 984.678466796875 1156.010498046875 989.6611328125 1155.175903320312 C 990.7655029296875 1154.993286132812 991.8699951171875 1154.810546875 992.9742431640625 1154.645385742188 C 993.878662109375 1154.506225585938 994.7916259765625 1154.3671875 995.6961669921875 1154.2451171875 C 996.5570068359375 1154.123657226562 997.4178466796875 1154.001831054688 998.2874755859375 1153.880249023438 C 999.90478515625 1153.662719726562 1001.531005859375 1153.462768554688 1003.1572265625 1153.2626953125 C 1014.401000976562 1151.958374023438 1025.827392578125 1151.280029296875 1037.4189453125 1151.280029296875 Z"/>
      </g>
    </g>
    <g data-type="innerShadowGroup">
      <g class="cls-11" transform="matrix(1, 0, 0, 1, -30, -30)">
        <g id="Path_63871-3" data-name="Path 63871" class="cls-3" transform="translate(-944.8 -1121.28)">
          <path class="cls-7" d="M 1037.267944335938 1435.41796875 L 976.5873413085938 1159.19970703125 C 980.9420776367188 1158.262451171875 985.4163208007812 1157.407836914062 989.908935546875 1156.6552734375 L 989.9298706054688 1156.65185546875 C 991.0023193359375 1156.474487304688 992.111328125 1156.291137695312 993.1961669921875 1156.12890625 L 993.1992797851562 1156.12841796875 L 993.202392578125 1156.1279296875 C 994.1128540039062 1155.98779296875 995.0040283203125 1155.85205078125 995.8967895507812 1155.731689453125 L 995.9013061523438 1155.731079101562 L 995.90576171875 1155.730346679688 L 996.3907470703125 1155.661987304688 C 997.0872802734375 1155.563598632812 997.7848510742188 1155.465087890625 998.48828125 1155.366821289062 C 1000.08740234375 1155.151733398438 1001.726501464844 1154.950073242188 1003.311645507812 1154.755004882812 L 1003.335388183594 1154.752075195312 C 1014.617309570312 1153.443603515625 1026.085205078125 1152.780029296875 1037.4189453125 1152.780029296875 C 1054.085815429688 1152.780029296875 1070.773681640625 1154.201904296875 1087.044555664062 1157.007690429688 L 1037.267944335938 1435.41796875 Z"/>
          <path class="cls-9" d="M 1037.4189453125 1154.280029296875 C 1026.14404296875 1154.280029296875 1014.736938476562 1154.93994140625 1003.513549804688 1156.241455078125 L 1003.494750976562 1156.243774414062 C 1001.91552734375 1156.438110351562 1000.282836914062 1156.638916015625 998.69384765625 1156.8525390625 C 997.998046875 1156.949829101562 997.307861328125 1157.04736328125 996.6187744140625 1157.144653320312 L 996.097412109375 1157.218139648438 C 995.2176513671875 1157.3369140625 994.3338623046875 1157.471435546875 993.430419921875 1157.610473632812 L 993.41796875 1157.612426757812 C 992.34228515625 1157.773315429688 991.2366943359375 1157.9560546875 990.16748046875 1158.132934570312 L 990.1505126953125 1158.1357421875 C 986.1875 1158.799560546875 982.23974609375 1159.543212890625 978.37646484375 1160.353149414062 L 1037.116943359375 1427.739868164062 L 1085.3017578125 1158.233276367188 C 1069.586181640625 1155.609252929688 1053.4931640625 1154.280029296875 1037.4189453125 1154.280029296875 M 1037.4189453125 1151.280029296875 C 1054.871704101562 1151.280029296875 1071.958862304688 1152.810668945312 1088.559448242188 1155.749633789062 C 1088.637573242188 1155.758544921875 1088.7158203125 1155.77587890625 1088.785522460938 1155.784423828125 L 1088.785522460938 1155.793090820312 L 1037.4189453125 1443.09619140625 L 974.7999267578125 1158.05419921875 C 979.7218017578125 1156.967163085938 984.678466796875 1156.010498046875 989.6611328125 1155.175903320312 C 990.7655029296875 1154.993286132812 991.8699951171875 1154.810546875 992.9742431640625 1154.645385742188 C 993.878662109375 1154.506225585938 994.7916259765625 1154.3671875 995.6961669921875 1154.2451171875 C 996.5570068359375 1154.123657226562 997.4178466796875 1154.001831054688 998.2874755859375 1153.880249023438 C 999.90478515625 1153.662719726562 1001.531005859375 1153.462768554688 1003.1572265625 1153.2626953125 C 1014.401000976562 1151.958374023438 1025.827392578125 1151.280029296875 1037.4189453125 1151.280029296875 Z"/>
        </g>
      </g>
      <g id="Path_63871-4" data-name="Path 63871" class="cls-4" transform="translate(-974.8 -1151.28)">
        <path class="cls-7" d="M 1037.267944335938 1435.41796875 L 976.5873413085938 1159.19970703125 C 980.9420776367188 1158.262451171875 985.4163208007812 1157.407836914062 989.908935546875 1156.6552734375 L 989.9298706054688 1156.65185546875 C 991.0023193359375 1156.474487304688 992.111328125 1156.291137695312 993.1961669921875 1156.12890625 L 993.1992797851562 1156.12841796875 L 993.202392578125 1156.1279296875 C 994.1128540039062 1155.98779296875 995.0040283203125 1155.85205078125 995.8967895507812 1155.731689453125 L 995.9013061523438 1155.731079101562 L 995.90576171875 1155.730346679688 L 996.3907470703125 1155.661987304688 C 997.0872802734375 1155.563598632812 997.7848510742188 1155.465087890625 998.48828125 1155.366821289062 C 1000.08740234375 1155.151733398438 1001.726501464844 1154.950073242188 1003.311645507812 1154.755004882812 L 1003.335388183594 1154.752075195312 C 1014.617309570312 1153.443603515625 1026.085205078125 1152.780029296875 1037.4189453125 1152.780029296875 C 1054.085815429688 1152.780029296875 1070.773681640625 1154.201904296875 1087.044555664062 1157.007690429688 L 1037.267944335938 1435.41796875 Z"/>
        <path class="cls-7" d="M 1037.4189453125 1154.280029296875 C 1026.14404296875 1154.280029296875 1014.736938476562 1154.93994140625 1003.513549804688 1156.241455078125 L 1003.494750976562 1156.243774414062 C 1001.91552734375 1156.438110351562 1000.282836914062 1156.638916015625 998.69384765625 1156.8525390625 C 997.998046875 1156.949829101562 997.307861328125 1157.04736328125 996.6187744140625 1157.144653320312 L 996.097412109375 1157.218139648438 C 995.2176513671875 1157.3369140625 994.3338623046875 1157.471435546875 993.430419921875 1157.610473632812 L 993.41796875 1157.612426757812 C 992.34228515625 1157.773315429688 991.2366943359375 1157.9560546875 990.16748046875 1158.132934570312 L 990.1505126953125 1158.1357421875 C 986.1875 1158.799560546875 982.23974609375 1159.543212890625 978.37646484375 1160.353149414062 L 1037.116943359375 1427.739868164062 L 1085.3017578125 1158.233276367188 C 1069.586181640625 1155.609252929688 1053.4931640625 1154.280029296875 1037.4189453125 1154.280029296875 M 1037.4189453125 1151.280029296875 C 1054.871704101562 1151.280029296875 1071.958862304688 1152.810668945312 1088.559448242188 1155.749633789062 C 1088.637573242188 1155.758544921875 1088.7158203125 1155.77587890625 1088.785522460938 1155.784423828125 L 1088.785522460938 1155.793090820312 L 1037.4189453125 1443.09619140625 L 974.7999267578125 1158.05419921875 C 979.7218017578125 1156.967163085938 984.678466796875 1156.010498046875 989.6611328125 1155.175903320312 C 990.7655029296875 1154.993286132812 991.8699951171875 1154.810546875 992.9742431640625 1154.645385742188 C 993.878662109375 1154.506225585938 994.7916259765625 1154.3671875 995.6961669921875 1154.2451171875 C 996.5570068359375 1154.123657226562 997.4178466796875 1154.001831054688 998.2874755859375 1153.880249023438 C 999.90478515625 1153.662719726562 1001.531005859375 1153.462768554688 1003.1572265625 1153.2626953125 C 1014.401000976562 1151.958374023438 1025.827392578125 1151.280029296875 1037.4189453125 1151.280029296875 Z"/>
      </g>
      <g class="cls-10" transform="matrix(1, 0, 0, 1, -30, -30)">
        <g id="Path_63871-5" data-name="Path 63871" class="cls-5" transform="translate(-944.8 -1121.28)">
          <path class="cls-7" d="M 1037.267944335938 1435.41796875 L 976.5873413085938 1159.19970703125 C 980.9420776367188 1158.262451171875 985.4163208007812 1157.407836914062 989.908935546875 1156.6552734375 L 989.9298706054688 1156.65185546875 C 991.0023193359375 1156.474487304688 992.111328125 1156.291137695312 993.1961669921875 1156.12890625 L 993.1992797851562 1156.12841796875 L 993.202392578125 1156.1279296875 C 994.1128540039062 1155.98779296875 995.0040283203125 1155.85205078125 995.8967895507812 1155.731689453125 L 995.9013061523438 1155.731079101562 L 995.90576171875 1155.730346679688 L 996.3907470703125 1155.661987304688 C 997.0872802734375 1155.563598632812 997.7848510742188 1155.465087890625 998.48828125 1155.366821289062 C 1000.08740234375 1155.151733398438 1001.726501464844 1154.950073242188 1003.311645507812 1154.755004882812 L 1003.335388183594 1154.752075195312 C 1014.617309570312 1153.443603515625 1026.085205078125 1152.780029296875 1037.4189453125 1152.780029296875 C 1054.085815429688 1152.780029296875 1070.773681640625 1154.201904296875 1087.044555664062 1157.007690429688 L 1037.267944335938 1435.41796875 Z"/>
          <path class="cls-7" d="M 1037.4189453125 1154.280029296875 C 1026.14404296875 1154.280029296875 1014.736938476562 1154.93994140625 1003.513549804688 1156.241455078125 L 1003.494750976562 1156.243774414062 C 1001.91552734375 1156.438110351562 1000.282836914062 1156.638916015625 998.69384765625 1156.8525390625 C 997.998046875 1156.949829101562 997.307861328125 1157.04736328125 996.6187744140625 1157.144653320312 L 996.097412109375 1157.218139648438 C 995.2176513671875 1157.3369140625 994.3338623046875 1157.471435546875 993.430419921875 1157.610473632812 L 993.41796875 1157.612426757812 C 992.34228515625 1157.773315429688 991.2366943359375 1157.9560546875 990.16748046875 1158.132934570312 L 990.1505126953125 1158.1357421875 C 986.1875 1158.799560546875 982.23974609375 1159.543212890625 978.37646484375 1160.353149414062 L 1037.116943359375 1427.739868164062 L 1085.3017578125 1158.233276367188 C 1069.586181640625 1155.609252929688 1053.4931640625 1154.280029296875 1037.4189453125 1154.280029296875 M 1037.4189453125 1151.280029296875 C 1054.871704101562 1151.280029296875 1071.958862304688 1152.810668945312 1088.559448242188 1155.749633789062 C 1088.637573242188 1155.758544921875 1088.7158203125 1155.77587890625 1088.785522460938 1155.784423828125 L 1088.785522460938 1155.793090820312 L 1037.4189453125 1443.09619140625 L 974.7999267578125 1158.05419921875 C 979.7218017578125 1156.967163085938 984.678466796875 1156.010498046875 989.6611328125 1155.175903320312 C 990.7655029296875 1154.993286132812 991.8699951171875 1154.810546875 992.9742431640625 1154.645385742188 C 993.878662109375 1154.506225585938 994.7916259765625 1154.3671875 995.6961669921875 1154.2451171875 C 996.5570068359375 1154.123657226562 997.4178466796875 1154.001831054688 998.2874755859375 1153.880249023438 C 999.90478515625 1153.662719726562 1001.531005859375 1153.462768554688 1003.1572265625 1153.2626953125 C 1014.401000976562 1151.958374023438 1025.827392578125 1151.280029296875 1037.4189453125 1151.280029296875 Z"/>
        </g>
      </g>
      <g id="Path_63871-6" data-name="Path 63871" class="cls-6" transform="translate(-974.8 -1151.28)">
        <path class="cls-7" d="M 1037.267944335938 1435.41796875 L 976.5873413085938 1159.19970703125 C 980.9420776367188 1158.262451171875 985.4163208007812 1157.407836914062 989.908935546875 1156.6552734375 L 989.9298706054688 1156.65185546875 C 991.0023193359375 1156.474487304688 992.111328125 1156.291137695312 993.1961669921875 1156.12890625 L 993.1992797851562 1156.12841796875 L 993.202392578125 1156.1279296875 C 994.1128540039062 1155.98779296875 995.0040283203125 1155.85205078125 995.8967895507812 1155.731689453125 L 995.9013061523438 1155.731079101562 L 995.90576171875 1155.730346679688 L 996.3907470703125 1155.661987304688 C 997.0872802734375 1155.563598632812 997.7848510742188 1155.465087890625 998.48828125 1155.366821289062 C 1000.08740234375 1155.151733398438 1001.726501464844 1154.950073242188 1003.311645507812 1154.755004882812 L 1003.335388183594 1154.752075195312 C 1014.617309570312 1153.443603515625 1026.085205078125 1152.780029296875 1037.4189453125 1152.780029296875 C 1054.085815429688 1152.780029296875 1070.773681640625 1154.201904296875 1087.044555664062 1157.007690429688 L 1037.267944335938 1435.41796875 Z"/>
        <path class="cls-9" d="M 1037.4189453125 1154.280029296875 C 1026.14404296875 1154.280029296875 1014.736938476562 1154.93994140625 1003.513549804688 1156.241455078125 L 1003.494750976562 1156.243774414062 C 1001.91552734375 1156.438110351562 1000.282836914062 1156.638916015625 998.69384765625 1156.8525390625 C 997.998046875 1156.949829101562 997.307861328125 1157.04736328125 996.6187744140625 1157.144653320312 L 996.097412109375 1157.218139648438 C 995.2176513671875 1157.3369140625 994.3338623046875 1157.471435546875 993.430419921875 1157.610473632812 L 993.41796875 1157.612426757812 C 992.34228515625 1157.773315429688 991.2366943359375 1157.9560546875 990.16748046875 1158.132934570312 L 990.1505126953125 1158.1357421875 C 986.1875 1158.799560546875 982.23974609375 1159.543212890625 978.37646484375 1160.353149414062 L 1037.116943359375 1427.739868164062 L 1085.3017578125 1158.233276367188 C 1069.586181640625 1155.609252929688 1053.4931640625 1154.280029296875 1037.4189453125 1154.280029296875 M 1037.4189453125 1151.280029296875 C 1054.871704101562 1151.280029296875 1071.958862304688 1152.810668945312 1088.559448242188 1155.749633789062 C 1088.637573242188 1155.758544921875 1088.7158203125 1155.77587890625 1088.785522460938 1155.784423828125 L 1088.785522460938 1155.793090820312 L 1037.4189453125 1443.09619140625 L 974.7999267578125 1158.05419921875 C 979.7218017578125 1156.967163085938 984.678466796875 1156.010498046875 989.6611328125 1155.175903320312 C 990.7655029296875 1154.993286132812 991.8699951171875 1154.810546875 992.9742431640625 1154.645385742188 C 993.878662109375 1154.506225585938 994.7916259765625 1154.3671875 995.6961669921875 1154.2451171875 C 996.5570068359375 1154.123657226562 997.4178466796875 1154.001831054688 998.2874755859375 1153.880249023438 C 999.90478515625 1153.662719726562 1001.531005859375 1153.462768554688 1003.1572265625 1153.2626953125 C 1014.401000976562 1151.958374023438 1025.827392578125 1151.280029296875 1037.4189453125 1151.280029296875 Z"/>
      </g>
    </g>
  </g>
</svg>
