<svg width="30" height="20" viewBox="0 0 30 20" fill="none" xmlns="http://www.w3.org/2000/svg">
<g filter="url(#filter0_d_529_15303)">
<path fill-rule="evenodd" clip-rule="evenodd" d="M11.226 7.63602H14.8271C15.1548 7.63602 15.4228 7.86201 15.4228 8.13851L15.4228 13.4116C15.4228 13.6885 15.1548 13.9145 14.8271 13.9145H11.226C10.8984 13.9145 10.63 13.6881 10.63 13.4116V8.13851C10.63 7.86201 10.8984 7.63602 11.226 7.63602ZM5.07776 7.63602H8.67887C9.0065 7.63602 9.27492 7.86201 9.27492 8.13851V13.4116C9.27492 13.6885 9.0065 13.9145 8.67887 13.9145H5.07776C4.75012 13.9145 4.48242 13.6881 4.48242 13.4116L4.48242 8.13851C4.48242 7.86201 4.75012 7.63602 5.07776 7.63602ZM17.3743 7.63602L20.9754 7.63602C21.303 7.63602 21.5711 7.86201 21.5711 8.13851V13.4116C21.5711 13.6885 21.303 13.9145 20.9754 13.9145L17.3743 13.9145C17.0466 13.9145 16.7782 13.6881 16.7782 13.4116V8.13851C16.7782 7.86201 17.0466 7.63602 17.3743 7.63602Z" fill="white"/>
<path fill-rule="evenodd" clip-rule="evenodd" d="M24.7153 7.15702V7.88979H25.7291L25.7291 10.3414H27.1789L27.1789 2.64175C26.5911 2.49885 26.1543 1.97021 26.1543 1.33986C26.1543 0.599911 26.7558 0 27.4968 0C28.2382 0 28.8397 0.599911 28.8397 1.33986C28.8397 1.88712 28.5102 2.35809 28.0383 2.56618L28.0383 10.7704C28.0383 11.0072 27.846 11.1991 27.6084 11.1991H25.7291V13.718H24.7153V15.9021C24.7153 16.3673 24.5244 16.7907 24.2169 17.0976L24.2151 17.0994C23.9075 17.4063 23.483 17.5969 23.0172 17.5969L2.69812 17.5969C2.23089 17.5969 1.806 17.4067 1.49882 17.0994C1.19128 16.7924 1 16.3688 1 15.9021L1 7.15702L1 6.26392L1 5.17476C1 4.70809 1.19128 4.28439 1.49882 3.97745C1.806 3.67016 2.23089 3.47998 2.69812 3.47998L19.9674 3.53378V4.32515L2.69812 4.3374C2.46809 4.3374 2.25852 4.4316 2.106 4.58345C1.95385 4.73531 1.85947 4.94447 1.85947 5.17441L1.85947 6.26392V7.15702L1.85947 15.9024C1.85947 16.1324 1.95385 16.3415 2.106 16.4934C2.25852 16.6452 2.46809 16.7394 2.69812 16.7394L23.0172 16.7394C23.248 16.7394 23.4579 16.6456 23.6101 16.4945C23.7618 16.3426 23.8559 16.1327 23.8559 15.9024L23.8559 7.15702V6.26392V5.17441C23.8559 4.94412 23.7618 4.73424 23.6101 4.58238C23.4579 4.43124 23.248 4.3374 23.0172 4.3374L19.9674 4.32515V3.53378L23.0172 3.47998C23.483 3.47998 23.9075 3.67052 24.2151 3.97745L24.2169 3.97924C24.5244 4.28618 24.7153 4.70952 24.7153 5.17476V6.26392V7.15702Z" fill="white"/>
</g>
<defs>
<filter id="filter0_d_529_15303" x="0" y="0" width="29.8396" height="19.5969" filterUnits="userSpaceOnUse" color-interpolation-filters="sRGB">
<feFlood flood-opacity="0" result="BackgroundImageFix"/>
<feColorMatrix in="SourceAlpha" type="matrix" values="0 0 0 0 0 0 0 0 0 0 0 0 0 0 0 0 0 0 127 0" result="hardAlpha"/>
<feOffset dy="1"/>
<feGaussianBlur stdDeviation="0.5"/>
<feComposite in2="hardAlpha" operator="out"/>
<feColorMatrix type="matrix" values="0 0 0 0 0 0 0 0 0 0 0 0 0 0 0 0 0 0 1 0"/>
<feBlend mode="normal" in2="BackgroundImageFix" result="effect1_dropShadow_529_15303"/>
<feBlend mode="normal" in="SourceGraphic" in2="effect1_dropShadow_529_15303" result="shape"/>
</filter>
</defs>
</svg>
