<svg width="16" height="14" viewBox="0 0 16 14" fill="none" xmlns="http://www.w3.org/2000/svg">
<path d="M9.14293 2.30781e-07C7.32437 0.000144608 5.58033 0.737689 4.29441 2.05041C3.00849 3.36313 2.28601 5.14353 2.28587 7H0L2.96373 10.0255L3.01707 10.1344L6.09493 7H3.8096C3.80366 5.73323 4.22854 4.50362 5.01174 3.52102C5.79494 2.53843 6.8879 1.86375 8.1041 1.61215C9.32029 1.36054 10.5843 1.5476 11.6805 2.14141C12.7766 2.73521 13.6369 3.69894 14.1145 4.86813C14.5922 6.03731 14.6575 7.33947 14.2995 8.55237C13.9414 9.76527 13.1821 10.8137 12.1511 11.5188C11.1202 12.2238 9.88149 12.5418 8.64648 12.4184C7.41147 12.295 6.25668 11.7379 5.3792 10.8422L4.29707 11.9469C5.09429 12.7607 6.07585 13.3613 7.15477 13.6954C8.2337 14.0295 9.37669 14.0868 10.4825 13.8622C11.5883 13.6376 12.6227 13.138 13.4942 12.4078C14.3657 11.6776 15.0473 10.7392 15.4786 9.67575C15.91 8.61234 16.0777 7.45674 15.967 6.31133C15.8564 5.16592 15.4707 4.06606 14.8441 3.10919C14.2175 2.15231 13.3694 1.36796 12.375 0.825624C11.3805 0.283287 10.2704 -0.00029532 9.14293 2.30781e-07ZM8.3808 3.88901V7.77802L11.6416 9.75383L12.1904 8.81247L9.52373 7.19491V3.88901H8.3808Z" fill="white"/>
</svg>
