<svg width="30" height="26" viewBox="0 0 30 26" fill="none" xmlns="http://www.w3.org/2000/svg">
<path d="M8.81483 23.4073L8.77374 23.3812C6.89766 22.2044 5.3904 20.5437 4.41583 18.5784C3.99962 17.7426 3.67296 16.865 3.44128 15.9616L2.68317 17.2163C2.61175 17.3211 2.51979 17.4108 2.41289 17.4808C2.30598 17.5507 2.18655 17.5998 2.06076 17.624C1.8181 17.6736 1.56621 17.6287 1.35836 17.4989L1.33818 17.4858C1.12566 17.3443 0.980037 17.1256 0.932932 16.8772C0.885828 16.6289 0.941534 16.3713 1.08738 16.1613L3.08482 12.8573C3.13687 12.6621 3.25009 12.4882 3.40765 12.3578C3.50576 12.2773 3.61857 12.2155 3.74031 12.1778C3.86204 12.14 3.99021 12.127 4.11698 12.1377C4.24375 12.1484 4.36656 12.1828 4.47902 12.2404C4.59149 12.298 4.69155 12.3773 4.77254 12.473L7.97607 14.6096C8.13191 14.7163 8.25187 14.8653 8.3211 15.0392C8.39032 15.2131 8.40583 15.404 8.3655 15.5874C8.32516 15.7707 8.23042 15.9389 8.09389 16.071C7.95736 16.2031 7.78483 16.2932 7.59736 16.3302C7.47389 16.3605 7.34544 16.3641 7.22087 16.3409C7.09631 16.3177 6.97838 16.2686 6.87572 16.1962L5.22948 15.0967C5.4273 16.0016 5.73719 16.8784 6.15311 17.7072C6.97247 19.367 8.24296 20.7704 9.82533 21.7644L9.85565 21.7826C11.0692 22.5347 12.4345 23.0219 13.861 23.2129C15.2874 23.4039 16.7417 23.2943 18.1268 22.8902C20.6709 22.1795 22.8816 20.6043 24.3608 18.4476C24.499 18.2344 24.7168 18.0819 24.967 18.0244C25.2172 17.9668 25.4795 18.0075 25.697 18.1389L25.7023 18.1421C25.9149 18.2797 26.064 18.4948 26.1178 18.7396C26.1716 18.9844 26.1261 19.2397 25.9907 19.4538C24.2491 22.0079 21.6394 23.8759 18.633 24.7202C18.3811 24.794 18.1279 24.8594 17.8733 24.9163C14.758 25.6112 11.5006 25.0689 8.81483 23.4073ZM13.8829 18.7258C13.5309 18.5001 13.2853 18.145 13.2006 17.74C13.1159 17.3349 13.199 16.9131 13.4311 16.565L15.5194 13.3522L18.7726 15.372C19.1197 15.5962 19.3615 15.9451 19.4468 16.3449C19.5322 16.7448 19.4543 17.1631 19.2291 17.5097C19.0038 17.8563 18.6494 18.1037 18.2425 18.1985C17.8357 18.2934 17.4091 18.2288 17.0535 18.0176L16.4806 17.6595L16.1117 18.228L16.089 18.2639C15.8559 18.6114 15.4928 18.8552 15.079 18.9418C14.6652 19.0284 14.2347 18.9508 13.8822 18.7259L13.8829 18.7258ZM19.1818 14.7417L15.9303 12.723L18.0143 9.51415C18.2424 9.16337 18.6024 8.91425 19.0151 8.82214C19.4278 8.73003 19.8596 8.80208 20.2152 9.0226C20.5708 9.24312 20.8208 9.59408 20.911 9.99805C21.0011 10.402 20.9237 10.8262 20.6956 11.177L20.3293 11.7405L20.9015 12.0988L20.917 12.1042C21.2641 12.3298 21.5053 12.6809 21.5892 13.082C21.6731 13.483 21.5925 13.902 21.365 14.2482C21.1375 14.5944 20.7812 14.8398 20.373 14.9324C19.9647 15.0249 19.5374 14.9571 19.1828 14.7429L19.1818 14.7417ZM10.6396 16.6494C10.4612 16.5439 10.3057 16.4053 10.1829 16.2404C10.06 16.0754 9.97175 15.888 9.92315 15.6889C9.87454 15.4898 9.86664 15.2831 9.89974 15.0802C9.93284 14.8774 10.0061 14.6818 10.1159 14.5062L10.4823 13.9397L9.91001 13.5843C9.5545 13.3646 9.30412 13.0154 9.21346 12.612C9.1228 12.2086 9.19936 11.7843 9.42666 11.4336C9.65396 11.0829 10.0139 10.8345 10.426 10.7419C10.8381 10.6493 11.2686 10.7201 11.6241 10.9398L14.881 12.9559L12.7919 16.1687C12.5619 16.5038 12.2104 16.7407 11.8098 16.8302C11.4091 16.9196 10.9903 16.8548 10.6396 16.6494ZM26.5679 13.1934C26.3413 13.1583 26.1365 13.0416 25.9937 12.8664L22.7905 10.7312L22.7853 10.7279C22.5739 10.5845 22.4299 10.3641 22.3851 10.1153C22.3403 9.86642 22.3979 9.60958 22.5459 9.40087C22.6956 9.19651 22.9197 9.05581 23.171 9.00865C23.4223 8.96149 23.6812 9.01043 23.8943 9.14671L25.5322 10.2422C25.3339 9.33825 25.0249 8.46195 24.6124 7.63226C23.7913 5.97371 22.5219 4.57056 20.9409 3.57494L20.9106 3.55675C19.6958 2.80546 18.3294 2.31793 16.9024 2.12709C15.4753 1.93625 14.02 2.04533 12.6342 2.44884C10.0879 3.15622 7.8752 4.73206 6.39521 6.88962L6.38221 6.90868C6.2387 7.1125 6.02029 7.25434 5.77334 7.30314C5.52639 7.35194 5.27006 7.30414 5.06018 7.17016C4.8503 7.03618 4.70333 6.82675 4.64993 6.58622C4.59653 6.34569 4.64144 6.09297 4.7749 5.88274C6.5146 3.32957 9.12173 1.46208 12.1262 0.617827C13.7716 0.139185 15.4995 0.00968653 17.1936 0.236547C18.8878 0.463407 20.5096 1.04136 21.9517 1.93344L21.9876 1.95627C23.8646 3.13411 25.3726 4.79775 26.3467 6.76468C26.7626 7.59742 27.0884 8.47108 27.3191 9.37169L28.0288 8.20276C28.1595 7.99648 28.3648 7.84544 28.6031 7.78079C28.8413 7.71614 29.095 7.74259 29.3127 7.85434C29.5344 7.97778 29.6981 8.18016 29.77 8.42044C29.8418 8.66073 29.8162 8.92046 29.6983 9.14432L27.6775 12.4815C27.6193 12.7036 27.4822 12.899 27.2911 13.0319C27.188 13.1045 27.0717 13.1558 26.9483 13.1833C26.8233 13.2116 26.6939 13.2147 26.5679 13.1934ZM12.0389 10.3112C11.6875 10.0889 11.4408 9.73835 11.353 9.33643C11.2653 8.93451 11.3432 8.51313 11.5699 8.16449C11.7967 7.81584 12.1541 7.5688 12.5639 7.47547C12.9737 7.38215 13.4029 7.45086 13.7583 7.66694L14.3302 8.02387L14.7001 7.45659C14.9328 7.11673 15.2909 6.87741 15.698 6.79168C16.1051 6.70595 16.5288 6.78076 16.8784 6.998C17.2281 7.21525 17.4754 7.55774 17.5684 7.95419C17.6614 8.35065 17.5928 8.76934 17.3761 9.11915L15.2904 12.3269L12.0389 10.3112Z" fill="#263162"/>
</svg>
