<svg width="20" height="20" viewBox="0 0 20 20" fill="none" xmlns="http://www.w3.org/2000/svg">
<path fill-rule="evenodd" clip-rule="evenodd" d="M0 10C0 4.47715 4.47715 0 10 0C15.5204 0.00597071 19.994 4.47963 20 10C20 15.5228 15.5228 20 10 20C4.47715 20 0 15.5228 0 10ZM10.2778 3.75C11.0448 3.75 11.6667 4.37183 11.6667 5.13889C11.6667 5.90595 11.0448 6.52778 10.2778 6.52778C9.51072 6.52778 8.88889 5.90595 8.88889 5.13889C8.88889 4.37183 9.51072 3.75 10.2778 3.75ZM11.5306 15.6099C11.123 15.8184 10.7985 15.9764 10.5551 16.0859C10.3124 16.1953 10.0302 16.25 9.70904 16.25C9.21561 16.25 8.83146 16.0937 8.55792 15.7819C8.28439 15.4701 8.1483 15.0749 8.1483 14.5946C8.1483 14.4079 8.15835 14.2168 8.17847 14.0223C8.19925 13.8277 8.2321 13.6089 8.27702 13.3631L8.78721 11.0285C8.83213 10.8045 8.87101 10.5917 8.90185 10.3937C8.93269 10.1939 8.94744 10.0106 8.94744 9.84389C8.94744 9.54686 8.89984 9.33841 8.80531 9.22117C8.70944 9.10392 8.5291 9.0466 8.26026 9.0466C8.12885 9.0466 7.99343 9.07178 7.85465 9.12476C7.71722 9.17948 7.59788 9.22898 7.5 9.27762L7.63475 8.55849C7.96862 8.38219 8.28841 8.23107 8.59346 8.106C8.8985 7.9792 9.18678 7.91667 9.4583 7.91667C9.94838 7.91667 10.3265 8.07126 10.5927 8.37698C10.8575 8.68356 10.9909 9.0822 10.9909 9.57204C10.9909 9.67366 10.9815 9.85257 10.9634 10.1079C10.9453 10.3641 10.9111 10.5977 10.8615 10.8123L10.354 13.1399C10.3124 13.3266 10.2755 13.5403 10.242 13.7791C10.2092 14.0179 10.1931 14.2003 10.1931 14.3228C10.1931 14.632 10.246 14.843 10.3533 14.9551C10.4592 15.0671 10.6449 15.1235 10.9078 15.1235C11.0318 15.1235 11.1706 15.0949 11.3274 15.0393C11.483 14.9837 11.5956 14.9342 11.6667 14.8917L11.5306 15.6099Z" fill="white"/>
</svg>
