<svg width="24" height="20" viewBox="0 0 24 20" fill="none" xmlns="http://www.w3.org/2000/svg">
<g filter="url(#filter0_d_529_15307)">
<path d="M20 9C20 7.9 20.9 7 22 7V3C22 1.9 21.1 1 20 1H4C2.9 1 2.01 1.9 2.01 3V7C3.11 7 4 7.9 4 9C4 10.1 3.11 11 2 11V15C2 16.1 2.9 17 4 17H20C21.1 17 22 16.1 22 15V11C20.9 11 20 10.1 20 9ZM15.58 13.8L12 11.5L8.42 13.8L9.5 9.68L6.21 6.99L10.45 6.74L12 2.8L13.54 6.75L17.78 7L14.49 9.69L15.58 13.8Z" fill="white"/>
</g>
<defs>
<filter id="filter0_d_529_15307" x="0" y="0" width="24" height="20" filterUnits="userSpaceOnUse" color-interpolation-filters="sRGB">
<feFlood flood-opacity="0" result="BackgroundImageFix"/>
<feColorMatrix in="SourceAlpha" type="matrix" values="0 0 0 0 0 0 0 0 0 0 0 0 0 0 0 0 0 0 127 0" result="hardAlpha"/>
<feOffset dy="1"/>
<feGaussianBlur stdDeviation="1"/>
<feComposite in2="hardAlpha" operator="out"/>
<feColorMatrix type="matrix" values="0 0 0 0 0 0 0 0 0 0 0 0 0 0 0 0 0 0 0.4 0"/>
<feBlend mode="normal" in2="BackgroundImageFix" result="effect1_dropShadow_529_15307"/>
<feBlend mode="normal" in="SourceGraphic" in2="effect1_dropShadow_529_15307" result="shape"/>
</filter>
</defs>
</svg>
