<svg width="32" height="32" viewBox="0 0 32 32" fill="none" xmlns="http://www.w3.org/2000/svg">
<path fill-rule="evenodd" clip-rule="evenodd" d="M19.1922 3.7732C17.9714 3.41342 16.6973 3.2233 15.4101 3.21764V3.21753L15.3913 3.21757L15.3726 3.21753V3.21764C10.6158 3.23856 6.0396 5.77802 3.66667 10.0902C0.796471 15.3061 1.69693 21.7966 5.87771 26.0273C8.47257 28.6531 12.0958 29.9898 15.3726 30V30L15.3913 30L15.4101 30V30C18.6868 29.9898 22.31 28.6531 24.9049 26.0273C28.386 22.5046 29.5928 17.4153 28.2425 12.7996C27.4321 13.2257 26.5236 13.4907 25.5598 13.5517C26.5499 16.9166 25.8212 20.601 23.5359 23.3474C23.3756 23.5396 23.1076 23.6019 22.8794 23.4999C21.9008 23.0546 20.7155 22.6154 19.36 22.1152L18.5333 21.8102C18.3355 21.6648 18.2058 21.4443 18.1747 21.2002C18.0129 20.6234 18.0896 20.0054 18.3875 19.4861C19.5788 18.1746 20.3143 16.7594 20.3143 13.7826C20.4347 12.4167 19.9673 11.0643 19.03 10.0666C18.0926 9.0688 16.7749 8.52091 15.409 8.56109H15.3736C14.0077 8.52091 12.69 9.0688 11.7526 10.0666C10.8153 11.0643 10.3479 12.4167 10.4683 13.7826C10.4683 16.7594 11.2038 18.1746 12.3951 19.4861C12.693 20.0054 12.7697 20.6234 12.6079 21.2002C12.5768 21.4443 12.4472 21.6648 12.2493 21.8102L11.4226 22.1152C10.0671 22.6154 8.88181 23.0546 7.90318 23.4999C7.67498 23.6019 7.40703 23.5396 7.24671 23.3474C4.61595 20.1858 4.04799 15.7813 5.79015 12.0519C7.52965 8.3282 11.2942 5.94982 15.3913 5.94959C16.4426 5.94965 17.472 6.10628 18.4508 6.40204C18.5159 5.4586 18.7764 4.56892 19.1922 3.7732Z" fill="white"/>
<path fill-rule="evenodd" clip-rule="evenodd" d="M22.8604 2.56487C23.5603 2.19299 24.3408 1.999 25.1332 2C26.847 1.99998 28.4346 2.90195 29.3127 4.37463C30.1908 5.8473 30.23 7.67356 29.4159 9.18261C28.9945 9.9565 28.3725 10.6025 27.6152 11.0525C26.2714 11.8586 24.6203 11.9621 23.1865 11.3301C21.2448 10.485 20.072 8.48069 20.2859 6.37287C20.361 5.65645 20.5955 4.96594 20.9721 4.352C21.4291 3.59695 22.0815 2.97947 22.8604 2.56487ZM27.0961 5.04347L27.0185 5.0438C26.8913 5.04657 26.7743 5.10919 26.7002 5.21682L24.7563 7.79169L23.5093 6.81709C23.3412 6.68589 23.0939 6.71271 22.9605 6.87542C22.831 7.03343 22.857 7.26171 23.0203 7.38923L24.5866 8.61199C24.6695 8.67647 24.7766 8.70575 24.883 8.69254C24.9888 8.6794 25.084 8.62543 25.1463 8.54459L27.3625 5.63561C27.448 5.53032 27.4672 5.38949 27.4133 5.26712C27.3582 5.14225 27.2354 5.05549 27.0961 5.04347Z" fill="#FF2425"/>
</svg>
