<svg width="32" height="30" viewBox="0 0 32 30" fill="none" xmlns="http://www.w3.org/2000/svg">
<path fill-rule="evenodd" clip-rule="evenodd" d="M18.6882 3.43494C17.4995 3.10742 16.2589 2.93435 15.0054 2.92919V2.92908L14.9848 2.92912L14.9689 2.92909V2.92918C10.3371 2.94822 5.881 5.26 3.57038 9.1856C0.775553 13.9338 1.65237 19.8424 5.72337 23.6938C8.25009 26.0842 11.7782 27.3011 14.9689 27.3103V27.3104L14.9918 27.3104L15.0054 27.3104V27.3103C18.1961 27.3011 21.7242 26.0842 24.2509 23.6938C27.6406 20.487 28.8158 15.854 27.5009 11.652C26.7117 12.04 25.8272 12.2812 24.8887 12.3367C25.8527 15.4 25.1432 18.754 22.9179 21.2542C22.7618 21.4292 22.5009 21.4859 22.2786 21.393C21.3257 20.9876 20.1715 20.5878 18.8516 20.1325L18.0467 19.8548C17.854 19.7225 17.7277 19.5217 17.6975 19.2995C17.5399 18.7744 17.6146 18.2119 17.9046 17.7391C19.0647 16.5452 19.7809 15.2569 19.7809 12.547C19.8981 11.3035 19.443 10.0724 18.5303 9.16407C17.6177 8.25587 16.3347 7.75712 15.0049 7.79356H14.9699C13.6399 7.75698 12.3568 8.25575 11.444 9.16406C10.5313 10.0724 10.0762 11.3035 10.1934 12.547C10.1934 15.2569 10.9096 16.5452 12.0697 17.7391C12.3597 18.2119 12.4344 18.7744 12.2768 19.2995C12.2466 19.5217 12.1203 19.7225 11.9276 19.8548L11.1227 20.1324C9.80276 20.5878 8.64859 20.9876 7.69566 21.393C7.47345 21.4859 7.21253 21.4292 7.05642 21.2542C4.49474 18.3761 3.94169 14.3665 5.6381 10.9714C7.32935 7.58672 10.9865 5.42301 14.9689 5.41621V5.41622C15.9989 5.41457 17.0075 5.55725 17.9664 5.82809C18.0297 4.96924 18.2834 4.15932 18.6882 3.43494Z" fill="white"/>
<path fill-rule="evenodd" clip-rule="evenodd" d="M22.2601 2.33491C22.9416 1.99637 23.7016 1.81977 24.4732 1.82068C26.1421 1.82066 27.6879 2.64177 28.543 3.98241C29.398 5.32305 29.4362 6.98558 28.6435 8.35933C28.2332 9.06384 27.6275 9.65188 26.8901 10.0616C25.5816 10.7954 23.9738 10.8896 22.5776 10.3143C20.6869 9.54494 19.545 7.72034 19.7532 5.8015C19.8264 5.14931 20.0547 4.5207 20.4214 3.96181C20.8664 3.27445 21.5017 2.71234 22.2601 2.33491ZM26.3846 4.59129L26.309 4.59159C26.1852 4.59411 26.0712 4.65111 25.9991 4.7491L24.1062 7.09311L22.8919 6.20589C22.7283 6.08646 22.4875 6.11087 22.3576 6.25899C22.2315 6.40284 22.2568 6.61065 22.4159 6.72674L23.941 7.83987C24.0218 7.89857 24.126 7.92522 24.2296 7.9132C24.3326 7.90123 24.4253 7.8521 24.486 7.77851L26.644 5.13034C26.7273 5.03449 26.746 4.90628 26.6935 4.79488C26.6399 4.68121 26.5202 4.60223 26.3846 4.59129Z" fill="#01AC2D"/>
</svg>
