<svg width="17" height="16" viewBox="0 0 17 16" fill="none" xmlns="http://www.w3.org/2000/svg">
<path fill-rule="evenodd" clip-rule="evenodd" d="M10.0326 8.11789C10.0013 8.08662 9.98369 8.04417 9.98369 7.99989C9.98369 7.95562 10.0013 7.91316 10.0326 7.8819L16.2075 1.70749C16.5979 1.31648 16.5975 0.682993 16.2065 0.292544C15.8155 -0.0979049 15.182 -0.0974572 14.7916 0.293544L8.61743 6.46529C8.58617 6.49663 8.54371 6.51425 8.49944 6.51425C8.45517 6.51425 8.41272 6.49663 8.38145 6.46529L2.2073 0.293544C1.81687 -0.0970891 1.1837 -0.0972383 0.793083 0.293211C0.402466 0.68366 0.402317 1.31685 0.79275 1.70749L6.96624 7.8819C6.99758 7.91316 7.0152 7.95562 7.0152 7.99989C7.0152 8.04417 6.99758 8.08662 6.96624 8.11789L0.79275 14.293C0.540184 14.5457 0.441609 14.9139 0.534158 15.259C0.626707 15.6041 0.896318 15.8736 1.24143 15.966C1.58655 16.0584 1.95473 15.9596 2.2073 15.7069L8.38145 9.53183C8.41272 9.50048 8.45517 9.48287 8.49944 9.48287C8.54371 9.48287 8.58617 9.50048 8.61743 9.53183L14.7916 15.7069C15.182 16.0975 15.8152 16.0977 16.2058 15.7072C16.5964 15.3168 16.5966 14.6836 16.2061 14.293L10.0326 8.11789Z" fill="white"/>
</svg>
