<?xml version="1.0" encoding="UTF-8"?>
<svg width="32px" height="32px" viewBox="0 0 32 32" version="1.1" xmlns="http://www.w3.org/2000/svg" xmlns:xlink="http://www.w3.org/1999/xlink">
    <title>BE4E79F2-A574-4DAF-9B93-CD4EE66278F4@1.00x</title>
    <g id="Symbols" stroke="none" stroke-width="1" fill="none" fill-rule="evenodd">
        <g id="icon/star-disabled" transform="translate(-4.000000, -4.000000)" fill="#1D2329" fill-rule="nonzero" stroke="#323B43">
            <path d="M33.6947416,15.2279841 L25.4332272,14.4057589 C24.9124292,14.355927 24.4624123,14.0071042 24.2495953,13.4838699 L21.2905154,5.93434691 C20.8170626,4.68855103 19.1360685,4.68855103 18.6626157,5.93434691 L15.7272084,13.4838699 C15.5378273,14.0071042 15.0643746,14.355927 14.5435765,14.4057589 L6.28182542,15.2279841 C5.05084818,15.3525637 4.55372276,16.9720984 5.47695568,17.8441555 L11.7028598,23.5997324 C12.1052947,23.9734712 12.2710031,24.5216214 12.1526399,25.0697716 L10.2825014,33.1422797 C9.99842977,34.4132406 11.3004249,35.45946 12.3893663,34.7869794 L19.2781043,30.5261083 C19.7278845,30.2520332 20.2723552,30.2520332 20.7221353,30.5261083 L27.61111,34.7869794 C28.7000514,35.45946 30.0020466,34.4381565 29.7177382,33.1422797 L27.8712723,25.0697716 C27.7529092,24.5216214 27.9186176,23.9734712 28.3210525,23.5997324 L34.5469566,17.8441555 C35.4465169,16.9720984 34.9257188,15.3525637 33.6947416,15.2279841 Z" id="Mask"></path>
        </g>
    </g>
</svg>