<?xml version="1.0" encoding="UTF-8"?>
<svg width="30px" height="30px" viewBox="0 0 30 30" version="1.1" xmlns="http://www.w3.org/2000/svg" xmlns:xlink="http://www.w3.org/1999/xlink">
    <title>icon/verified</title>
    <g id="Survey" stroke="none" stroke-width="1" fill="none" fill-rule="evenodd">
        <g id="CES-step-2" transform="translate(-172.000000, -152.000000)" fill="#01AC2D">
            <g id="pop-up" transform="translate(20.000000, 78.000000)">
                <g id="icon/check-badge" transform="translate(148.000000, 70.000000)">
                    <path d="M19,4 C27.2802735,4.00964345 33.9903565,10.7197265 34,19 C34,27.2842712 27.2842712,34 19,34 C10.7157288,34 4,27.2842712 4,19 C4,10.7157288 10.7157288,4 19,4 Z M25.5130962,13.379909 C25.113517,13.3419145 24.7253851,13.5265816 24.5028001,13.8605921 L24.5028001,13.8605921 L17.7148894,23.0728344 L13.2717348,19.5180927 C12.801547,19.1418221 12.1153569,19.217957 11.7390863,19.6881448 C11.3628157,20.1583325 11.4389506,20.8445227 11.9091383,21.2207933 L11.9091383,21.2207933 L17.2374356,25.4808149 C17.4703645,25.6628966 17.766685,25.743753 18.0598137,25.7052158 C18.3529424,25.6666786 18.6182948,25.5119798 18.796246,25.2758804 L18.796246,25.2758804 L26.2578243,15.1501534 C26.5100736,14.8379397 26.570339,14.412362 26.4146934,14.0423869 C26.2590477,13.6724119 25.9126754,13.4179035 25.5130962,13.379909 Z" id="Combined-Shape"></path>
                </g>
            </g>
        </g>
    </g>
</svg>