<svg width="16" height="16" viewBox="0 0 16 16" fill="none" xmlns="http://www.w3.org/2000/svg">
<g opacity="0.5">
<path fill-rule="evenodd" clip-rule="evenodd" d="M12.0562 6.85156C12.2462 6.85156 12.4072 6.92969 12.5394 7.08594C12.6715 7.24219 12.7417 7.4375 12.75 7.67188V13.168C12.7417 13.4023 12.6715 13.5977 12.5394 13.7539C12.4072 13.9102 12.2462 13.9922 12.0562 14H3.68138C3.49142 13.9922 3.33037 13.9102 3.19822 13.7539C3.06607 13.5977 3 13.4023 3 13.168V7.67188C3 7.4375 3.06607 7.24219 3.19822 7.08594C3.33037 6.92969 3.49142 6.85156 3.68138 6.85156H3.92916V5.75C3.95394 4.71094 4.3256 3.83789 5.04416 3.13086C5.76271 2.42383 6.66709 2.04688 7.75731 2H7.9803C9.07052 2.04688 9.9749 2.42383 10.6935 3.13086C11.412 3.83789 11.7837 4.71094 11.8084 5.75V6.85156H11.9323C11.9984 6.85156 12.0397 6.85156 12.0562 6.85156ZM8.6493 10.4141C8.85578 10.2266 8.95902 9.99219 8.95902 9.71094C8.95076 9.4375 8.85578 9.20703 8.67408 9.01953C8.49238 8.83203 8.26112 8.72656 7.9803 8.70312H7.75731C7.47649 8.72656 7.24524 8.83203 7.06353 9.01953C6.88183 9.20703 6.78685 9.4375 6.77859 9.71094C6.78685 9.99219 6.89009 10.2266 7.08831 10.4141V12.0781C7.08831 12.1719 7.12341 12.252 7.19361 12.3184C7.26382 12.3848 7.3526 12.4219 7.45997 12.4297H8.29003C8.38914 12.4219 8.47379 12.3848 8.544 12.3184C8.6142 12.252 8.6493 12.1719 8.6493 12.0781V11.2461C8.6493 10.7617 8.6493 10.4844 8.6493 10.4141ZM10.1731 6.85156V5.75C10.1566 5.13281 9.93154 4.61523 9.49794 4.19727C9.06433 3.7793 8.52128 3.5625 7.86881 3.54688C7.21633 3.5625 6.67328 3.7793 6.23968 4.19727C5.80607 4.61523 5.581 5.13281 5.56449 5.75V6.85156H9.08291C9.71887 6.85156 10.0823 6.85156 10.1731 6.85156Z" fill="white"/>
</g>
</svg>
