<svg id="Layer_1" data-name="Layer 1" xmlns="http://www.w3.org/2000/svg" viewBox="0 0 103.3 103.74"><defs><style>.cls-1{fill:#fefefe;}</style></defs><title>adjarabet logo</title><path class="cls-1" d="M118,120.14c0,7-.14,13.19.07,19.34.09,2.48-1,3.45-3,4.36-30.13,13.8-67.19-7.68-71.13-40.71C40.31,73,60.52,51.21,83.11,45.74c31.48-7.62,63.44,17.06,63.58,49.46.07,15.33-.1,30.65.09,46,0,3.56-.59,5.17-4.57,4.79-4.6-.44-10.77,1.48-13.51-.86-3.18-2.71-.93-9-1-13.79-.16-11.66.07-23.32-.08-35-.22-17.33-12-30.53-28.89-32.69-15.94-2-30.76,8-35.17,23.8A33.18,33.18,0,0,0,76,122.83a32.67,32.67,0,0,0,37.41.56C114.74,122.49,116,121.53,118,120.14Z" transform="translate(-43.48 -44.35)"/></svg>